<svg xmlns="http://www.w3.org/2000/svg" xmlns:xlink="http://www.w3.org/1999/xlink" xmlns:lucid="lucid" width="1420.59" height="1420"><g transform="translate(-537.9747714173977 373.33333333333337)" lucid:page-tab-id="0_0"><path d="M500-500h1500v2000H500z" fill="#fff"/><path d="M669.36-252.33v4.97m0 4.97v9.95m0 4.97v9.94m0 4.97v9.94m0 4.97v9.94m0 4.97v9.94m0 4.97v9.94m0 4.98v9.94m0 4.97v9.93m0 4.97v9.94m0 4.97v9.95m0 4.97v9.94m0 4.97v9.94m0 4.97v9.95m0 4.96v9.94m0 4.97v9.94m0 4.98v9.94m0 4.97v9.93m0 4.97v9.94m0 4.97v9.95m0 4.97v9.95m0 4.97v9.94m0 4.97v9.94m0 4.96v9.94m0 4.97v9.94m0 4.98v9.94m0 4.97v9.93m0 4.97v9.94m0 4.97v9.96m0 4.97v9.94m0 4.97v9.94m0 4.97v9.94m0 4.96v9.94m0 4.97v9.94m0 4.98v9.94m0 4.98v9.94m0 4.97v9.95m0 4.97v9.94m0 4.97v9.94m0 4.97v9.94m0 4.97v9.94m0 4.96V364m0 4.98v9.94m0 4.97v9.93m0 4.97v9.94m0 4.97v9.95m0 4.97v9.94m0 4.97v9.94m0 4.97v9.94m0 4.97v9.94m0 4.97v9.94m0 4.98v9.94m0 4.97v9.93m0 4.97v9.94m0 4.97v9.95m0 4.97v9.94m0 4.97v9.94m0 4.98v9.94m0 4.96v9.94m0 4.97v9.94m0 4.98v9.94m0 4.97v9.93m0 4.97v9.94m0 4.97v9.95m0 4.98v9.94m0 4.97v9.94m0 4.97v9.94m0 4.96v9.94m0 4.97v9.94m0 4.98v9.94m0 4.97v9.93m0 4.98v9.95m0 4.97v9.94m0 4.97v9.94m0 4.97v9.94m0 4.97V871m0 4.96v9.94m0 4.97v9.94m0 5v9.93m0 4.97v4.97" stroke="#3a414a" fill="none"/><path d="M669.86-252.32h-1v-.5h1zM669.86 926.17h-1v-.52h1z" stroke="#3a414a" stroke-width=".05" fill="#3a414a"/><path d="M1582.97-252.33v4.97m0 4.97v9.95m0 4.97v9.94m0 4.97v9.94m0 4.97v9.94m0 4.97v9.94m0 4.97v9.94m0 4.98v9.94m0 4.97v9.93m0 4.97v9.94m0 4.97v9.95m0 4.97v9.94m0 4.97v9.94m0 4.97v9.95m0 4.96v9.94m0 4.97v9.94m0 4.98v9.94m0 4.97v9.93m0 4.97v9.94m0 4.97v9.95m0 4.97v9.95m0 4.97v9.94m0 4.97v9.94m0 4.96v9.94m0 4.97v9.94m0 4.98v9.94m0 4.97v9.93m0 4.97v9.94m0 4.97v9.96m0 4.97v9.94m0 4.97v9.94m0 4.97v9.94m0 4.96v9.94m0 4.97v9.94m0 4.98v9.94m0 4.98v9.94m0 4.97v9.95m0 4.97v9.94m0 4.97v9.94m0 4.97v9.94m0 4.97v9.94m0 4.96V364m0 4.98v9.94m0 4.97v9.93m0 4.97v9.94m0 4.97v9.95m0 4.97v9.94m0 4.97v9.94m0 4.97v9.94m0 4.97v9.94m0 4.97v9.94m0 4.98v9.94m0 4.97v9.93m0 4.97v9.94m0 4.97v9.95m0 4.97v9.94m0 4.97v9.94m0 4.98v9.94m0 4.96v9.94m0 4.97v9.94m0 4.98v9.94m0 4.97v9.93m0 4.97v9.94m0 4.97v9.95m0 4.98v9.94m0 4.97v9.94m0 4.97v9.94m0 4.96v9.94m0 4.97v9.94m0 4.98v9.94m0 4.97v9.93m0 4.98v9.95m0 4.97v9.94m0 4.97v9.94m0 4.97v9.94m0 4.97V871m0 4.96v9.94m0 4.97v9.94m0 5v9.93m0 4.97v4.97" stroke="#3a414a" fill="none"/><path d="M1583.47-252.32h-1v-.5h1zM1583.47 926.17h-1v-.52h1z" stroke="#3a414a" stroke-width=".05" fill="#3a414a"/><path d="M1023.63-252.33v4.97m0 4.97v9.95m0 4.97v9.94m0 4.97v9.94m0 4.97v9.94m0 4.97v9.94m0 4.97v9.94m0 4.98v9.94m0 4.97v9.93m0 4.97v9.94m0 4.97v9.95m0 4.97v9.94m0 4.97v9.94m0 4.97v9.95m0 4.96v9.94m0 4.97v9.94m0 4.98v9.94m0 4.97v9.93m0 4.97v9.94m0 4.97v9.95m0 4.97v9.95m0 4.97v9.94m0 4.97v9.94m0 4.96v9.94m0 4.97v9.94m0 4.98v9.94m0 4.97v9.93m0 4.97v9.94m0 4.97v9.96m0 4.97v9.94m0 4.97v9.94m0 4.97v9.94m0 4.96v9.94m0 4.97v9.94m0 4.98v9.94m0 4.98v9.94m0 4.97v9.95m0 4.97v9.94m0 4.97v9.94m0 4.97v9.94m0 4.97v9.94m0 4.96V364m0 4.98v9.94m0 4.97v9.93m0 4.97v9.94m0 4.97v9.95m0 4.97v9.94m0 4.97v9.94m0 4.97v9.94m0 4.97v9.94m0 4.97v9.94m0 4.98v9.94m0 4.97v9.93m0 4.97v9.94m0 4.97v9.95m0 4.97v9.94m0 4.97v9.94m0 4.98v9.94m0 4.96v9.94m0 4.97v9.94m0 4.98v9.94m0 4.97v9.93m0 4.97v9.94m0 4.97v9.95m0 4.98v9.94m0 4.97v9.94m0 4.97v9.94m0 4.96v9.94m0 4.97v9.94m0 4.98v9.94m0 4.97v9.93m0 4.98v9.95m0 4.97v9.94m0 4.97v9.94m0 4.97v9.94m0 4.97V871m0 4.96v9.94m0 4.97v9.94m0 5v9.93m0 4.97v4.97" stroke="#3a414a" fill="none"/><path d="M1024.13-252.32h-1v-.5h1zM1024.13 926.17h-1v-.52h1z" stroke="#3a414a" stroke-width=".05" fill="#3a414a"/><path d="M1855.87-252.33v4.97m0 4.97v9.95m0 4.97v9.94m0 4.97v9.94m0 4.97v9.94m0 4.97v9.94m0 4.97v9.94m0 4.98v9.94m0 4.97v9.93m0 4.97v9.94m0 4.97v9.95m0 4.97v9.94m0 4.97v9.94m0 4.97v9.95m0 4.96v9.94m0 4.97v9.94m0 4.98v9.94m0 4.97v9.93m0 4.97v9.94m0 4.97v9.95m0 4.97v9.95m0 4.97v9.94m0 4.97v9.94m0 4.96v9.94m0 4.97v9.94m0 4.98v9.94m0 4.97v9.93m0 4.97v9.94m0 4.97v9.96m0 4.97v9.94m0 4.97v9.94m0 4.97v9.94m0 4.96v9.94m0 4.97v9.94m0 4.98v9.94m0 4.98v9.94m0 4.97v9.95m0 4.97v9.94m0 4.97v9.94m0 4.97v9.94m0 4.97v9.94m0 4.96V364m0 4.98v9.94m0 4.97v9.93m0 4.97v9.94m0 4.97v9.95m0 4.97v9.94m0 4.97v9.94m0 4.97v9.94m0 4.97v9.94m0 4.97v9.94m0 4.98v9.94m0 4.97v9.93m0 4.97v9.94m0 4.97v9.95m0 4.97v9.94m0 4.97v9.94m0 4.98v9.94m0 4.96v9.94m0 4.97v9.94m0 4.98v9.94m0 4.97v9.93m0 4.97v9.94m0 4.97v9.95m0 4.98v9.94m0 4.97v9.94m0 4.97v9.94m0 4.96v9.94m0 4.97v9.94m0 4.98v9.94m0 4.97v9.93m0 4.98v9.95m0 4.97v9.94m0 4.97v9.94m0 4.97v9.94m0 4.97V871m0 4.96v9.94m0 4.97v9.94m0 5v9.93m0 4.97v4.97" stroke="#3a414a" fill="none"/><path d="M1856.37-252.32h-1v-.5h1zM1856.37 926.17h-1v-.52h1z" stroke="#3a414a" stroke-width=".05" fill="#3a414a"/><path d="M557.98-345.33a8 8 0 0 1 8-8h206.76a8 8 0 0 1 8 8v84a8 8 0 0 1-8 8H566a8 8 0 0 1-8-8z" stroke="#3a414a" fill="#fff"/><use xlink:href="#a" transform="matrix(1,0,0,1,557.9747714173977,-353.33333333333337) translate(15.679999999999987 55.025)"/><use xlink:href="#b" transform="matrix(1,0,0,1,557.9747714173977,-353.33333333333337) translate(80.53 55.025)"/><use xlink:href="#c" transform="matrix(1,0,0,1,557.9747714173977,-353.33333333333337) translate(127.48 55.025)"/><path d="M1326.52-252.33v4.97m0 4.97v9.95m0 4.97v9.94m0 4.97v9.94m0 4.97v9.94m0 4.97v9.94m0 4.97v9.94m0 4.98v9.94m0 4.97v9.93m0 4.97v9.94m0 4.97v9.95m0 4.97v9.94m0 4.97v9.94m0 4.97v9.95m0 4.96v9.94m0 4.97v9.94m0 4.98v9.94m0 4.97v9.93m0 4.97v9.94m0 4.97v9.95m0 4.97v9.95m0 4.97v9.94m0 4.97v9.94m0 4.96v9.94m0 4.97v9.94m0 4.98v9.94m0 4.97v9.93m0 4.97v9.94m0 4.97v9.96m0 4.97v9.94m0 4.97v9.94m0 4.97v9.94m0 4.96v9.94m0 4.97v9.94m0 4.98v9.94m0 4.98v9.94m0 4.97v9.95m0 4.97v9.94m0 4.97v9.94m0 4.97v9.94m0 4.97v9.94m0 4.96V364m0 4.98v9.94m0 4.97v9.93m0 4.97v9.94m0 4.97v9.95m0 4.97v9.94m0 4.97v9.94m0 4.97v9.94m0 4.97v9.94m0 4.97v9.94m0 4.98v9.94m0 4.97v9.93m0 4.97v9.94m0 4.97v9.95m0 4.97v9.94m0 4.97v9.94m0 4.98v9.94m0 4.96v9.94m0 4.97v9.94m0 4.98v9.94m0 4.97v9.93m0 4.97v9.94m0 4.97v9.95m0 4.98v9.94m0 4.97v9.94m0 4.97v9.94m0 4.96v9.94m0 4.97v9.94m0 4.98v9.94m0 4.97v9.93m0 4.98v9.95m0 4.97v9.94m0 4.97v9.94m0 4.97v9.94m0 4.97V871m0 4.96v9.94m0 4.97v9.94m0 5v9.93m0 4.97v4.97" stroke="#3a414a" fill="none"/><path d="M1327.02-252.32h-1v-.5h1zM1327.02 926.17h-1v-.52h1z" stroke="#3a414a" stroke-width=".05" fill="#3a414a"/><path d="M557.98 934.67a8 8 0 0 1 8-8h206.76a8 8 0 0 1 8 8v84a8 8 0 0 1-8 8H566a8 8 0 0 1-8-8z" stroke="#3a414a" fill="#fff"/><use xlink:href="#a" transform="matrix(1,0,0,1,557.9747714173977,926.6666666666666) translate(15.679999999999987 55.025)"/><use xlink:href="#b" transform="matrix(1,0,0,1,557.9747714173977,926.6666666666666) translate(80.53 55.025)"/><use xlink:href="#c" transform="matrix(1,0,0,1,557.9747714173977,926.6666666666666) translate(127.48 55.025)"/><path d="M900.75-345.33a8 8 0 0 1 8-8h229.77a8 8 0 0 1 8 8v84a8 8 0 0 1-8 8H908.75a8 8 0 0 1-8-8z" stroke="#3a414a" fill="#fff"/><use xlink:href="#d" transform="matrix(1,0,0,1,900.7447714173977,-353.33333333333337) translate(15.679999999999987 55.025)"/><use xlink:href="#e" transform="matrix(1,0,0,1,900.7447714173977,-353.33333333333337) translate(78.63 55.025)"/><use xlink:href="#c" transform="matrix(1,0,0,1,900.7447714173977,-353.33333333333337) translate(150.48 55.025)"/><path d="M900.75 934.67a8 8 0 0 1 8-8h229.77a8 8 0 0 1 8 8v84a8 8 0 0 1-8 8H908.75a8 8 0 0 1-8-8z" stroke="#3a414a" fill="#fff"/><use xlink:href="#d" transform="matrix(1,0,0,1,900.7447714173977,926.6666666666666) translate(15.679999999999987 55.025)"/><use xlink:href="#e" transform="matrix(1,0,0,1,900.7447714173977,926.6666666666666) translate(78.63 55.025)"/><use xlink:href="#c" transform="matrix(1,0,0,1,900.7447714173977,926.6666666666666) translate(150.48 55.025)"/><path d="M1266.52-345.33a8 8 0 0 1 8-8h104a8 8 0 0 1 8 8v84a8 8 0 0 1-8 8h-104a8 8 0 0 1-8-8z" stroke="#3a414a" fill="#fff"/><use xlink:href="#f" transform="matrix(1,0,0,1,1266.5147714173977,-353.33333333333337) translate(22.555 55.025)"/><use xlink:href="#g" transform="matrix(1,0,0,1,1266.5147714173977,-353.33333333333337) translate(59.555 55.025)"/><path d="M1266.52 934.67a8 8 0 0 1 8-8h104a8 8 0 0 1 8 8v84a8 8 0 0 1-8 8h-104a8 8 0 0 1-8-8z" stroke="#3a414a" fill="#fff"/><use xlink:href="#f" transform="matrix(1,0,0,1,1266.5147714173977,926.6666666666666) translate(22.555 55.025)"/><use xlink:href="#g" transform="matrix(1,0,0,1,1266.5147714173977,926.6666666666666) translate(59.555 55.025)"/><path d="M1506.52-345.33a8 8 0 0 1 8-8h136.9a8 8 0 0 1 8 8v84a8 8 0 0 1-8 8h-136.9a8 8 0 0 1-8-8z" stroke="#3a414a" fill="#fff"/><use xlink:href="#h" transform="matrix(1,0,0,1,1506.5147714173977,-353.33333333333337) translate(15.604999999999992 55.025)"/><use xlink:href="#i" transform="matrix(1,0,0,1,1506.5147714173977,-353.33333333333337) translate(100.45500000000001 55.025)"/><path d="M1506.52 934.67a8 8 0 0 1 8-8h136.9a8 8 0 0 1 8 8v84a8 8 0 0 1-8 8h-136.9a8 8 0 0 1-8-8z" stroke="#3a414a" fill="#fff"/><use xlink:href="#h" transform="matrix(1,0,0,1,1506.5147714173977,926.6666666666666) translate(15.604999999999992 55.025)"/><use xlink:href="#i" transform="matrix(1,0,0,1,1506.5147714173977,926.6666666666666) translate(100.45500000000001 55.025)"/><path d="M1779.43-345.33a8 8 0 0 1 8-8h136.88a8 8 0 0 1 8 8v84a8 8 0 0 1-8 8h-136.87a8 8 0 0 1-8-8z" stroke="#3a414a" fill="#fff"/><use xlink:href="#j" transform="matrix(1,0,0,1,1779.4347714173978,-353.33333333333337) translate(15.62999999999999 55.025)"/><use xlink:href="#k" transform="matrix(1,0,0,1,1779.4347714173978,-353.33333333333337) translate(70.53 55.025)"/><path d="M1779.43 934.67a8 8 0 0 1 8-8h136.88a8 8 0 0 1 8 8v84a8 8 0 0 1-8 8h-136.87a8 8 0 0 1-8-8z" stroke="#3a414a" fill="#fff"/><use xlink:href="#j" transform="matrix(1,0,0,1,1779.4347714173978,926.6666666666666) translate(15.62999999999999 55.025)"/><use xlink:href="#k" transform="matrix(1,0,0,1,1779.4347714173978,926.6666666666666) translate(70.53 55.025)"/><path d="M669.86-192.88h337.4M669.87-192.88h-.5" stroke="#3a414a" fill="none"/><path d="M1022-192.88l-14.25 4.63v-9.27z" stroke="#3a414a" fill="#3a414a"/><use xlink:href="#l" transform="matrix(1,0,0,1,774.6590265929152,-214.15839312295634) translate(0 11.516111611161117)"/><use xlink:href="#m" transform="matrix(1,0,0,1,774.6590265929152,-214.15839312295634) translate(60.61953195319533 11.516111611161117)"/><use xlink:href="#n" transform="matrix(1,0,0,1,774.6590265929152,-214.15839312295634) translate(117.32038703870388 11.516111611161117)"/><path d="M983.63-165.33a8 8 0 0 1 8-8h35.95a8 8 0 0 1 8 8v5.33a17.07 17.07 0 0 1-5 12.07 17.07 17.07 0 0 1-12.07 5h-26.87a8 8 0 0 1-8-8z" fill="#fff"/><path d="M1035.58-173.33v20.4l-10 10h-41.95" stroke="#3a414a" fill="none"/><path d="M983.63-165.33a8 8 0 0 1 8-8h886.24a8 8 0 0 1 8 8v324a8 8 0 0 1-8 8H991.63a8 8 0 0 1-8-8z" stroke="#3a414a" fill="none"/><use xlink:href="#o" transform="matrix(1,0,0,1,991.6297714173978,-173.33333333333337) translate(0 19.1)"/><path d="M993.63-105.33a8 8 0 0 1 8-8h37a8 8 0 0 1 8 8v5.33a17.07 17.07 0 0 1-5 12.07 17.07 17.07 0 0 1-12.07 5h-27.93a8 8 0 0 1-8-8z" fill="#fff"/><path d="M1046.63-113.33v20.4l-10 10h-43" stroke="#3a414a" fill="none"/><path d="M993.63-105.33a8 8 0 0 1 8-8h603.34a8 8 0 0 1 8 8v144a8 8 0 0 1-8 8h-603.34a8 8 0 0 1-8-8z" stroke="#3a414a" fill="none"/><use xlink:href="#p" transform="matrix(1,0,0,1,1001.6297714173978,-113.33333333333337) translate(0 19.1)"/><path d="M1024.13-13.04h542.46M1024.14-13.04h-.5" stroke="#3a414a" fill="none"/><path d="M1581.36-13.04L1567.1-8.4v-9.27z" stroke="#3a414a" fill="#3a414a"/><use xlink:href="#q" transform="matrix(1,0,0,1,1185.6419991401701,-34.31092024160037) translate(0 11.516111611161117)"/><use xlink:href="#r" transform="matrix(1,0,0,1,1185.6419991401701,-34.31092024160037) translate(42.26572907290729 11.516111611161117)"/><path d="M1582.47 26.93H1040M1582.46 26.93h.5" stroke="#3a414a" fill="none"/><path d="M1025.25 26.93l14.26-4.64v9.27z" stroke="#3a414a" fill="#3a414a"/><path d="M1024.13 106.86h815.36M1024.14 106.86h-.5" stroke="#3a414a" fill="none"/><path d="M1854.25 106.86L1840 111.5v-9.27z" stroke="#3a414a" fill="#3a414a"/><use xlink:href="#s" transform="matrix(1,0,0,1,1373.4521566559217,85.5873950126369) translate(0 11.516111611161117)"/><path d="M1855.37 146.83H1040M1855.36 146.83h.5" stroke="#3a414a" fill="none"/><path d="M1025.25 146.83l14.26-4.64v9.26z" stroke="#3a414a" fill="#3a414a"/><path d="M1024.13 226.76h286M1024.14 226.76h-.5" stroke="#3a414a" fill="none"/><path d="M1324.9 226.76l-14.27 4.64v-9.28z" stroke="#3a414a" fill="#3a414a"/><use xlink:href="#t" transform="matrix(1,0,0,1,1044.2564410843643,205.4857102668742) translate(0 11.516111611161117)"/><use xlink:href="#u" transform="matrix(1,0,0,1,1044.2564410843643,205.4857102668742) translate(42.30571557155715 11.516111611161117)"/><use xlink:href="#v" transform="matrix(1,0,0,1,1044.2564410843643,205.4857102668742) translate(101.32578757875788 11.516111611161117)"/><use xlink:href="#w" transform="matrix(1,0,0,1,1044.2564410843643,205.4857102668742) translate(184.25778577857787 11.516111611161117)"/><use xlink:href="#x" transform="matrix(1,0,0,1,1044.2564410843643,205.4857102668742) translate(201.77187218721875 11.516111611161117)"/><use xlink:href="#y" transform="matrix(1,0,0,1,1044.2564410843643,205.4857102668742) translate(231.2819081908191 11.516111611161117)"/><path d="M1346.52 246.67h564.05l28 28v112h-592.05z" stroke="#3a414a" fill="#fff"/><path d="M1910.57 247.14v27.53h27.52" stroke="#3a414a" fill="#fff"/><use xlink:href="#z" transform="matrix(1,0,0,1,1351.5147714173977,251.66666666666663) translate(94.5 26.5875)"/><use xlink:href="#A" transform="matrix(1,0,0,1,1351.5147714173977,251.66666666666663) translate(130.45 26.5875)"/><use xlink:href="#B" transform="matrix(1,0,0,1,1351.5147714173977,251.66666666666663) translate(205.25 26.5875)"/><use xlink:href="#C" transform="matrix(1,0,0,1,1351.5147714173977,251.66666666666663) translate(299.05 26.5875)"/><use xlink:href="#D" transform="matrix(1,0,0,1,1351.5147714173977,251.66666666666663) translate(354.55 26.5875)"/><use xlink:href="#E" transform="matrix(1,0,0,1,1351.5147714173977,251.66666666666663) translate(379.55 26.5875)"/><use xlink:href="#F" transform="matrix(1,0,0,1,1351.5147714173977,251.66666666666663) translate(183.175 48.1875)"/><use xlink:href="#G" transform="matrix(1,0,0,1,1351.5147714173977,251.66666666666663) translate(203.175 48.1875)"/><use xlink:href="#H" transform="matrix(1,0,0,1,1351.5147714173977,251.66666666666663) translate(252.025 48.1875)"/><use xlink:href="#I" transform="matrix(1,0,0,1,1351.5147714173977,251.66666666666663) translate(272.025 48.1875)"/><use xlink:href="#J" transform="matrix(1,0,0,1,1351.5147714173977,251.66666666666663) translate(302.025 48.1875)"/><use xlink:href="#K" transform="matrix(1,0,0,1,1351.5147714173977,251.66666666666663) translate(359.875 48.1875)"/><use xlink:href="#L" transform="matrix(1,0,0,1,1351.5147714173977,251.66666666666663) translate(191.675 69.78750000000001)"/><use xlink:href="#M" transform="matrix(1,0,0,1,1351.5147714173977,251.66666666666663) translate(211.675 69.78750000000001)"/><use xlink:href="#N" transform="matrix(1,0,0,1,1351.5147714173977,251.66666666666663) translate(294.525 69.78750000000001)"/><use xlink:href="#O" transform="matrix(1,0,0,1,1351.5147714173977,251.66666666666663) translate(348.375 69.78750000000001)"/><use xlink:href="#P" transform="matrix(1,0,0,1,1351.5147714173977,251.66666666666663) translate(362.325 69.78750000000001)"/><use xlink:href="#Q" transform="matrix(1,0,0,1,1351.5147714173977,251.66666666666663) translate(224.575 91.38750000000002)"/><use xlink:href="#R" transform="matrix(1,0,0,1,1351.5147714173977,251.66666666666663) translate(244.575 91.38750000000002)"/><use xlink:href="#S" transform="matrix(1,0,0,1,1351.5147714173977,251.66666666666663) translate(295.525 91.38750000000002)"/><use xlink:href="#T" transform="matrix(1,0,0,1,1351.5147714173977,251.66666666666663) translate(15.475000000000023 112.98750000000001)"/><use xlink:href="#U" transform="matrix(1,0,0,1,1351.5147714173977,251.66666666666663) translate(35.47500000000002 112.98750000000001)"/><use xlink:href="#V" transform="matrix(1,0,0,1,1351.5147714173977,251.66666666666663) translate(95.42500000000003 112.98750000000001)"/><use xlink:href="#W" transform="matrix(1,0,0,1,1351.5147714173977,251.66666666666663) translate(170.32500000000005 112.98750000000001)"/><use xlink:href="#B" transform="matrix(1,0,0,1,1351.5147714173977,251.66666666666663) translate(202.22500000000005 112.98750000000001)"/><use xlink:href="#X" transform="matrix(1,0,0,1,1351.5147714173977,251.66666666666663) translate(296.02500000000003 112.98750000000001)"/><use xlink:href="#Y" transform="matrix(1,0,0,1,1351.5147714173977,251.66666666666663) translate(376.82500000000005 112.98750000000001)"/><use xlink:href="#I" transform="matrix(1,0,0,1,1351.5147714173977,251.66666666666663) translate(417.725 112.98750000000001)"/><use xlink:href="#R" transform="matrix(1,0,0,1,1351.5147714173977,251.66666666666663) translate(447.725 112.98750000000001)"/><use xlink:href="#Z" transform="matrix(1,0,0,1,1351.5147714173977,251.66666666666663) translate(498.675 112.98750000000001)"/><path d="M1040 446.57h270.13" stroke="#3a414a" fill="none"/><path d="M1025.25 446.57l14.26-4.63v9.27zM1324.9 446.57l-14.27 4.64v-9.26z" stroke="#3a414a" fill="#3a414a"/><g><use xlink:href="#aa" transform="matrix(1,0,0,1,1118.8312610663625,425.29928823297575) translate(0 11.516111611161117)"/><use xlink:href="#ab" transform="matrix(1,0,0,1,1118.8312610663625,425.29928823297575) translate(82.13226822682269 11.516111611161117)"/></g><path d="M1346.52 466.67h460.2l12 12v48h-472.2z" stroke="#3a414a" fill="#fff"/><path d="M1806.7 467.14v11.53h11.54" stroke="#3a414a" fill="#fff"/><g><use xlink:href="#z" transform="matrix(1,0,0,1,1351.5147714173977,471.66666666666663) translate(15.400000000000006 30.025)"/><use xlink:href="#ac" transform="matrix(1,0,0,1,1351.5147714173977,471.66666666666663) translate(51.35000000000001 30.025)"/><use xlink:href="#C" transform="matrix(1,0,0,1,1351.5147714173977,471.66666666666663) translate(91.30000000000001 30.025)"/><use xlink:href="#D" transform="matrix(1,0,0,1,1351.5147714173977,471.66666666666663) translate(146.8 30.025)"/><use xlink:href="#ad" transform="matrix(1,0,0,1,1351.5147714173977,471.66666666666663) translate(171.8 30.025)"/><use xlink:href="#ae" transform="matrix(1,0,0,1,1351.5147714173977,471.66666666666663) translate(284.75 30.025)"/><use xlink:href="#af" transform="matrix(1,0,0,1,1351.5147714173977,471.66666666666663) translate(332.70000000000005 30.025)"/><use xlink:href="#ag" transform="matrix(1,0,0,1,1351.5147714173977,471.66666666666663) translate(384.6 30.025)"/></g><path d="M1326.02 586.46h-286M1326 586.46h.52" stroke="#3a414a" fill="none"/><path d="M1025.25 586.46l14.26-4.64v9.27z" stroke="#3a414a" fill="#3a414a"/><g><use xlink:href="#ah" transform="matrix(1,0,0,1,1146.3819586361194,565.180656029586) translate(0 11.516111611161117)"/></g><path d="M1024.13 646.4h815.36M1024.14 646.4h-.5" stroke="#3a414a" fill="none"/><path d="M1854.25 646.4l-14.26 4.64v-9.27z" stroke="#3a414a" fill="#3a414a"/><g><use xlink:href="#ai" transform="matrix(1,0,0,1,1407.7805657468307,625.1298136567046) translate(0 11.516111611161117)"/><use xlink:href="#aj" transform="matrix(1,0,0,1,1407.7805657468307,625.1298136567046) translate(39.946512151215124 11.516111611161117)"/></g><path d="M993.63 674.67a8 8 0 0 1 8-8h48a8 8 0 0 1 8 8V680a17.07 17.07 0 0 1-5 12.07 17.07 17.07 0 0 1-12.07 5h-38.93a8 8 0 0 1-8-8z" fill="#fff"/><path d="M1057.63 666.67v20.4l-10 10h-54" stroke="#3a414a" fill="none"/><path d="M993.63 674.67a8 8 0 0 1 8-8h876.24a8 8 0 0 1 8 8v144a8 8 0 0 1-8 8h-876.24a8 8 0 0 1-8-8z" stroke="#3a414a" fill="none"/><g><use xlink:href="#ak" transform="matrix(1,0,0,1,1001.6297714173978,666.6666666666666) translate(0 19.1)"/></g><path d="M1024.13 766.3h815.36M1024.14 766.3h-.5" stroke="#3a414a" fill="none"/><path d="M1854.25 766.3l-14.26 4.64v-9.27z" stroke="#3a414a" fill="#3a414a"/><g><use xlink:href="#al" transform="matrix(1,0,0,1,1352.7791368539413,745.028128910942) translate(0 11.516111611161117)"/><use xlink:href="#am" transform="matrix(1,0,0,1,1352.7791368539413,745.028128910942) translate(30.34975247524753 11.516111611161117)"/><use xlink:href="#an" transform="matrix(1,0,0,1,1352.7791368539413,745.028128910942) translate(53.4619486948695 11.516111611161117)"/><use xlink:href="#ao" transform="matrix(1,0,0,1,1352.7791368539413,745.028128910942) translate(96.56739423942395 11.516111611161117)"/><use xlink:href="#ap" transform="matrix(1,0,0,1,1352.7791368539413,745.028128910942) translate(135.6741899189919 11.516111611161117)"/></g><path d="M1855.37 806.27H1040M1855.36 806.27h.5" stroke="#3a414a" fill="none"/><path d="M1025.25 806.27l14.26-4.64v9.27z" stroke="#3a414a" fill="#3a414a"/><path d="M1023.13 886.2h-337.4M1023.12 886.2h.5" stroke="#3a414a" fill="none"/><path d="M670.98 886.2l14.26-4.63v9.27z" stroke="#3a414a" fill="#3a414a"/><g><use xlink:href="#aq" transform="matrix(1,0,0,1,794.2324176820242,864.9264441651792) translate(0 11.516111611161117)"/><use xlink:href="#ar" transform="matrix(1,0,0,1,794.2324176820242,864.9264441651792) translate(60.659518451845194 11.516111611161117)"/></g><defs><path fill="#3a414a" d="M233-177c-1 41-23 64-60 70L243 0h-38l-65-103H63V0H30v-248c88 3 205-21 203 71zM63-129c60-2 137 13 137-47 0-61-80-42-137-45v92" id="as"/><path fill="#3a414a" d="M100-194c63 0 86 42 84 106H49c0 40 14 67 53 68 26 1 43-12 49-29l28 8c-11 28-37 45-77 45C44 4 14-33 15-96c1-61 26-98 85-98zm52 81c6-60-76-77-97-28-3 7-6 17-6 28h103" id="at"/><path fill="#3a414a" d="M24 0v-261h32V0H24" id="au"/><path fill="#3a414a" d="M179-190L93 31C79 59 56 82 12 73V49c39 6 53-20 64-50L1-190h34L92-34l54-156h33" id="av"/><path fill="#3a414a" d="M24-231v-30h32v30H24zM24 0v-190h32V0H24" id="aw"/><path fill="#3a414a" d="M117-194c89-4 53 116 60 194h-32v-121c0-31-8-49-39-48C34-167 62-67 57 0H25l-1-190h30c1 10-1 24 2 32 11-22 29-35 61-36" id="ax"/><path fill="#3a414a" d="M177-190C167-65 218 103 67 71c-23-6-38-20-44-43l32-5c15 47 100 32 89-28v-30C133-14 115 1 83 1 29 1 15-40 15-95c0-56 16-97 71-98 29-1 48 16 59 35 1-10 0-23 2-32h30zM94-22c36 0 50-32 50-73 0-42-14-75-50-75-39 0-46 34-46 75s6 73 46 73" id="ay"/><g id="a"><use transform="matrix(0.05,0,0,0.05,0,0)" xlink:href="#as"/><use transform="matrix(0.05,0,0,0.05,12.950000000000001,0)" xlink:href="#at"/><use transform="matrix(0.05,0,0,0.05,22.950000000000003,0)" xlink:href="#au"/><use transform="matrix(0.05,0,0,0.05,26.900000000000002,0)" xlink:href="#av"/><use transform="matrix(0.05,0,0,0.05,35.900000000000006,0)" xlink:href="#aw"/><use transform="matrix(0.05,0,0,0.05,39.85000000000001,0)" xlink:href="#ax"/><use transform="matrix(0.05,0,0,0.05,49.85000000000001,0)" xlink:href="#ay"/></g><path fill="#3a414a" d="M30-248c87 1 191-15 191 75 0 78-77 80-158 76V0H30v-248zm33 125c57 0 124 11 124-50 0-59-68-47-124-48v98" id="az"/><path fill="#3a414a" d="M141-36C126-15 110 5 73 4 37 3 15-17 15-53c-1-64 63-63 125-63 3-35-9-54-41-54-24 1-41 7-42 31l-33-3c5-37 33-52 76-52 45 0 72 20 72 64v82c-1 20 7 32 28 27v20c-31 9-61-2-59-35zM48-53c0 20 12 33 32 33 41-3 63-29 60-74-43 2-92-5-92 41" id="aA"/><path fill="#3a414a" d="M114-163C36-179 61-72 57 0H25l-1-190h30c1 12-1 29 2 39 6-27 23-49 58-41v29" id="aB"/><path fill="#3a414a" d="M59-47c-2 24 18 29 38 22v24C64 9 27 4 27-40v-127H5v-23h24l9-43h21v43h35v23H59v120" id="aC"/><g id="b"><use transform="matrix(0.05,0,0,0.05,0,0)" xlink:href="#az"/><use transform="matrix(0.05,0,0,0.05,12,0)" xlink:href="#aA"/><use transform="matrix(0.05,0,0,0.05,22,0)" xlink:href="#aB"/><use transform="matrix(0.05,0,0,0.05,27.950000000000003,0)" xlink:href="#aC"/><use transform="matrix(0.05,0,0,0.05,32.95,0)" xlink:href="#av"/></g><path fill="#3a414a" d="M63-220v92h138v28H63V0H30v-248h175v28H63" id="aD"/><path fill="#3a414a" d="M100-194c62-1 85 37 85 99 1 63-27 99-86 99S16-35 15-95c0-66 28-99 85-99zM99-20c44 1 53-31 53-75 0-43-8-75-51-75s-53 32-53 75 10 74 51 75" id="aE"/><path fill="#3a414a" d="M16-82v-28h88v28H16" id="aF"/><path fill="#3a414a" d="M30 0v-248h187v28H63v79h144v27H63v87h162V0H30" id="aG"/><path fill="#3a414a" d="M85-194c31 0 48 13 60 33l-1-100h32l1 261h-30c-2-10 0-23-3-31C134-8 116 4 85 4 32 4 16-35 15-94c0-66 23-100 70-100zm9 24c-40 0-46 34-46 75 0 40 6 74 45 74 42 0 51-32 51-76 0-42-9-74-50-73" id="aH"/><g id="c"><use transform="matrix(0.05,0,0,0.05,0,0)" xlink:href="#aD"/><use transform="matrix(0.05,0,0,0.05,10.950000000000001,0)" xlink:href="#aB"/><use transform="matrix(0.05,0,0,0.05,16.900000000000002,0)" xlink:href="#aE"/><use transform="matrix(0.05,0,0,0.05,26.900000000000002,0)" xlink:href="#ax"/><use transform="matrix(0.05,0,0,0.05,36.900000000000006,0)" xlink:href="#aC"/><use transform="matrix(0.05,0,0,0.05,41.900000000000006,0)" xlink:href="#aF"/><use transform="matrix(0.05,0,0,0.05,47.85000000000001,0)" xlink:href="#aG"/><use transform="matrix(0.05,0,0,0.05,59.85,0)" xlink:href="#ax"/><use transform="matrix(0.05,0,0,0.05,69.85000000000001,0)" xlink:href="#aH"/></g><path fill="#3a414a" d="M33 0v-248h34V0H33" id="aI"/><g id="d"><use transform="matrix(0.05,0,0,0.05,0,0)" xlink:href="#aI"/><use transform="matrix(0.05,0,0,0.05,5,0)" xlink:href="#aH"/><use transform="matrix(0.05,0,0,0.05,15,0)" xlink:href="#at"/><use transform="matrix(0.05,0,0,0.05,25,0)" xlink:href="#ax"/><use transform="matrix(0.05,0,0,0.05,35,0)" xlink:href="#aC"/><use transform="matrix(0.05,0,0,0.05,40,0)" xlink:href="#aw"/><use transform="matrix(0.05,0,0,0.05,43.95,0)" xlink:href="#aC"/><use transform="matrix(0.05,0,0,0.05,48.95,0)" xlink:href="#av"/></g><path fill="#3a414a" d="M108 0H70L1-190h34L89-25l56-165h34" id="aJ"/><g id="e"><use transform="matrix(0.05,0,0,0.05,0,0)" xlink:href="#az"/><use transform="matrix(0.05,0,0,0.05,12,0)" xlink:href="#aB"/><use transform="matrix(0.05,0,0,0.05,17.95,0)" xlink:href="#aE"/><use transform="matrix(0.05,0,0,0.05,27.950000000000003,0)" xlink:href="#aJ"/><use transform="matrix(0.05,0,0,0.05,36.95,0)" xlink:href="#aw"/><use transform="matrix(0.05,0,0,0.05,40.900000000000006,0)" xlink:href="#aH"/><use transform="matrix(0.05,0,0,0.05,50.900000000000006,0)" xlink:href="#at"/><use transform="matrix(0.05,0,0,0.05,60.900000000000006,0)" xlink:href="#aB"/></g><g id="f"><use transform="matrix(0.05,0,0,0.05,0,0)" xlink:href="#aG"/><use transform="matrix(0.05,0,0,0.05,12,0)" xlink:href="#ax"/><use transform="matrix(0.05,0,0,0.05,22,0)" xlink:href="#aH"/></g><path fill="#3a414a" d="M232-93c-1 65-40 97-104 97C67 4 28-28 28-90v-158h33c8 89-33 224 67 224 102 0 64-133 71-224h33v155" id="aK"/><path fill="#3a414a" d="M135-143c-3-34-86-38-87 0 15 53 115 12 119 90S17 21 10-45l28-5c4 36 97 45 98 0-10-56-113-15-118-90-4-57 82-63 122-42 12 7 21 19 24 35" id="aL"/><g id="g"><use transform="matrix(0.05,0,0,0.05,0,0)" xlink:href="#aK"/><use transform="matrix(0.05,0,0,0.05,12.950000000000001,0)" xlink:href="#aL"/><use transform="matrix(0.05,0,0,0.05,21.950000000000003,0)" xlink:href="#at"/><use transform="matrix(0.05,0,0,0.05,31.950000000000003,0)" xlink:href="#aB"/></g><g id="h"><use transform="matrix(0.05,0,0,0.05,0,0)" xlink:href="#aD"/><use transform="matrix(0.05,0,0,0.05,10.950000000000001,0)" xlink:href="#aB"/><use transform="matrix(0.05,0,0,0.05,16.900000000000002,0)" xlink:href="#aE"/><use transform="matrix(0.05,0,0,0.05,26.900000000000002,0)" xlink:href="#ax"/><use transform="matrix(0.05,0,0,0.05,36.900000000000006,0)" xlink:href="#aC"/><use transform="matrix(0.05,0,0,0.05,41.900000000000006,0)" xlink:href="#aF"/><use transform="matrix(0.05,0,0,0.05,47.85000000000001,0)" xlink:href="#aG"/><use transform="matrix(0.05,0,0,0.05,59.85,0)" xlink:href="#ax"/><use transform="matrix(0.05,0,0,0.05,69.85000000000001,0)" xlink:href="#aH"/></g><path fill="#3a414a" d="M197 0v-115H63V0H30v-248h33v105h134v-105h34V0h-34" id="aM"/><g id="i"><use transform="matrix(0.05,0,0,0.05,0,0)" xlink:href="#aM"/><use transform="matrix(0.05,0,0,0.05,12.950000000000001,0)" xlink:href="#aE"/><use transform="matrix(0.05,0,0,0.05,22.950000000000003,0)" xlink:href="#aL"/><use transform="matrix(0.05,0,0,0.05,31.950000000000003,0)" xlink:href="#aC"/></g><path fill="#3a414a" d="M127-220V0H93v-220H8v-28h204v28h-85" id="aN"/><g id="j"><use transform="matrix(0.05,0,0,0.05,0,0)" xlink:href="#aN"/><use transform="matrix(0.05,0,0,0.05,8.950000000000001,0)" xlink:href="#aA"/><use transform="matrix(0.05,0,0,0.05,18.950000000000003,0)" xlink:href="#aB"/><use transform="matrix(0.05,0,0,0.05,24.900000000000002,0)" xlink:href="#ay"/><use transform="matrix(0.05,0,0,0.05,34.900000000000006,0)" xlink:href="#at"/><use transform="matrix(0.05,0,0,0.05,44.900000000000006,0)" xlink:href="#aC"/></g><path fill="#3a414a" d="M212-179c-10-28-35-45-73-45-59 0-87 40-87 99 0 60 29 101 89 101 43 0 62-24 78-52l27 14C228-24 195 4 139 4 59 4 22-46 18-125c-6-104 99-153 187-111 19 9 31 26 39 46" id="aO"/><g id="k"><use transform="matrix(0.05,0,0,0.05,0,0)" xlink:href="#aO"/><use transform="matrix(0.05,0,0,0.05,12.950000000000001,0)" xlink:href="#aA"/><use transform="matrix(0.05,0,0,0.05,22.950000000000003,0)" xlink:href="#ax"/><use transform="matrix(0.05,0,0,0.05,32.95,0)" xlink:href="#aw"/><use transform="matrix(0.05,0,0,0.05,36.900000000000006,0)" xlink:href="#aL"/><use transform="matrix(0.05,0,0,0.05,45.900000000000006,0)" xlink:href="#aC"/><use transform="matrix(0.05,0,0,0.05,50.900000000000006,0)" xlink:href="#at"/><use transform="matrix(0.05,0,0,0.05,60.900000000000006,0)" xlink:href="#aB"/></g><path fill="#3a414a" d="M240-174c0 40-23 61-54 70L253 0h-59l-57-94H76V0H24v-248c93 4 217-23 216 74zM76-134c48-2 112 12 112-38 0-48-66-32-112-35v73" id="aP"/><path fill="#3a414a" d="M185-48c-13 30-37 53-82 52C43 2 14-33 14-96s30-98 90-98c62 0 83 45 84 108H66c0 31 8 55 39 56 18 0 30-7 34-22zm-45-69c5-46-57-63-70-21-2 6-4 13-4 21h74" id="aQ"/><path fill="#3a414a" d="M84 4C32 4 15-41 15-95c0-55 18-99 73-99 29 0 47 12 58 34l2-30h48l-1 265h-49V-32C136-9 114 4 84 4zm21-34c32 0 41-29 41-66 0-36-9-64-40-64-33 0-39 30-40 65 0 43 13 65 39 65" id="aR"/><path fill="#3a414a" d="M85 4C-2 5 27-109 22-190h50c7 57-23 150 33 157 60-5 35-97 40-157h50l1 190h-47c-2-12 1-28-3-38-12 25-28 42-61 42" id="aS"/><path fill="#3a414a" d="M137-138c1-29-70-34-71-4 15 46 118 7 119 86 1 83-164 76-172 9l43-7c4 19 20 25 44 25 33 8 57-30 24-41C81-84 22-81 20-136c-2-80 154-74 161-7" id="aT"/><path fill="#3a414a" d="M115-3C79 11 28 4 28-45v-112H4v-33h27l15-45h31v45h36v33H77v99c-1 23 16 31 38 25v30" id="aU"/><g id="l"><use transform="matrix(0.03998649864986499,0,0,0.03998649864986499,0,0)" xlink:href="#aP"/><use transform="matrix(0.03998649864986499,0,0,0.03998649864986499,10.356503150315033,0)" xlink:href="#aQ"/><use transform="matrix(0.03998649864986499,0,0,0.03998649864986499,18.353802880288033,0)" xlink:href="#aR"/><use transform="matrix(0.03998649864986499,0,0,0.03998649864986499,27.110846084608465,0)" xlink:href="#aS"/><use transform="matrix(0.03998649864986499,0,0,0.03998649864986499,35.86788928892889,0)" xlink:href="#aQ"/><use transform="matrix(0.03998649864986499,0,0,0.03998649864986499,43.865189018901894,0)" xlink:href="#aT"/><use transform="matrix(0.03998649864986499,0,0,0.03998649864986499,51.862488748874895,0)" xlink:href="#aU"/></g><path fill="#3a414a" d="M24-248c93 1 206-16 204 79-1 75-69 88-152 82V0H24v-248zm52 121c47 0 100 7 100-41 0-47-54-39-100-39v80" id="aV"/><path fill="#3a414a" d="M135-150c-39-12-60 13-60 57V0H25l-1-190h47c2 13-1 29 3 40 6-28 27-53 61-41v41" id="aW"/><path fill="#3a414a" d="M110-194c64 0 96 36 96 99 0 64-35 99-97 99-61 0-95-36-95-99 0-62 34-99 96-99zm-1 164c35 0 45-28 45-65 0-40-10-65-43-65-34 0-45 26-45 65 0 36 10 65 43 65" id="aX"/><path fill="#3a414a" d="M144 0l-44-69L55 0H2l70-98-66-92h53l41 62 40-62h54l-67 91 71 99h-54" id="aY"/><path fill="#3a414a" d="M25-224v-37h50v37H25zM25 0v-190h50V0H25" id="aZ"/><path fill="#3a414a" d="M88-194c31-1 46 15 58 34l-1-101h50l1 261h-48c-2-10 0-23-3-31C134-8 116 4 84 4 32 4 16-41 15-95c0-56 19-97 73-99zm17 164c33 0 40-30 41-66 1-37-9-64-41-64s-38 30-39 65c0 43 13 65 39 65" id="ba"/><g id="m"><use transform="matrix(0.03998649864986499,0,0,0.03998649864986499,0,0)" xlink:href="#aV"/><use transform="matrix(0.03998649864986499,0,0,0.03998649864986499,9.596759675967597,0)" xlink:href="#aW"/><use transform="matrix(0.03998649864986499,0,0,0.03998649864986499,15.194869486948697,0)" xlink:href="#aX"/><use transform="matrix(0.03998649864986499,0,0,0.03998649864986499,23.95191269126913,0)" xlink:href="#aY"/><use transform="matrix(0.03998649864986499,0,0,0.03998649864986499,31.949212421242127,0)" xlink:href="#aZ"/><use transform="matrix(0.03998649864986499,0,0,0.03998649864986499,35.94786228622863,0)" xlink:href="#aQ"/><use transform="matrix(0.03998649864986499,0,0,0.03998649864986499,43.94516201620162,0)" xlink:href="#ba"/></g><path fill="#3a414a" d="M67-125c0 53 21 87 73 88 37 1 54-22 65-47l45 17C233-25 199 4 140 4 58 4 20-42 15-125 8-235 124-281 211-232c18 10 29 29 36 50l-46 12c-8-25-30-41-62-41-52 0-71 34-72 86" id="bb"/><path fill="#3a414a" d="M133-34C117-15 103 5 69 4 32 3 11-16 11-54c-1-60 55-63 116-61 1-26-3-47-28-47-18 1-26 9-28 27l-52-2c7-38 36-58 82-57s74 22 75 68l1 82c-1 14 12 18 25 15v27c-30 8-71 5-69-32zm-48 3c29 0 43-24 42-57-32 0-66-3-65 30 0 17 8 27 23 27" id="bc"/><path fill="#3a414a" d="M25 0v-261h50V0H25" id="bd"/><g id="n"><use transform="matrix(0.03998649864986499,0,0,0.03998649864986499,0,0)" xlink:href="#bb"/><use transform="matrix(0.03998649864986499,0,0,0.03998649864986499,10.356503150315033,0)" xlink:href="#bc"/><use transform="matrix(0.03998649864986499,0,0,0.03998649864986499,18.353802880288033,0)" xlink:href="#bd"/><use transform="matrix(0.03998649864986499,0,0,0.03998649864986499,22.352452745274533,0)" xlink:href="#bd"/></g><g id="o"><use transform="matrix(0.05,0,0,0.05,0,0)" xlink:href="#az"/><use transform="matrix(0.05,0,0,0.05,12,0)" xlink:href="#aA"/><use transform="matrix(0.05,0,0,0.05,22,0)" xlink:href="#aB"/></g><path fill="#3a414a" d="M140-251c81 0 123 46 123 126C263-46 219 4 140 4 59 4 17-45 17-125s42-126 123-126zm0 227c63 0 89-41 89-101s-29-99-89-99c-61 0-89 39-89 99S79-25 140-24" id="be"/><path fill="#3a414a" d="M115-194c55 1 70 41 70 98S169 2 115 4C84 4 66-9 55-30l1 105H24l-1-265h31l2 30c10-21 28-34 59-34zm-8 174c40 0 45-34 45-75s-6-73-45-74c-42 0-51 32-51 76 0 43 10 73 51 73" id="bf"/><g id="p"><use transform="matrix(0.05,0,0,0.05,0,0)" xlink:href="#be"/><use transform="matrix(0.05,0,0,0.05,14,0)" xlink:href="#bf"/><use transform="matrix(0.05,0,0,0.05,24,0)" xlink:href="#aC"/></g><path fill="#3a414a" d="M76-208v77h127v40H76V0H24v-248h183v40H76" id="bg"/><path fill="#3a414a" d="M190-63c-7 42-38 67-86 67-59 0-84-38-90-98-12-110 154-137 174-36l-49 2c-2-19-15-32-35-32-30 0-35 28-38 64-6 74 65 87 74 30" id="bh"/><path fill="#3a414a" d="M114-157C55-157 80-60 75 0H25v-261h50l-1 109c12-26 28-41 61-42 86-1 58 113 63 194h-50c-7-57 23-157-34-157" id="bi"/><g id="q"><use transform="matrix(0.03998649864986499,0,0,0.03998649864986499,0,0)" xlink:href="#bg"/><use transform="matrix(0.03998649864986499,0,0,0.03998649864986499,8.757043204320432,0)" xlink:href="#aQ"/><use transform="matrix(0.03998649864986499,0,0,0.03998649864986499,16.75434293429343,0)" xlink:href="#aU"/><use transform="matrix(0.03998649864986499,0,0,0.03998649864986499,21.512736273627365,0)" xlink:href="#bh"/><use transform="matrix(0.03998649864986499,0,0,0.03998649864986499,29.510036003600362,0)" xlink:href="#bi"/></g><path fill="#3a414a" d="M4 7l51-268h42L46 7H4" id="bj"/><path fill="#3a414a" d="M24 0v-54h51V0H24" id="bk"/><path fill="#3a414a" d="M231 0h-52l-39-155L100 0H48L-1-190h46L77-45c9-52 24-97 36-145h53l37 145 32-145h46" id="bl"/><path fill="#3a414a" d="M14-72v-43h91v43H14" id="bm"/><path fill="#3a414a" d="M147 0L96-86 75-71V0H25v-261h50v150l67-79h53l-66 74L201 0h-54" id="bn"/><path fill="#3a414a" d="M135-194c87-1 58 113 63 194h-50c-7-57 23-157-34-157-59 0-34 97-39 157H25l-1-190h47c2 12-1 28 3 38 12-26 28-41 61-42" id="bo"/><path fill="#3a414a" d="M135-194c53 0 70 44 70 98 0 56-19 98-73 100-31 1-45-17-59-34 3 33 2 69 2 105H25l-1-265h48c2 10 0 23 3 31 11-24 29-35 60-35zM114-30c33 0 39-31 40-66 0-38-9-64-40-64-56 0-55 130 0 130" id="bp"/><path fill="#3a414a" d="M123 10C108 53 80 86 19 72V37c35 8 53-11 59-39L3-190h52l48 148c12-52 28-100 44-148h51" id="bq"/><path fill="#3a414a" d="M121-226c-27-7-43 5-38 36h38v33H83V0H34v-157H6v-33h28c-9-59 32-81 87-68v32" id="br"/><path fill="#3a414a" d="M195-6C206 82 75 100 31 46c-4-6-6-13-8-21l49-6c3 16 16 24 34 25 40 0 42-37 40-79-11 22-30 35-61 35-53 0-70-43-70-97 0-56 18-96 73-97 30 0 46 14 59 34l2-30h47zm-90-29c32 0 41-27 41-63 0-35-9-62-40-62-32 0-39 29-40 63 0 36 9 62 39 62" id="bs"/><g id="r"><use transform="matrix(0.03998649864986499,0,0,0.03998649864986499,0,0)" xlink:href="#bj"/><use transform="matrix(0.03998649864986499,0,0,0.03998649864986499,3.998649864986499,0)" xlink:href="#bk"/><use transform="matrix(0.03998649864986499,0,0,0.03998649864986499,7.997299729972998,0)" xlink:href="#bl"/><use transform="matrix(0.03998649864986499,0,0,0.03998649864986499,19.193519351935194,0)" xlink:href="#aQ"/><use transform="matrix(0.03998649864986499,0,0,0.03998649864986499,27.190819081908195,0)" xlink:href="#bd"/><use transform="matrix(0.03998649864986499,0,0,0.03998649864986499,31.189468946894692,0)" xlink:href="#bd"/><use transform="matrix(0.03998649864986499,0,0,0.03998649864986499,35.18811881188119,0)" xlink:href="#bm"/><use transform="matrix(0.03998649864986499,0,0,0.03998649864986499,39.946512151215124,0)" xlink:href="#bn"/><use transform="matrix(0.03998649864986499,0,0,0.03998649864986499,47.943811881188125,0)" xlink:href="#bo"/><use transform="matrix(0.03998649864986499,0,0,0.03998649864986499,56.70085508550856,0)" xlink:href="#aX"/><use transform="matrix(0.03998649864986499,0,0,0.03998649864986499,65.45789828982899,0)" xlink:href="#bl"/><use transform="matrix(0.03998649864986499,0,0,0.03998649864986499,76.65411791179119,0)" xlink:href="#bo"/><use transform="matrix(0.03998649864986499,0,0,0.03998649864986499,85.41116111611161,0)" xlink:href="#bj"/><use transform="matrix(0.03998649864986499,0,0,0.03998649864986499,89.40981098109813,0)" xlink:href="#aZ"/><use transform="matrix(0.03998649864986499,0,0,0.03998649864986499,93.40846084608464,0)" xlink:href="#bh"/><use transform="matrix(0.03998649864986499,0,0,0.03998649864986499,101.40576057605763,0)" xlink:href="#bm"/><use transform="matrix(0.03998649864986499,0,0,0.03998649864986499,106.16415391539157,0)" xlink:href="#bp"/><use transform="matrix(0.03998649864986499,0,0,0.03998649864986499,114.92119711971198,0)" xlink:href="#aW"/><use transform="matrix(0.03998649864986499,0,0,0.03998649864986499,120.5193069306931,0)" xlink:href="#aX"/><use transform="matrix(0.03998649864986499,0,0,0.03998649864986499,129.27635013501353,0)" xlink:href="#aY"/><use transform="matrix(0.03998649864986499,0,0,0.03998649864986499,137.27364986498654,0)" xlink:href="#bq"/><use transform="matrix(0.03998649864986499,0,0,0.03998649864986499,145.27094959495955,0)" xlink:href="#bm"/><use transform="matrix(0.03998649864986499,0,0,0.03998649864986499,150.02934293429348,0)" xlink:href="#bh"/><use transform="matrix(0.03998649864986499,0,0,0.03998649864986499,158.0266426642665,0)" xlink:href="#aX"/><use transform="matrix(0.03998649864986499,0,0,0.03998649864986499,166.7836858685869,0)" xlink:href="#bo"/><use transform="matrix(0.03998649864986499,0,0,0.03998649864986499,175.54072907290737,0)" xlink:href="#br"/><use transform="matrix(0.03998649864986499,0,0,0.03998649864986499,180.2991224122413,0)" xlink:href="#aZ"/><use transform="matrix(0.03998649864986499,0,0,0.03998649864986499,184.2977722772278,0)" xlink:href="#bs"/></g><path fill="#3a414a" d="M128 0H69L1-190h53L99-40l48-150h52" id="bt"/><path fill="#3a414a" d="M-4 44V30h207v14H-4" id="bu"/><g id="s"><use transform="matrix(0.03998649864986499,0,0,0.03998649864986499,0,0)" xlink:href="#bt"/><use transform="matrix(0.03998649864986499,0,0,0.03998649864986499,7.997299729972998,0)" xlink:href="#bc"/><use transform="matrix(0.03998649864986499,0,0,0.03998649864986499,15.994599459945997,0)" xlink:href="#bd"/><use transform="matrix(0.03998649864986499,0,0,0.03998649864986499,19.993249324932496,0)" xlink:href="#aZ"/><use transform="matrix(0.03998649864986499,0,0,0.03998649864986499,23.991899189918993,0)" xlink:href="#ba"/><use transform="matrix(0.03998649864986499,0,0,0.03998649864986499,32.74894239423943,0)" xlink:href="#bc"/><use transform="matrix(0.03998649864986499,0,0,0.03998649864986499,40.74624212421243,0)" xlink:href="#aU"/><use transform="matrix(0.03998649864986499,0,0,0.03998649864986499,45.50463546354637,0)" xlink:href="#aQ"/><use transform="matrix(0.03998649864986499,0,0,0.03998649864986499,53.501935193519365,0)" xlink:href="#bu"/><use transform="matrix(0.03998649864986499,0,0,0.03998649864986499,61.49923492349237,0)" xlink:href="#bp"/><use transform="matrix(0.03998649864986499,0,0,0.03998649864986499,70.2562781278128,0)" xlink:href="#aW"/><use transform="matrix(0.03998649864986499,0,0,0.03998649864986499,75.8543879387939,0)" xlink:href="#aX"/><use transform="matrix(0.03998649864986499,0,0,0.03998649864986499,84.61143114311434,0)" xlink:href="#aY"/><use transform="matrix(0.03998649864986499,0,0,0.03998649864986499,92.60873087308734,0)" xlink:href="#bq"/><use transform="matrix(0.03998649864986499,0,0,0.03998649864986499,100.60603060306033,0)" xlink:href="#bu"/><use transform="matrix(0.03998649864986499,0,0,0.03998649864986499,108.60333033303333,0)" xlink:href="#bh"/><use transform="matrix(0.03998649864986499,0,0,0.03998649864986499,116.6006300630063,0)" xlink:href="#bc"/><use transform="matrix(0.03998649864986499,0,0,0.03998649864986499,124.59792979297931,0)" xlink:href="#bd"/><use transform="matrix(0.03998649864986499,0,0,0.03998649864986499,128.5965796579658,0)" xlink:href="#bd"/></g><path fill="#3a414a" d="M169-182c-1-43-94-46-97-3 18 66 151 10 154 114 3 95-165 93-204 36-6-8-10-19-12-30l50-8c3 46 112 56 116 5-17-69-150-10-154-114-4-87 153-88 188-35 5 8 8 18 10 28" id="bv"/><g id="t"><use transform="matrix(0.03998649864986499,0,0,0.03998649864986499,0,0)" xlink:href="#bv"/><use transform="matrix(0.03998649864986499,0,0,0.03998649864986499,9.596759675967597,0)" xlink:href="#bi"/><use transform="matrix(0.03998649864986499,0,0,0.03998649864986499,18.35380288028803,0)" xlink:href="#aX"/><use transform="matrix(0.03998649864986499,0,0,0.03998649864986499,27.110846084608458,0)" xlink:href="#bl"/></g><g id="u"><use transform="matrix(0.03998649864986499,0,0,0.03998649864986499,0,0)" xlink:href="#bh"/><use transform="matrix(0.03998649864986499,0,0,0.03998649864986499,7.997299729972998,0)" xlink:href="#aX"/><use transform="matrix(0.03998649864986499,0,0,0.03998649864986499,16.75434293429343,0)" xlink:href="#bo"/><use transform="matrix(0.03998649864986499,0,0,0.03998649864986499,25.511386138613858,0)" xlink:href="#aT"/><use transform="matrix(0.03998649864986499,0,0,0.03998649864986499,33.50868586858686,0)" xlink:href="#aQ"/><use transform="matrix(0.03998649864986499,0,0,0.03998649864986499,41.50598559855986,0)" xlink:href="#bo"/><use transform="matrix(0.03998649864986499,0,0,0.03998649864986499,50.26302880288029,0)" xlink:href="#aU"/></g><path fill="#3a414a" d="M220-157c-53 9-28 100-34 157h-49v-107c1-27-5-49-29-50C55-147 81-57 75 0H25l-1-190h47c2 12-1 28 3 38 10-53 101-56 108 0 13-22 24-43 59-42 82 1 51 116 57 194h-49v-107c-1-25-5-48-29-50" id="bw"/><g id="v"><use transform="matrix(0.03998649864986499,0,0,0.03998649864986499,0,0)" xlink:href="#aZ"/><use transform="matrix(0.03998649864986499,0,0,0.03998649864986499,3.998649864986499,0)" xlink:href="#bo"/><use transform="matrix(0.03998649864986499,0,0,0.03998649864986499,12.755693069306929,0)" xlink:href="#br"/><use transform="matrix(0.03998649864986499,0,0,0.03998649864986499,17.514086408640864,0)" xlink:href="#aX"/><use transform="matrix(0.03998649864986499,0,0,0.03998649864986499,26.271129612961293,0)" xlink:href="#aW"/><use transform="matrix(0.03998649864986499,0,0,0.03998649864986499,31.869239423942396,0)" xlink:href="#bw"/><use transform="matrix(0.03998649864986499,0,0,0.03998649864986499,44.66491899189919,0)" xlink:href="#bc"/><use transform="matrix(0.03998649864986499,0,0,0.03998649864986499,52.66221872187219,0)" xlink:href="#aU"/><use transform="matrix(0.03998649864986499,0,0,0.03998649864986499,57.42061206120613,0)" xlink:href="#aZ"/><use transform="matrix(0.03998649864986499,0,0,0.03998649864986499,61.419261926192625,0)" xlink:href="#aX"/><use transform="matrix(0.03998649864986499,0,0,0.03998649864986499,70.17630513051306,0)" xlink:href="#bo"/></g><g id="w"><use transform="matrix(0.03998649864986499,0,0,0.03998649864986499,0,0)" xlink:href="#aU"/><use transform="matrix(0.03998649864986499,0,0,0.03998649864986499,4.758393339333934,0)" xlink:href="#aX"/></g><g id="x"><use transform="matrix(0.03998649864986499,0,0,0.03998649864986499,0,0)" xlink:href="#aQ"/><use transform="matrix(0.03998649864986499,0,0,0.03998649864986499,7.997299729972998,0)" xlink:href="#bo"/><use transform="matrix(0.03998649864986499,0,0,0.03998649864986499,16.75434293429343,0)" xlink:href="#ba"/></g><g id="y"><use transform="matrix(0.03998649864986499,0,0,0.03998649864986499,0,0)" xlink:href="#aS"/><use transform="matrix(0.03998649864986499,0,0,0.03998649864986499,8.757043204320432,0)" xlink:href="#aT"/><use transform="matrix(0.03998649864986499,0,0,0.03998649864986499,16.75434293429343,0)" xlink:href="#aQ"/><use transform="matrix(0.03998649864986499,0,0,0.03998649864986499,24.75164266426643,0)" xlink:href="#aW"/></g><path fill="#3a414a" d="M106-169C34-169 62-67 57 0H25v-261h32l-1 103c12-21 28-36 61-36 89 0 53 116 60 194h-32v-121c2-32-8-49-39-48" id="bx"/><g id="z"><use transform="matrix(0.05,0,0,0.05,0,0)" xlink:href="#aN"/><use transform="matrix(0.05,0,0,0.05,10.950000000000001,0)" xlink:href="#bx"/><use transform="matrix(0.05,0,0,0.05,20.950000000000003,0)" xlink:href="#at"/></g><path fill="#3a414a" d="M101-234c-31-9-42 10-38 44h38v23H63V0H32v-167H5v-23h27c-7-52 17-82 69-68v24" id="by"/><path fill="#3a414a" d="M206 0h-36l-40-164L89 0H53L-1-190h32L70-26l43-164h34l41 164 42-164h31" id="bz"/><g id="A"><use transform="matrix(0.05,0,0,0.05,0,0)" xlink:href="#by"/><use transform="matrix(0.05,0,0,0.05,5,0)" xlink:href="#aE"/><use transform="matrix(0.05,0,0,0.05,15,0)" xlink:href="#au"/><use transform="matrix(0.05,0,0,0.05,18.95,0)" xlink:href="#au"/><use transform="matrix(0.05,0,0,0.05,22.9,0)" xlink:href="#aE"/><use transform="matrix(0.05,0,0,0.05,32.9,0)" xlink:href="#bz"/><use transform="matrix(0.05,0,0,0.05,45.85,0)" xlink:href="#aw"/><use transform="matrix(0.05,0,0,0.05,49.800000000000004,0)" xlink:href="#ax"/><use transform="matrix(0.05,0,0,0.05,59.800000000000004,0)" xlink:href="#ay"/></g><path fill="#3a414a" d="M210-169c-67 3-38 105-44 169h-31v-121c0-29-5-50-35-48C34-165 62-65 56 0H25l-1-190h30c1 10-1 24 2 32 10-44 99-50 107 0 11-21 27-35 58-36 85-2 47 119 55 194h-31v-121c0-29-5-49-35-48" id="bA"/><g id="B"><use transform="matrix(0.05,0,0,0.05,0,0)" xlink:href="#aw"/><use transform="matrix(0.05,0,0,0.05,3.95,0)" xlink:href="#ax"/><use transform="matrix(0.05,0,0,0.05,13.949999999999998,0)" xlink:href="#by"/><use transform="matrix(0.05,0,0,0.05,18.95,0)" xlink:href="#aE"/><use transform="matrix(0.05,0,0,0.05,28.950000000000003,0)" xlink:href="#aB"/><use transform="matrix(0.05,0,0,0.05,34.9,0)" xlink:href="#bA"/><use transform="matrix(0.05,0,0,0.05,49.85,0)" xlink:href="#aA"/><use transform="matrix(0.05,0,0,0.05,59.85,0)" xlink:href="#aC"/><use transform="matrix(0.05,0,0,0.05,64.85,0)" xlink:href="#aw"/><use transform="matrix(0.05,0,0,0.05,68.8,0)" xlink:href="#aE"/><use transform="matrix(0.05,0,0,0.05,78.8,0)" xlink:href="#ax"/></g><path fill="#3a414a" d="M240 0l2-218c-23 76-54 145-80 218h-23L58-218 59 0H30v-248h44l77 211c21-75 51-140 76-211h43V0h-30" id="bB"/><path fill="#3a414a" d="M185-189c-5-48-123-54-124 2 14 75 158 14 163 119 3 78-121 87-175 55-17-10-28-26-33-46l33-7c5 56 141 63 141-1 0-78-155-14-162-118-5-82 145-84 179-34 5 7 8 16 11 25" id="bC"/><g id="C"><use transform="matrix(0.05,0,0,0.05,0,0)" xlink:href="#bB"/><use transform="matrix(0.05,0,0,0.05,14.950000000000001,0)" xlink:href="#aK"/><use transform="matrix(0.05,0,0,0.05,27.900000000000002,0)" xlink:href="#bC"/><use transform="matrix(0.05,0,0,0.05,39.900000000000006,0)" xlink:href="#aN"/></g><path fill="#3a414a" d="M115-194c53 0 69 39 70 98 0 66-23 100-70 100C84 3 66-7 56-30L54 0H23l1-261h32v101c10-23 28-34 59-34zm-8 174c40 0 45-34 45-75 0-40-5-75-45-74-42 0-51 32-51 76 0 43 10 73 51 73" id="bD"/><g id="D"><use transform="matrix(0.05,0,0,0.05,0,0)" xlink:href="#bD"/><use transform="matrix(0.05,0,0,0.05,10,0)" xlink:href="#at"/></g><path fill="#3a414a" d="M33-154v-36h34v36H33zM33 0v-36h34V0H33" id="bE"/><g id="E"><use transform="matrix(0.05,0,0,0.05,0,0)" xlink:href="#bf"/><use transform="matrix(0.05,0,0,0.05,10,0)" xlink:href="#aB"/><use transform="matrix(0.05,0,0,0.05,15.949999999999998,0)" xlink:href="#at"/><use transform="matrix(0.05,0,0,0.05,25.950000000000003,0)" xlink:href="#aL"/><use transform="matrix(0.05,0,0,0.05,34.95,0)" xlink:href="#at"/><use transform="matrix(0.05,0,0,0.05,44.95,0)" xlink:href="#ax"/><use transform="matrix(0.05,0,0,0.05,54.95,0)" xlink:href="#aC"/><use transform="matrix(0.05,0,0,0.05,59.95,0)" xlink:href="#at"/><use transform="matrix(0.05,0,0,0.05,69.95,0)" xlink:href="#aH"/><use transform="matrix(0.05,0,0,0.05,79.95,0)" xlink:href="#bE"/></g><path fill="#3a414a" d="M27 0v-27h64v-190l-56 39v-29l58-41h29v221h61V0H27" id="bF"/><path fill="#3a414a" d="M33 0v-38h34V0H33" id="bG"/><g id="F"><use transform="matrix(0.05,0,0,0.05,0,0)" xlink:href="#bF"/><use transform="matrix(0.05,0,0,0.05,10,0)" xlink:href="#bG"/></g><g id="G"><use transform="matrix(0.05,0,0,0.05,0,0)" xlink:href="#aE"/><use transform="matrix(0.05,0,0,0.05,10,0)" xlink:href="#aB"/><use transform="matrix(0.05,0,0,0.05,15.949999999999998,0)" xlink:href="#aw"/><use transform="matrix(0.05,0,0,0.05,19.9,0)" xlink:href="#ay"/><use transform="matrix(0.05,0,0,0.05,29.899999999999995,0)" xlink:href="#aw"/><use transform="matrix(0.05,0,0,0.05,33.85,0)" xlink:href="#ax"/></g><g id="H"><use transform="matrix(0.05,0,0,0.05,0,0)" xlink:href="#aE"/><use transform="matrix(0.05,0,0,0.05,10,0)" xlink:href="#by"/></g><g id="I"><use transform="matrix(0.05,0,0,0.05,0,0)" xlink:href="#aC"/><use transform="matrix(0.05,0,0,0.05,5,0)" xlink:href="#bx"/><use transform="matrix(0.05,0,0,0.05,15,0)" xlink:href="#at"/></g><g id="J"><use transform="matrix(0.05,0,0,0.05,0,0)" xlink:href="#aB"/><use transform="matrix(0.05,0,0,0.05,5.95,0)" xlink:href="#at"/><use transform="matrix(0.05,0,0,0.05,15.949999999999998,0)" xlink:href="#au"/><use transform="matrix(0.05,0,0,0.05,19.9,0)" xlink:href="#av"/><use transform="matrix(0.05,0,0,0.05,28.899999999999995,0)" xlink:href="#aw"/><use transform="matrix(0.05,0,0,0.05,32.85,0)" xlink:href="#ax"/><use transform="matrix(0.05,0,0,0.05,42.85,0)" xlink:href="#ay"/></g><g id="K"><use transform="matrix(0.05,0,0,0.05,0,0)" xlink:href="#bf"/><use transform="matrix(0.05,0,0,0.05,10,0)" xlink:href="#aA"/><use transform="matrix(0.05,0,0,0.05,20,0)" xlink:href="#aB"/><use transform="matrix(0.05,0,0,0.05,25.950000000000003,0)" xlink:href="#aC"/><use transform="matrix(0.05,0,0,0.05,30.950000000000003,0)" xlink:href="#av"/></g><path fill="#3a414a" d="M101-251c82-7 93 87 43 132L82-64C71-53 59-42 53-27h129V0H18c2-99 128-94 128-182 0-28-16-43-45-43s-46 15-49 41l-32-3c6-41 34-60 81-64" id="bH"/><g id="L"><use transform="matrix(0.05,0,0,0.05,0,0)" xlink:href="#bH"/><use transform="matrix(0.05,0,0,0.05,10,0)" xlink:href="#bG"/></g><g id="M"><use transform="matrix(0.05,0,0,0.05,0,0)" xlink:href="#aH"/><use transform="matrix(0.05,0,0,0.05,10,0)" xlink:href="#at"/><use transform="matrix(0.05,0,0,0.05,20,0)" xlink:href="#aB"/><use transform="matrix(0.05,0,0,0.05,25.950000000000003,0)" xlink:href="#aw"/><use transform="matrix(0.05,0,0,0.05,29.899999999999995,0)" xlink:href="#aJ"/><use transform="matrix(0.05,0,0,0.05,38.9,0)" xlink:href="#aA"/><use transform="matrix(0.05,0,0,0.05,48.9,0)" xlink:href="#aC"/><use transform="matrix(0.05,0,0,0.05,53.900000000000006,0)" xlink:href="#aw"/><use transform="matrix(0.05,0,0,0.05,57.85,0)" xlink:href="#aE"/><use transform="matrix(0.05,0,0,0.05,67.85,0)" xlink:href="#ax"/></g><path fill="#3a414a" d="M68-38c1 34 0 65-14 84H32c9-13 17-26 17-46H33v-38h35" id="bI"/><g id="N"><use transform="matrix(0.05,0,0,0.05,0,0)" xlink:href="#aE"/><use transform="matrix(0.05,0,0,0.05,10,0)" xlink:href="#aB"/><use transform="matrix(0.05,0,0,0.05,15.949999999999998,0)" xlink:href="#aw"/><use transform="matrix(0.05,0,0,0.05,19.9,0)" xlink:href="#ay"/><use transform="matrix(0.05,0,0,0.05,29.899999999999995,0)" xlink:href="#aw"/><use transform="matrix(0.05,0,0,0.05,33.85,0)" xlink:href="#ax"/><use transform="matrix(0.05,0,0,0.05,43.85,0)" xlink:href="#bI"/></g><g id="O"><use transform="matrix(0.05,0,0,0.05,0,0)" xlink:href="#aw"/><use transform="matrix(0.05,0,0,0.05,3.95,0)" xlink:href="#by"/></g><g id="P"><use transform="matrix(0.05,0,0,0.05,0,0)" xlink:href="#aA"/><use transform="matrix(0.05,0,0,0.05,10,0)" xlink:href="#ax"/><use transform="matrix(0.05,0,0,0.05,20,0)" xlink:href="#av"/></g><path fill="#3a414a" d="M126-127c33 6 58 20 58 59 0 88-139 92-164 29-3-8-5-16-6-25l32-3c6 27 21 44 54 44 32 0 52-15 52-46 0-38-36-46-79-43v-28c39 1 72-4 72-42 0-27-17-43-46-43-28 0-47 15-49 41l-32-3c6-42 35-63 81-64 48-1 79 21 79 65 0 36-21 52-52 59" id="bJ"/><g id="Q"><use transform="matrix(0.05,0,0,0.05,0,0)" xlink:href="#bJ"/><use transform="matrix(0.05,0,0,0.05,10,0)" xlink:href="#bG"/></g><g id="R"><use transform="matrix(0.05,0,0,0.05,0,0)" xlink:href="#aC"/><use transform="matrix(0.05,0,0,0.05,5,0)" xlink:href="#aA"/><use transform="matrix(0.05,0,0,0.05,15,0)" xlink:href="#aB"/><use transform="matrix(0.05,0,0,0.05,20.95,0)" xlink:href="#ay"/><use transform="matrix(0.05,0,0,0.05,30.950000000000003,0)" xlink:href="#at"/><use transform="matrix(0.05,0,0,0.05,40.95,0)" xlink:href="#aC"/></g><path fill="#3a414a" d="M96-169c-40 0-48 33-48 73s9 75 48 75c24 0 41-14 43-38l32 2c-6 37-31 61-74 61-59 0-76-41-82-99-10-93 101-131 147-64 4 7 5 14 7 22l-32 3c-4-21-16-35-41-35" id="bK"/><g id="S"><use transform="matrix(0.05,0,0,0.05,0,0)" xlink:href="#bK"/><use transform="matrix(0.05,0,0,0.05,9,0)" xlink:href="#aA"/><use transform="matrix(0.05,0,0,0.05,19,0)" xlink:href="#ax"/><use transform="matrix(0.05,0,0,0.05,29,0)" xlink:href="#aw"/><use transform="matrix(0.05,0,0,0.05,32.95,0)" xlink:href="#aL"/><use transform="matrix(0.05,0,0,0.05,41.95,0)" xlink:href="#aC"/><use transform="matrix(0.05,0,0,0.05,46.95,0)" xlink:href="#at"/><use transform="matrix(0.05,0,0,0.05,56.95,0)" xlink:href="#aB"/></g><path fill="#3a414a" d="M155-56V0h-30v-56H8v-25l114-167h33v167h35v25h-35zm-30-156c-27 46-58 90-88 131h88v-131" id="bL"/><g id="T"><use transform="matrix(0.05,0,0,0.05,0,0)" xlink:href="#bL"/><use transform="matrix(0.05,0,0,0.05,10,0)" xlink:href="#bG"/></g><path fill="#3a414a" d="M84 4C-5 8 30-112 23-190h32v120c0 31 7 50 39 49 72-2 45-101 50-169h31l1 190h-30c-1-10 1-25-2-33-11 22-28 36-60 37" id="bM"/><g id="U"><use transform="matrix(0.05,0,0,0.05,0,0)" xlink:href="#bx"/><use transform="matrix(0.05,0,0,0.05,10,0)" xlink:href="#bM"/><use transform="matrix(0.05,0,0,0.05,20,0)" xlink:href="#bA"/><use transform="matrix(0.05,0,0,0.05,34.95,0)" xlink:href="#aA"/><use transform="matrix(0.05,0,0,0.05,44.95,0)" xlink:href="#ax"/></g><g id="V"><use transform="matrix(0.05,0,0,0.05,0,0)" xlink:href="#aB"/><use transform="matrix(0.05,0,0,0.05,5.95,0)" xlink:href="#at"/><use transform="matrix(0.05,0,0,0.05,15.949999999999998,0)" xlink:href="#aA"/><use transform="matrix(0.05,0,0,0.05,25.950000000000003,0)" xlink:href="#aH"/><use transform="matrix(0.05,0,0,0.05,35.95,0)" xlink:href="#aA"/><use transform="matrix(0.05,0,0,0.05,45.95,0)" xlink:href="#bD"/><use transform="matrix(0.05,0,0,0.05,55.95,0)" xlink:href="#au"/><use transform="matrix(0.05,0,0,0.05,59.900000000000006,0)" xlink:href="#at"/></g><g id="W"><use transform="matrix(0.05,0,0,0.05,0,0)" xlink:href="#bK"/><use transform="matrix(0.05,0,0,0.05,9,0)" xlink:href="#aA"/><use transform="matrix(0.05,0,0,0.05,19,0)" xlink:href="#au"/><use transform="matrix(0.05,0,0,0.05,22.95,0)" xlink:href="#au"/></g><path fill="#3a414a" d="M87 75C49 33 22-17 22-94c0-76 28-126 65-167h31c-38 41-64 92-64 168S80 34 118 75H87" id="bN"/><g id="X"><use transform="matrix(0.05,0,0,0.05,0,0)" xlink:href="#bN"/><use transform="matrix(0.05,0,0,0.05,5.95,0)" xlink:href="#aB"/><use transform="matrix(0.05,0,0,0.05,11.9,0)" xlink:href="#at"/><use transform="matrix(0.05,0,0,0.05,21.9,0)" xlink:href="#aC"/><use transform="matrix(0.05,0,0,0.05,26.899999999999995,0)" xlink:href="#aB"/><use transform="matrix(0.05,0,0,0.05,32.85,0)" xlink:href="#aw"/><use transform="matrix(0.05,0,0,0.05,36.800000000000004,0)" xlink:href="#at"/><use transform="matrix(0.05,0,0,0.05,46.800000000000004,0)" xlink:href="#aJ"/><use transform="matrix(0.05,0,0,0.05,55.800000000000004,0)" xlink:href="#at"/><use transform="matrix(0.05,0,0,0.05,65.80000000000001,0)" xlink:href="#aH"/></g><g id="Y"><use transform="matrix(0.05,0,0,0.05,0,0)" xlink:href="#by"/><use transform="matrix(0.05,0,0,0.05,5,0)" xlink:href="#aB"/><use transform="matrix(0.05,0,0,0.05,10.95,0)" xlink:href="#aE"/><use transform="matrix(0.05,0,0,0.05,20.95,0)" xlink:href="#bA"/></g><path fill="#3a414a" d="M33-261c38 41 65 92 65 168S71 34 33 75H2C39 34 66-17 66-93S39-220 2-261h31" id="bO"/><g id="Z"><use transform="matrix(0.05,0,0,0.05,0,0)" xlink:href="#bK"/><use transform="matrix(0.05,0,0,0.05,9,0)" xlink:href="#aA"/><use transform="matrix(0.05,0,0,0.05,19,0)" xlink:href="#ax"/><use transform="matrix(0.05,0,0,0.05,29,0)" xlink:href="#aw"/><use transform="matrix(0.05,0,0,0.05,32.95,0)" xlink:href="#aL"/><use transform="matrix(0.05,0,0,0.05,41.95,0)" xlink:href="#aC"/><use transform="matrix(0.05,0,0,0.05,46.95,0)" xlink:href="#at"/><use transform="matrix(0.05,0,0,0.05,56.95,0)" xlink:href="#aB"/><use transform="matrix(0.05,0,0,0.05,62.900000000000006,0)" xlink:href="#bO"/></g><path fill="#3a414a" d="M199 0l-22-63H83L61 0H9l90-248h61L250 0h-51zm-33-102l-36-108c-10 38-24 72-36 108h72" id="bP"/><g id="aa"><use transform="matrix(0.03998649864986499,0,0,0.03998649864986499,0,0)" xlink:href="#bP"/><use transform="matrix(0.03998649864986499,0,0,0.03998649864986499,10.356503150315033,0)" xlink:href="#aS"/><use transform="matrix(0.03998649864986499,0,0,0.03998649864986499,19.113546354635467,0)" xlink:href="#aU"/><use transform="matrix(0.03998649864986499,0,0,0.03998649864986499,23.871939693969402,0)" xlink:href="#aQ"/><use transform="matrix(0.03998649864986499,0,0,0.03998649864986499,31.869239423942403,0)" xlink:href="#bo"/><use transform="matrix(0.03998649864986499,0,0,0.03998649864986499,40.62628262826283,0)" xlink:href="#aU"/><use transform="matrix(0.03998649864986499,0,0,0.03998649864986499,45.38467596759676,0)" xlink:href="#aZ"/><use transform="matrix(0.03998649864986499,0,0,0.03998649864986499,49.38332583258326,0)" xlink:href="#bh"/><use transform="matrix(0.03998649864986499,0,0,0.03998649864986499,57.38062556255626,0)" xlink:href="#bc"/><use transform="matrix(0.03998649864986499,0,0,0.03998649864986499,65.37792529252926,0)" xlink:href="#aU"/><use transform="matrix(0.03998649864986499,0,0,0.03998649864986499,70.13631863186319,0)" xlink:href="#aQ"/></g><g id="ab"><use transform="matrix(0.03998649864986499,0,0,0.03998649864986499,0,0)" xlink:href="#aS"/><use transform="matrix(0.03998649864986499,0,0,0.03998649864986499,8.757043204320432,0)" xlink:href="#aT"/><use transform="matrix(0.03998649864986499,0,0,0.03998649864986499,16.75434293429343,0)" xlink:href="#aQ"/><use transform="matrix(0.03998649864986499,0,0,0.03998649864986499,24.75164266426643,0)" xlink:href="#aW"/></g><g id="ac"><use transform="matrix(0.05,0,0,0.05,0,0)" xlink:href="#bM"/><use transform="matrix(0.05,0,0,0.05,10,0)" xlink:href="#aL"/><use transform="matrix(0.05,0,0,0.05,19,0)" xlink:href="#at"/><use transform="matrix(0.05,0,0,0.05,29,0)" xlink:href="#aB"/></g><g id="ad"><use transform="matrix(0.05,0,0,0.05,0,0)" xlink:href="#aA"/><use transform="matrix(0.05,0,0,0.05,10,0)" xlink:href="#bM"/><use transform="matrix(0.05,0,0,0.05,20,0)" xlink:href="#aC"/><use transform="matrix(0.05,0,0,0.05,25,0)" xlink:href="#bx"/><use transform="matrix(0.05,0,0,0.05,35,0)" xlink:href="#at"/><use transform="matrix(0.05,0,0,0.05,45,0)" xlink:href="#ax"/><use transform="matrix(0.05,0,0,0.05,55,0)" xlink:href="#aC"/><use transform="matrix(0.05,0,0,0.05,60,0)" xlink:href="#aw"/><use transform="matrix(0.05,0,0,0.05,63.95,0)" xlink:href="#bK"/><use transform="matrix(0.05,0,0,0.05,72.95,0)" xlink:href="#aA"/><use transform="matrix(0.05,0,0,0.05,82.95,0)" xlink:href="#aC"/><use transform="matrix(0.05,0,0,0.05,87.95,0)" xlink:href="#at"/><use transform="matrix(0.05,0,0,0.05,97.95,0)" xlink:href="#aH"/></g><g id="ae"><use transform="matrix(0.05,0,0,0.05,0,0)" xlink:href="#bz"/><use transform="matrix(0.05,0,0,0.05,12.950000000000001,0)" xlink:href="#bx"/><use transform="matrix(0.05,0,0,0.05,22.950000000000003,0)" xlink:href="#at"/><use transform="matrix(0.05,0,0,0.05,32.95,0)" xlink:href="#ax"/></g><g id="af"><use transform="matrix(0.05,0,0,0.05,0,0)" xlink:href="#ay"/><use transform="matrix(0.05,0,0,0.05,10,0)" xlink:href="#aw"/><use transform="matrix(0.05,0,0,0.05,13.949999999999998,0)" xlink:href="#aJ"/><use transform="matrix(0.05,0,0,0.05,22.95,0)" xlink:href="#aw"/><use transform="matrix(0.05,0,0,0.05,26.899999999999995,0)" xlink:href="#ax"/><use transform="matrix(0.05,0,0,0.05,36.9,0)" xlink:href="#ay"/></g><g id="ag"><use transform="matrix(0.05,0,0,0.05,0,0)" xlink:href="#bK"/><use transform="matrix(0.05,0,0,0.05,9,0)" xlink:href="#aE"/><use transform="matrix(0.05,0,0,0.05,19,0)" xlink:href="#ax"/><use transform="matrix(0.05,0,0,0.05,29,0)" xlink:href="#aL"/><use transform="matrix(0.05,0,0,0.05,38,0)" xlink:href="#at"/><use transform="matrix(0.05,0,0,0.05,48,0)" xlink:href="#ax"/><use transform="matrix(0.05,0,0,0.05,58,0)" xlink:href="#aC"/></g><g id="ah"><use transform="matrix(0.03998649864986499,0,0,0.03998649864986499,0,0)" xlink:href="#bb"/><use transform="matrix(0.03998649864986499,0,0,0.03998649864986499,10.356503150315033,0)" xlink:href="#aX"/><use transform="matrix(0.03998649864986499,0,0,0.03998649864986499,19.113546354635467,0)" xlink:href="#bo"/><use transform="matrix(0.03998649864986499,0,0,0.03998649864986499,27.8705895589559,0)" xlink:href="#aT"/><use transform="matrix(0.03998649864986499,0,0,0.03998649864986499,35.8678892889289,0)" xlink:href="#aQ"/><use transform="matrix(0.03998649864986499,0,0,0.03998649864986499,43.8651890189019,0)" xlink:href="#bo"/><use transform="matrix(0.03998649864986499,0,0,0.03998649864986499,52.62223222322233,0)" xlink:href="#aU"/></g><path fill="#3a414a" d="M230 0l2-204L168 0h-37L68-204 70 0H24v-248h70l56 185 57-185h69V0h-46" id="bQ"/><g id="ai"><use transform="matrix(0.03998649864986499,0,0,0.03998649864986499,0,0)" xlink:href="#bQ"/><use transform="matrix(0.03998649864986499,0,0,0.03998649864986499,11.955963096309633,0)" xlink:href="#bc"/><use transform="matrix(0.03998649864986499,0,0,0.03998649864986499,19.953262826282632,0)" xlink:href="#bn"/><use transform="matrix(0.03998649864986499,0,0,0.03998649864986499,27.95056255625563,0)" xlink:href="#aQ"/></g><g id="aj"><use transform="matrix(0.03998649864986499,0,0,0.03998649864986499,0,0)" xlink:href="#bh"/><use transform="matrix(0.03998649864986499,0,0,0.03998649864986499,7.997299729972998,0)" xlink:href="#bc"/><use transform="matrix(0.03998649864986499,0,0,0.03998649864986499,15.994599459945997,0)" xlink:href="#bd"/><use transform="matrix(0.03998649864986499,0,0,0.03998649864986499,19.993249324932496,0)" xlink:href="#bd"/></g><path fill="#3a414a" d="M30 0v-248h33v221h125V0H30" id="bR"/><g id="ak"><use transform="matrix(0.05,0,0,0.05,0,0)" xlink:href="#bR"/><use transform="matrix(0.05,0,0,0.05,10,0)" xlink:href="#aE"/><use transform="matrix(0.05,0,0,0.05,20,0)" xlink:href="#aE"/><use transform="matrix(0.05,0,0,0.05,30,0)" xlink:href="#bf"/></g><g id="al"><use transform="matrix(0.03998649864986499,0,0,0.03998649864986499,0,0)" xlink:href="#aV"/><use transform="matrix(0.03998649864986499,0,0,0.03998649864986499,9.596759675967597,0)" xlink:href="#aX"/><use transform="matrix(0.03998649864986499,0,0,0.03998649864986499,18.35380288028803,0)" xlink:href="#bd"/><use transform="matrix(0.03998649864986499,0,0,0.03998649864986499,22.35245274527453,0)" xlink:href="#bd"/></g><g id="am"><use transform="matrix(0.03998649864986499,0,0,0.03998649864986499,0,0)" xlink:href="#br"/><use transform="matrix(0.03998649864986499,0,0,0.03998649864986499,4.758393339333934,0)" xlink:href="#aX"/><use transform="matrix(0.03998649864986499,0,0,0.03998649864986499,13.515436543654367,0)" xlink:href="#aW"/></g><g id="an"><use transform="matrix(0.03998649864986499,0,0,0.03998649864986499,0,0)" xlink:href="#aW"/><use transform="matrix(0.03998649864986499,0,0,0.03998649864986499,5.598109810981098,0)" xlink:href="#aQ"/><use transform="matrix(0.03998649864986499,0,0,0.03998649864986499,13.595409540954098,0)" xlink:href="#aT"/><use transform="matrix(0.03998649864986499,0,0,0.03998649864986499,21.592709270927095,0)" xlink:href="#aS"/><use transform="matrix(0.03998649864986499,0,0,0.03998649864986499,30.349752475247527,0)" xlink:href="#bd"/><use transform="matrix(0.03998649864986499,0,0,0.03998649864986499,34.348402340234024,0)" xlink:href="#aU"/></g><path fill="#3a414a" d="M67-93c0 74 22 123 53 168H70C40 30 18-18 18-93s22-123 52-168h50c-32 44-53 94-53 168" id="bS"/><g id="ao"><use transform="matrix(0.03998649864986499,0,0,0.03998649864986499,0,0)" xlink:href="#bS"/><use transform="matrix(0.03998649864986499,0,0,0.03998649864986499,4.758393339333934,0)" xlink:href="#aW"/><use transform="matrix(0.03998649864986499,0,0,0.03998649864986499,10.356503150315033,0)" xlink:href="#aQ"/><use transform="matrix(0.03998649864986499,0,0,0.03998649864986499,18.35380288028803,0)" xlink:href="#bc"/><use transform="matrix(0.03998649864986499,0,0,0.03998649864986499,26.35110261026103,0)" xlink:href="#ba"/></g><path fill="#3a414a" d="M102-93c0 74-22 123-52 168H0C30 29 54-18 53-93c0-74-22-123-53-168h50c30 45 52 94 52 168" id="bT"/><g id="ap"><use transform="matrix(0.03998649864986499,0,0,0.03998649864986499,0,0)" xlink:href="#aT"/><use transform="matrix(0.03998649864986499,0,0,0.03998649864986499,7.997299729972998,0)" xlink:href="#aU"/><use transform="matrix(0.03998649864986499,0,0,0.03998649864986499,12.755693069306933,0)" xlink:href="#bc"/><use transform="matrix(0.03998649864986499,0,0,0.03998649864986499,20.75299279927993,0)" xlink:href="#aU"/><use transform="matrix(0.03998649864986499,0,0,0.03998649864986499,25.511386138613865,0)" xlink:href="#aQ"/><use transform="matrix(0.03998649864986499,0,0,0.03998649864986499,33.508685868586866,0)" xlink:href="#bT"/></g><path fill="#3a414a" d="M136-208V0H84v-208H4v-40h212v40h-80" id="bU"/><g id="aq"><use transform="matrix(0.03998649864986499,0,0,0.03998649864986499,0,0)" xlink:href="#bU"/><use transform="matrix(0.03998649864986499,0,0,0.03998649864986499,7.957313231323132,0)" xlink:href="#aW"/><use transform="matrix(0.03998649864986499,0,0,0.03998649864986499,13.555423042304229,0)" xlink:href="#bc"/><use transform="matrix(0.03998649864986499,0,0,0.03998649864986499,21.552722772277228,0)" xlink:href="#bo"/><use transform="matrix(0.03998649864986499,0,0,0.03998649864986499,30.309765976597657,0)" xlink:href="#aT"/><use transform="matrix(0.03998649864986499,0,0,0.03998649864986499,38.30706570657066,0)" xlink:href="#br"/><use transform="matrix(0.03998649864986499,0,0,0.03998649864986499,43.065459045904596,0)" xlink:href="#aQ"/><use transform="matrix(0.03998649864986499,0,0,0.03998649864986499,51.06275877587759,0)" xlink:href="#aW"/></g><g id="ar"><use transform="matrix(0.03998649864986499,0,0,0.03998649864986499,0,0)" xlink:href="#aP"/><use transform="matrix(0.03998649864986499,0,0,0.03998649864986499,10.356503150315033,0)" xlink:href="#aQ"/><use transform="matrix(0.03998649864986499,0,0,0.03998649864986499,18.353802880288033,0)" xlink:href="#aT"/><use transform="matrix(0.03998649864986499,0,0,0.03998649864986499,26.35110261026103,0)" xlink:href="#aS"/><use transform="matrix(0.03998649864986499,0,0,0.03998649864986499,35.10814581458146,0)" xlink:href="#bd"/><use transform="matrix(0.03998649864986499,0,0,0.03998649864986499,39.10679567956796,0)" xlink:href="#aU"/></g></defs></g></svg>