<svg xmlns="http://www.w3.org/2000/svg" xmlns:xlink="http://www.w3.org/1999/xlink" xmlns:lucid="lucid" width="1472.98" height="1520"><g transform="translate(-20 -20)" lucid:page-tab-id="0_0"><path d="M0 0h1760v2560H0z" fill="#fff"/><path d="M108.96 141v5m0 5.02v10.03m0 5v10.03m0 5v10.04m0 5v10.03m0 5v10.04m0 5v10.02m0 5.02v10.02m0 5v10.03m0 5v10.03m0 5v10.04m0 5v10.03m0 5v10.04m0 5v10.03m0 5v10.04m0 5.02v10.02m0 5v10.04m0 5v10.03m0 5.02v10.03m0 5v10.03m0 5v10.04m0 5v10.03m0 5v10.04m0 5v10.02m0 5v10.04m0 5v10.03m0 5v10.03m0 5v10.04m0 5V567m0 5v10.03m0 5.02v10.02m0 5v10.04m0 5.02v10.02m0 5v10.04m0 5v10.03m0 5.02v10.03m0 5v10.03m0 5v10.04m0 5v10.03m0 5v10.04m0 5v10.02m0 5v10.04m0 5v10.03m0 5v10.03m0 5v10.04m0 5v10.03m0 5v10.03m0 5.02v10.02m0 5v10.04m0 5.02v10.02m0 5v10.04m0 5v10.03m0 5.02v10.03m0 5v10.03m0 5v10.04m0 5v10.03m0 5V988m0 5v10.02m0 5v10.04m0 5v10.03m0 5v10.03m0 5v10.03m0 5.02v10.02m0 5v10.03m0 5.02v10.02m0 5v10.04m0 5.02v10.02m0 5v10.04m0 5v10.03m0 5.02v10.03m0 5v10.03m0 5v10.04m0 5v10.03m0 5.02v10.02m0 5v10.02m0 5.02v10.02m0 5v10.03m0 5v10.03m0 5v10.04m0 5v10.03m0 5v10.04m0 5v10.03m0 5v10.04m0 5.02v10.02m0 5V1409m0 5v5.02" stroke="#3a414a" fill="none"/><path d="M109.46 141h-1v-.5h1zM109.46 1419.5h-1v-.5h1z" stroke="#3a414a" stroke-width=".05" fill="#3a414a"/><path d="M40 48a8 8 0 0 1 8-8h121.92a8 8 0 0 1 8 8v84a8 8 0 0 1-8 8H48a8 8 0 0 1-8-8z" stroke="#3a414a" fill="#fff"/><use xlink:href="#a" transform="matrix(1,0,0,1,40,40) translate(15.604999999999992 55.025)"/><use xlink:href="#b" transform="matrix(1,0,0,1,40,40) translate(80.45500000000001 55.025)"/><path d="M1156.55 141v5m0 5.02v10.03m0 5v10.03m0 5v10.04m0 5v10.03m0 5v10.04m0 5v10.02m0 5.02v10.02m0 5v10.03m0 5v10.03m0 5v10.04m0 5v10.03m0 5v10.04m0 5v10.03m0 5v10.04m0 5.02v10.02m0 5v10.04m0 5v10.03m0 5.02v10.03m0 5v10.03m0 5v10.04m0 5v10.03m0 5v10.04m0 5v10.02m0 5v10.04m0 5v10.03m0 5v10.03m0 5v10.04m0 5V567m0 5v10.03m0 5.02v10.02m0 5v10.04m0 5.02v10.02m0 5v10.04m0 5v10.03m0 5.02v10.03m0 5v10.03m0 5v10.04m0 5v10.03m0 5v10.04m0 5v10.02m0 5v10.04m0 5v10.03m0 5v10.03m0 5v10.04m0 5v10.03m0 5v10.03m0 5.02v10.02m0 5v10.04m0 5.02v10.02m0 5v10.04m0 5v10.03m0 5.02v10.03m0 5v10.03m0 5v10.04m0 5v10.03m0 5V988m0 5v10.02m0 5v10.04m0 5v10.03m0 5v10.03m0 5v10.03m0 5.02v10.02m0 5v10.03m0 5.02v10.02m0 5v10.04m0 5.02v10.02m0 5v10.04m0 5v10.03m0 5.02v10.03m0 5v10.03m0 5v10.04m0 5v10.03m0 5.02v10.02m0 5v10.02m0 5.02v10.02m0 5v10.03m0 5v10.03m0 5v10.04m0 5v10.03m0 5v10.04m0 5v10.03m0 5v10.04m0 5.02v10.02m0 5V1409m0 5v5.02" stroke="#3a414a" fill="none"/><path d="M1157.05 141h-1v-.5h1zM1157.05 1419.5h-1v-.5h1z" stroke="#3a414a" stroke-width=".05" fill="#3a414a"/><path d="M458.95 141v5m0 5.02v10.03m0 5v10.03m0 5v10.04m0 5v10.03m0 5v10.04m0 5v10.02m0 5.02v10.02m0 5v10.03m0 5v10.03m0 5v10.04m0 5v10.03m0 5v10.04m0 5v10.03m0 5v10.04m0 5.02v10.02m0 5v10.04m0 5v10.03m0 5.02v10.03m0 5v10.03m0 5v10.04m0 5v10.03m0 5v10.04m0 5v10.02m0 5v10.04m0 5v10.03m0 5v10.03m0 5v10.04m0 5V567m0 5v10.03m0 5.02v10.02m0 5v10.04m0 5.02v10.02m0 5v10.04m0 5v10.03m0 5.02v10.03m0 5v10.03m0 5v10.04m0 5v10.03m0 5v10.04m0 5v10.02m0 5v10.04m0 5v10.03m0 5v10.03m0 5v10.04m0 5v10.03m0 5v10.03m0 5.02v10.02m0 5v10.04m0 5.02v10.02m0 5v10.04m0 5v10.03m0 5.02v10.03m0 5v10.03m0 5v10.04m0 5v10.03m0 5V988m0 5v10.02m0 5v10.04m0 5v10.03m0 5v10.03m0 5v10.03m0 5.02v10.02m0 5v10.03m0 5.02v10.02m0 5v10.04m0 5.02v10.02m0 5v10.04m0 5v10.03m0 5.02v10.03m0 5v10.03m0 5v10.04m0 5v10.03m0 5.02v10.02m0 5v10.02m0 5.02v10.02m0 5v10.03m0 5v10.03m0 5v10.04m0 5v10.03m0 5v10.04m0 5v10.03m0 5v10.04m0 5.02v10.02m0 5V1409m0 5v5.02" stroke="#3a414a" fill="none"/><path d="M459.45 141h-1v-.5h1zM459.45 1419.5h-1v-.5h1z" stroke="#3a414a" stroke-width=".05" fill="#3a414a"/><path d="M850.05 141v5m0 5.02v10.03m0 5v10.03m0 5v10.04m0 5v10.03m0 5v10.04m0 5v10.02m0 5.02v10.02m0 5v10.03m0 5v10.03m0 5v10.04m0 5v10.03m0 5v10.04m0 5v10.03m0 5v10.04m0 5.02v10.02m0 5v10.04m0 5v10.03m0 5.02v10.03m0 5v10.03m0 5v10.04m0 5v10.03m0 5v10.04m0 5v10.02m0 5v10.04m0 5v10.03m0 5v10.03m0 5v10.04m0 5V567m0 5v10.03m0 5.02v10.02m0 5v10.04m0 5.02v10.02m0 5v10.04m0 5v10.03m0 5.02v10.03m0 5v10.03m0 5v10.04m0 5v10.03m0 5v10.04m0 5v10.02m0 5v10.04m0 5v10.03m0 5v10.03m0 5v10.04m0 5v10.03m0 5v10.03m0 5.02v10.02m0 5v10.04m0 5.02v10.02m0 5v10.04m0 5v10.03m0 5.02v10.03m0 5v10.03m0 5v10.04m0 5v10.03m0 5V988m0 5v10.02m0 5v10.04m0 5v10.03m0 5v10.03m0 5v10.03m0 5.02v10.02m0 5v10.03m0 5.02v10.02m0 5v10.04m0 5.02v10.02m0 5v10.04m0 5v10.03m0 5.02v10.03m0 5v10.03m0 5v10.04m0 5v10.03m0 5.02v10.02m0 5v10.02m0 5.02v10.02m0 5v10.03m0 5v10.03m0 5v10.04m0 5v10.03m0 5v10.04m0 5v10.03m0 5v10.04m0 5.02v10.02m0 5V1409m0 5v5.02" stroke="#3a414a" fill="none"/><path d="M850.55 141h-1v-.5h1zM850.55 1419.5h-1v-.5h1z" stroke="#3a414a" stroke-width=".05" fill="#3a414a"/><path d="M1412.98 141v5m0 5.02v10.03m0 5v10.03m0 5v10.04m0 5v10.03m0 5v10.04m0 5v10.02m0 5.02v10.02m0 5v10.03m0 5v10.03m0 5v10.04m0 5v10.03m0 5v10.04m0 5v10.03m0 5v10.04m0 5.02v10.02m0 5v10.04m0 5v10.03m0 5.02v10.03m0 5v10.03m0 5v10.04m0 5v10.03m0 5v10.04m0 5v10.02m0 5v10.04m0 5v10.03m0 5v10.03m0 5v10.04m0 5V567m0 5v10.03m0 5.02v10.02m0 5v10.04m0 5.02v10.02m0 5v10.04m0 5v10.03m0 5.02v10.03m0 5v10.03m0 5v10.04m0 5v10.03m0 5v10.04m0 5v10.02m0 5v10.04m0 5v10.03m0 5v10.03m0 5v10.04m0 5v10.03m0 5v10.03m0 5.02v10.02m0 5v10.04m0 5.02v10.02m0 5v10.04m0 5v10.03m0 5.02v10.03m0 5v10.03m0 5v10.04m0 5v10.03m0 5V988m0 5v10.02m0 5v10.04m0 5v10.03m0 5v10.03m0 5v10.03m0 5.02v10.02m0 5v10.03m0 5.02v10.02m0 5v10.04m0 5.02v10.02m0 5v10.04m0 5v10.03m0 5.02v10.03m0 5v10.03m0 5v10.04m0 5v10.03m0 5.02v10.02m0 5v10.02m0 5.02v10.02m0 5v10.03m0 5v10.03m0 5v10.04m0 5v10.03m0 5v10.04m0 5v10.03m0 5v10.04m0 5.02v10.02m0 5V1409m0 5v5.02" stroke="#3a414a" fill="none"/><path d="M1413.48 141h-1v-.5h1zM1413.48 1419.5h-1v-.5h1z" stroke="#3a414a" stroke-width=".05" fill="#3a414a"/><path d="M40 1428a8 8 0 0 1 8-8h121.92a8 8 0 0 1 8 8v84a8 8 0 0 1-8 8H48a8 8 0 0 1-8-8z" stroke="#3a414a" fill="#fff"/><use xlink:href="#a" transform="matrix(1,0,0,1,40,1420) translate(15.604999999999992 55.025)"/><use xlink:href="#b" transform="matrix(1,0,0,1,40,1420) translate(80.45500000000001 55.025)"/><path d="M297.92 48a8 8 0 0 1 8-8H612a8 8 0 0 1 8 8v84a8 8 0 0 1-8 8H305.9a8 8 0 0 1-8-8z" stroke="#3a414a" fill="#fff"/><use xlink:href="#c" transform="matrix(1,0,0,1,297.92,40) translate(15.529999999999982 55.025)"/><use xlink:href="#d" transform="matrix(1,0,0,1,297.92,40) translate(67.42999999999998 55.025)"/><use xlink:href="#e" transform="matrix(1,0,0,1,297.92,40) translate(159.38 55.025)"/><use xlink:href="#f" transform="matrix(1,0,0,1,297.92,40) translate(213.57999999999998 55.025)"/><path d="M297.92 1428a8 8 0 0 1 8-8H612a8 8 0 0 1 8 8v84a8 8 0 0 1-8 8H305.9a8 8 0 0 1-8-8z" stroke="#3a414a" fill="#fff"/><use xlink:href="#c" transform="matrix(1,0,0,1,297.92,1420) translate(15.529999999999982 55.025)"/><use xlink:href="#d" transform="matrix(1,0,0,1,297.92,1420) translate(67.42999999999998 55.025)"/><use xlink:href="#e" transform="matrix(1,0,0,1,297.92,1420) translate(159.38 55.025)"/><use xlink:href="#f" transform="matrix(1,0,0,1,297.92,1420) translate(213.57999999999998 55.025)"/><path d="M740 48a8 8 0 0 1 8-8h204.1a8 8 0 0 1 8 8v84a8 8 0 0 1-8 8H748a8 8 0 0 1-8-8z" stroke="#3a414a" fill="#fff"/><use xlink:href="#g" transform="matrix(1,0,0,1,739.99,40) translate(15.50499999999999 55.025)"/><use xlink:href="#e" transform="matrix(1,0,0,1,739.99,40) translate(57.404999999999994 55.025)"/><use xlink:href="#f" transform="matrix(1,0,0,1,739.99,40) translate(111.605 55.025)"/><path d="M740 1428a8 8 0 0 1 8-8h204.1a8 8 0 0 1 8 8v84a8 8 0 0 1-8 8H748a8 8 0 0 1-8-8z" stroke="#3a414a" fill="#fff"/><use xlink:href="#g" transform="matrix(1,0,0,1,739.99,1420) translate(15.50499999999999 55.025)"/><use xlink:href="#e" transform="matrix(1,0,0,1,739.99,1420) translate(57.404999999999994 55.025)"/><use xlink:href="#f" transform="matrix(1,0,0,1,739.99,1420) translate(111.605 55.025)"/><path d="M1080.1 48a8 8 0 0 1 8-8H1225a8 8 0 0 1 8 8v84a8 8 0 0 1-8 8H1088.1a8 8 0 0 1-8-8z" stroke="#3a414a" fill="#fff"/><use xlink:href="#h" transform="matrix(1,0,0,1,1080.1100000000001,40) translate(15.62999999999999 55.025)"/><use xlink:href="#i" transform="matrix(1,0,0,1,1080.1100000000001,40) translate(70.53 55.025)"/><path d="M1080.1 1428a8 8 0 0 1 8-8H1225a8 8 0 0 1 8 8v84a8 8 0 0 1-8 8H1088.1a8 8 0 0 1-8-8z" stroke="#3a414a" fill="#fff"/><use xlink:href="#h" transform="matrix(1,0,0,1,1080.1100000000001,1420) translate(15.62999999999999 55.025)"/><use xlink:href="#i" transform="matrix(1,0,0,1,1080.1100000000001,1420) translate(70.53 55.025)"/><path d="M1352.98 48a8 8 0 0 1 8-8h104a8 8 0 0 1 8 8v84a8 8 0 0 1-8 8h-104a8 8 0 0 1-8-8z" stroke="#3a414a" fill="#fff"/><use xlink:href="#j" transform="matrix(1,0,0,1,1352.98,40) translate(41.055 55.025)"/><path d="M1352.98 1428a8 8 0 0 1 8-8h104a8 8 0 0 1 8 8v84a8 8 0 0 1-8 8h-104a8 8 0 0 1-8-8z" stroke="#3a414a" fill="#fff"/><use xlink:href="#j" transform="matrix(1,0,0,1,1352.98,1420) translate(41.055 55.025)"/><path d="M109.46 200.45h333.1M109.47 200.45h-.5" stroke="#3a414a" fill="none"/><path d="M457.34 200.45l-14.27 4.64v-9.28z" stroke="#3a414a" fill="#3a414a"/><use xlink:href="#k" transform="matrix(1,0,0,1,212.10176192619247,179.17891227075836) translate(0 11.516111611161117)"/><use xlink:href="#l" transform="matrix(1,0,0,1,212.10176192619247,179.17891227075836) translate(60.61953195319533 11.516111611161117)"/><use xlink:href="#m" transform="matrix(1,0,0,1,212.10176192619247,179.17891227075836) translate(119.71957695769578 11.516111611161117)"/><path d="M459.45 260.4h680.7M459.47 260.4h-.52" stroke="#3a414a" fill="none"/><path d="M1154.93 260.4l-14.27 4.64v-9.27z" stroke="#3a414a" fill="#3a414a"/><use xlink:href="#k" transform="matrix(1,0,0,1,717.1605873087311,239.1320419582584) translate(0 11.516111611161117)"/><use xlink:href="#n" transform="matrix(1,0,0,1,717.1605873087311,239.1320419582584) translate(60.61953195319533 11.516111611161117)"/><use xlink:href="#o" transform="matrix(1,0,0,1,717.1605873087311,239.1320419582584) translate(119.63960396039604 11.516111611161117)"/><path d="M1156.05 320.36h-680.7M1156.03 320.36h.52" stroke="#3a414a" fill="none"/><path d="M460.57 320.36l14.27-4.64V325z" stroke="#3a414a" fill="#3a414a"/><use xlink:href="#p" transform="matrix(1,0,0,1,712.3622074707472,299.08517164575846) translate(0 11.516111611161117)"/><use xlink:href="#q" transform="matrix(1,0,0,1,712.3622074707472,299.08517164575846) translate(61.379275427542765 11.516111611161117)"/><use xlink:href="#r" transform="matrix(1,0,0,1,712.3622074707472,299.08517164575846) translate(126.91714671467149 11.516111611161117)"/><path d="M459.45 400.3h374.22M459.47 400.3h-.52" stroke="#3a414a" fill="none"/><path d="M848.43 400.3l-14.26 4.63v-9.27z" stroke="#3a414a" fill="#3a414a"/><use xlink:href="#s" transform="matrix(1,0,0,1,583.8463568856886,361.7485104790168) translate(0 11.516111611161117)"/><use xlink:href="#t" transform="matrix(1,0,0,1,583.8463568856886,361.7485104790168) translate(61.4592484248425 11.516111611161117)"/><use xlink:href="#u" transform="matrix(1,0,0,1,583.8463568856886,361.7485104790168) translate(89.449797479748 11.516111611161117)"/><use xlink:href="#p" transform="matrix(1,0,0,1,583.8463568856886,361.7485104790168) translate(0 28.79027902790279)"/><use xlink:href="#v" transform="matrix(1,0,0,1,583.8463568856886,361.7485104790168) translate(61.379275427542765 28.79027902790279)"/><path d="M850.55 440.27h119.5v39.96H866.43M850.56 440.27h-.5" stroke="#3a414a" fill="none"/><path d="M851.67 480.23l14.26-4.63v9.27z" stroke="#3a414a" fill="#3a414a"/><use xlink:href="#w" transform="matrix(1,0,0,1,978.05,451.61289129162924) translate(0 11.516111611161117)"/><use xlink:href="#n" transform="matrix(1,0,0,1,978.05,451.61289129162924) translate(58.30031503150317 11.516111611161117)"/><use xlink:href="#o" transform="matrix(1,0,0,1,978.05,451.61289129162924) translate(117.3203870387039 11.516111611161117)"/><path d="M810.05 508a8 8 0 0 1 8-8h75.86a8 8 0 0 1 8 8v2.44a17.07 17.07 0 0 1-5 12.08 17.07 17.07 0 0 1-12.06 5h-66.8a8 8 0 0 1-8-8z" fill="#fff"/><path d="M901.9 500v17.52l-10 10h-81.85" stroke="#3a414a" fill="none"/><path d="M810.05 508a8 8 0 0 1 8-8h404.12a8 8 0 0 1 8 8v244a8 8 0 0 1-8 8H818.05a8 8 0 0 1-8-8zM810.05 660h20m15 0h20m15 0h20m15 0h20m15 0h20m15 0h20m15 0h20m15 0h20m15 0h20m15 0h20m15 0h20m15 0h20m15 0h.12" stroke="#3a414a" fill="none"/><use xlink:href="#x" transform="matrix(1,0,0,1,818.05,500) translate(0 16.879027902790277)"/><use xlink:href="#y" transform="matrix(1,0,0,1,822.05,535.5161116111611) translate(0 16.879027902790277)"/><use xlink:href="#z" transform="matrix(1,0,0,1,822.05,535.5161116111611) translate(67.89707470747076 16.879027902790277)"/><use xlink:href="#A" transform="matrix(1,0,0,1,822.05,535.5161116111611) translate(122.27871287128715 16.879027902790277)"/><use xlink:href="#B" transform="matrix(1,0,0,1,822.05,668) translate(0 16.879027902790277)"/><use xlink:href="#z" transform="matrix(1,0,0,1,822.05,668) translate(26.35110261026103 16.879027902790277)"/><use xlink:href="#A" transform="matrix(1,0,0,1,822.05,668) translate(80.73274077407743 16.879027902790277)"/><path d="M850.55 600.14h119.5v39.97H866.43M850.56 600.14h-.5" stroke="#3a414a" fill="none"/><path d="M851.67 640.1l14.26-4.63v9.27z" stroke="#3a414a" fill="#3a414a"/><use xlink:href="#C" transform="matrix(1,0,0,1,978.05,602.8508200832584) translate(0 11.516111611161117)"/><use xlink:href="#D" transform="matrix(1,0,0,1,978.05,602.8508200832584) translate(55.10139513951396 11.516111611161117)"/><use xlink:href="#E" transform="matrix(1,0,0,1,978.05,602.8508200832584) translate(0 28.79027902790279)"/><path d="M850.55 700.06h119.5v39.97H866.43M850.56 700.06h-.5" stroke="#3a414a" fill="none"/><path d="M851.67 740.03l14.26-4.63v9.27z" stroke="#3a414a" fill="#3a414a"/><use xlink:href="#C" transform="matrix(1,0,0,1,978.05,711.4097866041293) translate(0 11.516111611161117)"/><use xlink:href="#F" transform="matrix(1,0,0,1,978.05,711.4097866041293) translate(55.10139513951396 11.516111611161117)"/><path d="M866.43 819.97h530.17" stroke="#3a414a" fill="none"/><path d="M851.67 819.97l14.26-4.64v9.27zM1411.36 819.97l-14.26 4.63v-9.27z" stroke="#3a414a" fill="#3a414a"/><use xlink:href="#G" transform="matrix(1,0,0,1,1033.6880310531046,798.6945857082584) translate(0 11.516111611161117)"/><use xlink:href="#H" transform="matrix(1,0,0,1,1033.6880310531046,798.6945857082584) translate(62.21899189918993 11.516111611161117)"/><use xlink:href="#I" transform="matrix(1,0,0,1,1033.6880310531046,798.6945857082584) translate(70.21629162916292 11.516111611161117)"/><use xlink:href="#J" transform="matrix(1,0,0,1,1033.6880310531046,798.6945857082584) translate(112.56199369936995 11.516111611161117)"/><use xlink:href="#m" transform="matrix(1,0,0,1,1033.6880310531046,798.6945857082584) translate(171.6620387038704 11.516111611161117)"/><path d="M68.96 848a8 8 0 0 1 8-8h75.86a8 8 0 0 1 8 8v2.45a17.07 17.07 0 0 1-5 12.07 17.07 17.07 0 0 1-12.07 5h-66.8a8 8 0 0 1-8-8z" fill="#fff"/><path d="M160.82 840v17.52l-10 10H68.96" stroke="#3a414a" fill="none"/><path d="M68.96 848a8 8 0 0 1 8-8h1111.6a8 8 0 0 1 8 8v524a8 8 0 0 1-8 8H76.95a8 8 0 0 1-8-8zM68.96 1240h20m15 0h20m15 0h20m15 0h20m15 0h20m15 0h20m15 0h20m15 0h20m15 0h20m15 0h20m15 0h20m15 0h20m15 0h20m15 0h20m15 0h20m15 0h20m15 0h20m15 0h20m15 0h20m15 0h20m15 0h20m15 0h20m15 0h20m15 0h20m15 0h20m15 0h20m15 0h20m15 0h20m15 0h20m15 0h20m15 0h20m15 0h20m15 0h7.6" stroke="#3a414a" fill="none"/><g><use xlink:href="#x" transform="matrix(1,0,0,1,76.96000000000001,840) translate(0 16.879027902790277)"/></g><g><use xlink:href="#K" transform="matrix(1,0,0,1,80.96000000000001,875.5161116111611) translate(0 16.879027902790277)"/></g><g><use xlink:href="#L" transform="matrix(1,0,0,1,80.96000000000001,1248) translate(0 16.879027902790277)"/></g><path d="M850.55 939.88h119.5v39.96H866.43M850.56 939.88h-.5" stroke="#3a414a" fill="none"/><path d="M851.67 979.84l14.26-4.63v9.28z" stroke="#3a414a" fill="#3a414a"/><g><use xlink:href="#M" transform="matrix(1,0,0,1,978.0500000000001,951.2223053541293) translate(0 11.516111611161117)"/><use xlink:href="#l" transform="matrix(1,0,0,1,978.0500000000001,951.2223053541293) translate(33.50868586858686 11.516111611161117)"/><use xlink:href="#m" transform="matrix(1,0,0,1,978.0500000000001,951.2223053541293) translate(92.60873087308732 11.516111611161117)"/></g><path d="M849.55 1039.8h-374.2M849.54 1039.8h.5" stroke="#3a414a" fill="none"/><path d="M460.57 1039.8l14.27-4.64v9.27z" stroke="#3a414a" fill="#3a414a"/><g><use xlink:href="#N" transform="matrix(1,0,0,1,557.4952542754274,1018.5227278957583) translate(0 11.516111611161117)"/><use xlink:href="#O" transform="matrix(1,0,0,1,557.4952542754274,1018.5227278957583) translate(60.659518451845194 11.516111611161117)"/><use xlink:href="#J" transform="matrix(1,0,0,1,557.4952542754274,1018.5227278957583) translate(110.92254725472549 11.516111611161117)"/><use xlink:href="#m" transform="matrix(1,0,0,1,557.4952542754274,1018.5227278957583) translate(170.02259225922595 11.516111611161117)"/></g><path d="M459.45 1099.75h680.7M459.47 1099.75h-.52" stroke="#3a414a" fill="none"/><path d="M1154.93 1099.75l-14.27 4.63v-9.27z" stroke="#3a414a" fill="#3a414a"/><g><use xlink:href="#P" transform="matrix(1,0,0,1,739.872918541854,1078.4758575832584) translate(0 11.516111611161117)"/><use xlink:href="#l" transform="matrix(1,0,0,1,739.872918541854,1078.4758575832584) translate(52.662218721872186 11.516111611161117)"/><use xlink:href="#m" transform="matrix(1,0,0,1,739.872918541854,1078.4758575832584) translate(111.76226372637265 11.516111611161117)"/></g><path d="M1156.05 1159.7h-680.7M1156.03 1159.7h.52" stroke="#3a414a" fill="none"/><path d="M460.57 1159.7l14.27-4.63v9.27z" stroke="#3a414a" fill="#3a414a"/><g><use xlink:href="#s" transform="matrix(1,0,0,1,731.0958820882088,1138.4289872707582) translate(0 11.516111611161117)"/><use xlink:href="#t" transform="matrix(1,0,0,1,731.0958820882088,1138.4289872707582) translate(61.4592484248425 11.516111611161117)"/><use xlink:href="#r" transform="matrix(1,0,0,1,731.0958820882088,1138.4289872707582) translate(89.449797479748 11.516111611161117)"/></g><path d="M458.45 1219.66h-333.1M458.44 1219.66h.5" stroke="#3a414a" fill="none"/><path d="M110.58 1219.66l14.26-4.64v9.27z" stroke="#3a414a" fill="#3a414a"/><g><use xlink:href="#s" transform="matrix(1,0,0,1,207.30338208820936,1198.3821169582584) translate(0 11.516111611161117)"/><use xlink:href="#t" transform="matrix(1,0,0,1,207.30338208820936,1198.3821169582584) translate(61.4592484248425 11.516111611161117)"/><use xlink:href="#r" transform="matrix(1,0,0,1,207.30338208820936,1198.3821169582584) translate(89.449797479748 11.516111611161117)"/></g><path d="M849.55 1299.6h-374.2M849.54 1299.6h.5" stroke="#3a414a" fill="none"/><path d="M460.57 1299.6l14.27-4.64v9.27z" stroke="#3a414a" fill="#3a414a"/><g><use xlink:href="#Q" transform="matrix(1,0,0,1,588.2648649864987,1278.3196232082585) translate(0 11.516111611161117)"/><use xlink:href="#R" transform="matrix(1,0,0,1,588.2648649864987,1278.3196232082585) translate(68.61683168316833 11.516111611161117)"/></g><path d="M458.45 1359.55h-333.1M458.44 1359.55h.5" stroke="#3a414a" fill="none"/><path d="M110.58 1359.55l14.26-4.64v9.28z" stroke="#3a414a" fill="#3a414a"/><g><use xlink:href="#Q" transform="matrix(1,0,0,1,217.71986498649954,1338.2727528957585) translate(0 11.516111611161117)"/><use xlink:href="#R" transform="matrix(1,0,0,1,217.71986498649954,1338.2727528957585) translate(68.61683168316833 11.516111611161117)"/></g><defs><path fill="#3a414a" d="M233-177c-1 41-23 64-60 70L243 0h-38l-65-103H63V0H30v-248c88 3 205-21 203 71zM63-129c60-2 137 13 137-47 0-61-80-42-137-45v92" id="S"/><path fill="#3a414a" d="M100-194c63 0 86 42 84 106H49c0 40 14 67 53 68 26 1 43-12 49-29l28 8c-11 28-37 45-77 45C44 4 14-33 15-96c1-61 26-98 85-98zm52 81c6-60-76-77-97-28-3 7-6 17-6 28h103" id="T"/><path fill="#3a414a" d="M24 0v-261h32V0H24" id="U"/><path fill="#3a414a" d="M179-190L93 31C79 59 56 82 12 73V49c39 6 53-20 64-50L1-190h34L92-34l54-156h33" id="V"/><path fill="#3a414a" d="M24-231v-30h32v30H24zM24 0v-190h32V0H24" id="W"/><path fill="#3a414a" d="M117-194c89-4 53 116 60 194h-32v-121c0-31-8-49-39-48C34-167 62-67 57 0H25l-1-190h30c1 10-1 24 2 32 11-22 29-35 61-36" id="X"/><path fill="#3a414a" d="M177-190C167-65 218 103 67 71c-23-6-38-20-44-43l32-5c15 47 100 32 89-28v-30C133-14 115 1 83 1 29 1 15-40 15-95c0-56 16-97 71-98 29-1 48 16 59 35 1-10 0-23 2-32h30zM94-22c36 0 50-32 50-73 0-42-14-75-50-75-39 0-46 34-46 75s6 73 46 73" id="Y"/><g id="a"><use transform="matrix(0.05,0,0,0.05,0,0)" xlink:href="#S"/><use transform="matrix(0.05,0,0,0.05,12.950000000000001,0)" xlink:href="#T"/><use transform="matrix(0.05,0,0,0.05,22.950000000000003,0)" xlink:href="#U"/><use transform="matrix(0.05,0,0,0.05,26.900000000000002,0)" xlink:href="#V"/><use transform="matrix(0.05,0,0,0.05,35.900000000000006,0)" xlink:href="#W"/><use transform="matrix(0.05,0,0,0.05,39.85000000000001,0)" xlink:href="#X"/><use transform="matrix(0.05,0,0,0.05,49.85000000000001,0)" xlink:href="#Y"/></g><path fill="#3a414a" d="M30-248c87 1 191-15 191 75 0 78-77 80-158 76V0H30v-248zm33 125c57 0 124 11 124-50 0-59-68-47-124-48v98" id="Z"/><path fill="#3a414a" d="M141-36C126-15 110 5 73 4 37 3 15-17 15-53c-1-64 63-63 125-63 3-35-9-54-41-54-24 1-41 7-42 31l-33-3c5-37 33-52 76-52 45 0 72 20 72 64v82c-1 20 7 32 28 27v20c-31 9-61-2-59-35zM48-53c0 20 12 33 32 33 41-3 63-29 60-74-43 2-92-5-92 41" id="aa"/><path fill="#3a414a" d="M114-163C36-179 61-72 57 0H25l-1-190h30c1 12-1 29 2 39 6-27 23-49 58-41v29" id="ab"/><path fill="#3a414a" d="M59-47c-2 24 18 29 38 22v24C64 9 27 4 27-40v-127H5v-23h24l9-43h21v43h35v23H59v120" id="ac"/><g id="b"><use transform="matrix(0.05,0,0,0.05,0,0)" xlink:href="#Z"/><use transform="matrix(0.05,0,0,0.05,12,0)" xlink:href="#aa"/><use transform="matrix(0.05,0,0,0.05,22,0)" xlink:href="#ab"/><use transform="matrix(0.05,0,0,0.05,27.950000000000003,0)" xlink:href="#ac"/><use transform="matrix(0.05,0,0,0.05,32.95,0)" xlink:href="#V"/></g><path fill="#3a414a" d="M212-179c-10-28-35-45-73-45-59 0-87 40-87 99 0 60 29 101 89 101 43 0 62-24 78-52l27 14C228-24 195 4 139 4 59 4 22-46 18-125c-6-104 99-153 187-111 19 9 31 26 39 46" id="ad"/><path fill="#3a414a" d="M106-169C34-169 62-67 57 0H25v-261h32l-1 103c12-21 28-36 61-36 89 0 53 116 60 194h-32v-121c2-32-8-49-39-48" id="ae"/><g id="c"><use transform="matrix(0.05,0,0,0.05,0,0)" xlink:href="#ad"/><use transform="matrix(0.05,0,0,0.05,12.950000000000001,0)" xlink:href="#ae"/><use transform="matrix(0.05,0,0,0.05,22.950000000000003,0)" xlink:href="#aa"/><use transform="matrix(0.05,0,0,0.05,32.95,0)" xlink:href="#W"/><use transform="matrix(0.05,0,0,0.05,36.900000000000006,0)" xlink:href="#X"/></g><path fill="#3a414a" d="M100-194c62-1 85 37 85 99 1 63-27 99-86 99S16-35 15-95c0-66 28-99 85-99zM99-20c44 1 53-31 53-75 0-43-8-75-51-75s-53 32-53 75 10 74 51 75" id="af"/><path fill="#3a414a" d="M96-169c-40 0-48 33-48 73s9 75 48 75c24 0 41-14 43-38l32 2c-6 37-31 61-74 61-59 0-76-41-82-99-10-93 101-131 147-64 4 7 5 14 7 22l-32 3c-4-21-16-35-41-35" id="ag"/><path fill="#3a414a" d="M85-194c31 0 48 13 60 33l-1-100h32l1 261h-30c-2-10 0-23-3-31C134-8 116 4 85 4 32 4 16-35 15-94c0-66 23-100 70-100zm9 24c-40 0-46 34-46 75 0 40 6 74 45 74 42 0 51-32 51-76 0-42-9-74-50-73" id="ah"/><g id="d"><use transform="matrix(0.05,0,0,0.05,0,0)" xlink:href="#ad"/><use transform="matrix(0.05,0,0,0.05,12.950000000000001,0)" xlink:href="#af"/><use transform="matrix(0.05,0,0,0.05,22.950000000000003,0)" xlink:href="#X"/><use transform="matrix(0.05,0,0,0.05,32.95,0)" xlink:href="#X"/><use transform="matrix(0.05,0,0,0.05,42.95,0)" xlink:href="#T"/><use transform="matrix(0.05,0,0,0.05,52.95,0)" xlink:href="#ag"/><use transform="matrix(0.05,0,0,0.05,61.95,0)" xlink:href="#ac"/><use transform="matrix(0.05,0,0,0.05,66.95,0)" xlink:href="#T"/><use transform="matrix(0.05,0,0,0.05,76.95,0)" xlink:href="#ah"/></g><path fill="#3a414a" d="M266 0h-40l-56-210L115 0H75L2-248h35L96-30l15-64 43-154h32l59 218 59-218h35" id="ai"/><g id="e"><use transform="matrix(0.05,0,0,0.05,0,0)" xlink:href="#ai"/><use transform="matrix(0.05,0,0,0.05,16.3,0)" xlink:href="#aa"/><use transform="matrix(0.05,0,0,0.05,26.3,0)" xlink:href="#U"/><use transform="matrix(0.05,0,0,0.05,30.25,0)" xlink:href="#U"/><use transform="matrix(0.05,0,0,0.05,34.2,0)" xlink:href="#T"/><use transform="matrix(0.05,0,0,0.05,44.2,0)" xlink:href="#ac"/></g><path fill="#3a414a" d="M210-169c-67 3-38 105-44 169h-31v-121c0-29-5-50-35-48C34-165 62-65 56 0H25l-1-190h30c1 10-1 24 2 32 10-44 99-50 107 0 11-21 27-35 58-36 85-2 47 119 55 194h-31v-121c0-29-5-49-35-48" id="aj"/><path fill="#3a414a" d="M115-194c55 1 70 41 70 98S169 2 115 4C84 4 66-9 55-30l1 105H24l-1-265h31l2 30c10-21 28-34 59-34zm-8 174c40 0 45-34 45-75s-6-73-45-74c-42 0-51 32-51 76 0 43 10 73 51 73" id="ak"/><g id="f"><use transform="matrix(0.05,0,0,0.05,0,0)" xlink:href="#ad"/><use transform="matrix(0.05,0,0,0.05,12.950000000000001,0)" xlink:href="#af"/><use transform="matrix(0.05,0,0,0.05,22.950000000000003,0)" xlink:href="#aj"/><use transform="matrix(0.05,0,0,0.05,37.900000000000006,0)" xlink:href="#ak"/><use transform="matrix(0.05,0,0,0.05,47.900000000000006,0)" xlink:href="#af"/><use transform="matrix(0.05,0,0,0.05,57.900000000000006,0)" xlink:href="#X"/><use transform="matrix(0.05,0,0,0.05,67.9,0)" xlink:href="#T"/><use transform="matrix(0.05,0,0,0.05,77.9,0)" xlink:href="#X"/><use transform="matrix(0.05,0,0,0.05,87.9,0)" xlink:href="#ac"/></g><g id="g"><use transform="matrix(0.05,0,0,0.05,0,0)" xlink:href="#ad"/><use transform="matrix(0.05,0,0,0.05,12.950000000000001,0)" xlink:href="#af"/><use transform="matrix(0.05,0,0,0.05,22.950000000000003,0)" xlink:href="#U"/><use transform="matrix(0.05,0,0,0.05,26.900000000000002,0)" xlink:href="#ah"/></g><path fill="#3a414a" d="M127-220V0H93v-220H8v-28h204v28h-85" id="al"/><g id="h"><use transform="matrix(0.05,0,0,0.05,0,0)" xlink:href="#al"/><use transform="matrix(0.05,0,0,0.05,8.950000000000001,0)" xlink:href="#aa"/><use transform="matrix(0.05,0,0,0.05,18.950000000000003,0)" xlink:href="#ab"/><use transform="matrix(0.05,0,0,0.05,24.900000000000002,0)" xlink:href="#Y"/><use transform="matrix(0.05,0,0,0.05,34.900000000000006,0)" xlink:href="#T"/><use transform="matrix(0.05,0,0,0.05,44.900000000000006,0)" xlink:href="#ac"/></g><path fill="#3a414a" d="M135-143c-3-34-86-38-87 0 15 53 115 12 119 90S17 21 10-45l28-5c4 36 97 45 98 0-10-56-113-15-118-90-4-57 82-63 122-42 12 7 21 19 24 35" id="am"/><g id="i"><use transform="matrix(0.05,0,0,0.05,0,0)" xlink:href="#ad"/><use transform="matrix(0.05,0,0,0.05,12.950000000000001,0)" xlink:href="#aa"/><use transform="matrix(0.05,0,0,0.05,22.950000000000003,0)" xlink:href="#X"/><use transform="matrix(0.05,0,0,0.05,32.95,0)" xlink:href="#W"/><use transform="matrix(0.05,0,0,0.05,36.900000000000006,0)" xlink:href="#am"/><use transform="matrix(0.05,0,0,0.05,45.900000000000006,0)" xlink:href="#ac"/><use transform="matrix(0.05,0,0,0.05,50.900000000000006,0)" xlink:href="#T"/><use transform="matrix(0.05,0,0,0.05,60.900000000000006,0)" xlink:href="#ab"/></g><path fill="#3a414a" d="M232-93c-1 65-40 97-104 97C67 4 28-28 28-90v-158h33c8 89-33 224 67 224 102 0 64-133 71-224h33v155" id="an"/><g id="j"><use transform="matrix(0.05,0,0,0.05,0,0)" xlink:href="#an"/><use transform="matrix(0.05,0,0,0.05,12.950000000000001,0)" xlink:href="#am"/><use transform="matrix(0.05,0,0,0.05,21.950000000000003,0)" xlink:href="#T"/><use transform="matrix(0.05,0,0,0.05,31.950000000000003,0)" xlink:href="#ab"/></g><path fill="#3a414a" d="M240-174c0 40-23 61-54 70L253 0h-59l-57-94H76V0H24v-248c93 4 217-23 216 74zM76-134c48-2 112 12 112-38 0-48-66-32-112-35v73" id="ao"/><path fill="#3a414a" d="M185-48c-13 30-37 53-82 52C43 2 14-33 14-96s30-98 90-98c62 0 83 45 84 108H66c0 31 8 55 39 56 18 0 30-7 34-22zm-45-69c5-46-57-63-70-21-2 6-4 13-4 21h74" id="ap"/><path fill="#3a414a" d="M84 4C32 4 15-41 15-95c0-55 18-99 73-99 29 0 47 12 58 34l2-30h48l-1 265h-49V-32C136-9 114 4 84 4zm21-34c32 0 41-29 41-66 0-36-9-64-40-64-33 0-39 30-40 65 0 43 13 65 39 65" id="aq"/><path fill="#3a414a" d="M85 4C-2 5 27-109 22-190h50c7 57-23 150 33 157 60-5 35-97 40-157h50l1 190h-47c-2-12 1-28-3-38-12 25-28 42-61 42" id="ar"/><path fill="#3a414a" d="M137-138c1-29-70-34-71-4 15 46 118 7 119 86 1 83-164 76-172 9l43-7c4 19 20 25 44 25 33 8 57-30 24-41C81-84 22-81 20-136c-2-80 154-74 161-7" id="as"/><path fill="#3a414a" d="M115-3C79 11 28 4 28-45v-112H4v-33h27l15-45h31v45h36v33H77v99c-1 23 16 31 38 25v30" id="at"/><g id="k"><use transform="matrix(0.03998649864986499,0,0,0.03998649864986499,0,0)" xlink:href="#ao"/><use transform="matrix(0.03998649864986499,0,0,0.03998649864986499,10.356503150315033,0)" xlink:href="#ap"/><use transform="matrix(0.03998649864986499,0,0,0.03998649864986499,18.353802880288033,0)" xlink:href="#aq"/><use transform="matrix(0.03998649864986499,0,0,0.03998649864986499,27.110846084608465,0)" xlink:href="#ar"/><use transform="matrix(0.03998649864986499,0,0,0.03998649864986499,35.86788928892889,0)" xlink:href="#ap"/><use transform="matrix(0.03998649864986499,0,0,0.03998649864986499,43.865189018901894,0)" xlink:href="#as"/><use transform="matrix(0.03998649864986499,0,0,0.03998649864986499,51.862488748874895,0)" xlink:href="#at"/></g><path fill="#3a414a" d="M190-63c-7 42-38 67-86 67-59 0-84-38-90-98-12-110 154-137 174-36l-49 2c-2-19-15-32-35-32-30 0-35 28-38 64-6 74 65 87 74 30" id="au"/><path fill="#3a414a" d="M133-34C117-15 103 5 69 4 32 3 11-16 11-54c-1-60 55-63 116-61 1-26-3-47-28-47-18 1-26 9-28 27l-52-2c7-38 36-58 82-57s74 22 75 68l1 82c-1 14 12 18 25 15v27c-30 8-71 5-69-32zm-48 3c29 0 43-24 42-57-32 0-66-3-65 30 0 17 8 27 23 27" id="av"/><path fill="#3a414a" d="M135-194c87-1 58 113 63 194h-50c-7-57 23-157-34-157-59 0-34 97-39 157H25l-1-190h47c2 12-1 28 3 38 12-26 28-41 61-42" id="aw"/><path fill="#3a414a" d="M25-224v-37h50v37H25zM25 0v-190h50V0H25" id="ax"/><path fill="#3a414a" d="M135-150c-39-12-60 13-60 57V0H25l-1-190h47c2 13-1 29 3 40 6-28 27-53 61-41v41" id="ay"/><g id="l"><use transform="matrix(0.03998649864986499,0,0,0.03998649864986499,0,0)" xlink:href="#au"/><use transform="matrix(0.03998649864986499,0,0,0.03998649864986499,7.997299729972998,0)" xlink:href="#av"/><use transform="matrix(0.03998649864986499,0,0,0.03998649864986499,15.994599459945997,0)" xlink:href="#aw"/><use transform="matrix(0.03998649864986499,0,0,0.03998649864986499,24.75164266426643,0)" xlink:href="#ax"/><use transform="matrix(0.03998649864986499,0,0,0.03998649864986499,28.750292529252928,0)" xlink:href="#as"/><use transform="matrix(0.03998649864986499,0,0,0.03998649864986499,36.747592259225925,0)" xlink:href="#at"/><use transform="matrix(0.03998649864986499,0,0,0.03998649864986499,41.50598559855986,0)" xlink:href="#ap"/><use transform="matrix(0.03998649864986499,0,0,0.03998649864986499,49.50328532853286,0)" xlink:href="#ay"/></g><path fill="#3a414a" d="M25 0v-261h50V0H25" id="az"/><g id="m"><use transform="matrix(0.03998649864986499,0,0,0.03998649864986499,0,0)" xlink:href="#au"/><use transform="matrix(0.03998649864986499,0,0,0.03998649864986499,7.997299729972998,0)" xlink:href="#av"/><use transform="matrix(0.03998649864986499,0,0,0.03998649864986499,15.994599459945997,0)" xlink:href="#az"/><use transform="matrix(0.03998649864986499,0,0,0.03998649864986499,19.993249324932496,0)" xlink:href="#az"/></g><path fill="#3a414a" d="M110-194c64 0 96 36 96 99 0 64-35 99-97 99-61 0-95-36-95-99 0-62 34-99 96-99zm-1 164c35 0 45-28 45-65 0-40-10-65-43-65-34 0-45 26-45 65 0 36 10 65 43 65" id="aA"/><g id="n"><use transform="matrix(0.03998649864986499,0,0,0.03998649864986499,0,0)" xlink:href="#au"/><use transform="matrix(0.03998649864986499,0,0,0.03998649864986499,7.997299729972998,0)" xlink:href="#aA"/><use transform="matrix(0.03998649864986499,0,0,0.03998649864986499,16.75434293429343,0)" xlink:href="#aw"/><use transform="matrix(0.03998649864986499,0,0,0.03998649864986499,25.511386138613858,0)" xlink:href="#as"/><use transform="matrix(0.03998649864986499,0,0,0.03998649864986499,33.50868586858686,0)" xlink:href="#ap"/><use transform="matrix(0.03998649864986499,0,0,0.03998649864986499,41.50598559855986,0)" xlink:href="#aw"/><use transform="matrix(0.03998649864986499,0,0,0.03998649864986499,50.26302880288029,0)" xlink:href="#at"/></g><path fill="#3a414a" d="M220-157c-53 9-28 100-34 157h-49v-107c1-27-5-49-29-50C55-147 81-57 75 0H25l-1-190h47c2 12-1 28 3 38 10-53 101-56 108 0 13-22 24-43 59-42 82 1 51 116 57 194h-49v-107c-1-25-5-48-29-50" id="aB"/><path fill="#3a414a" d="M195-6C206 82 75 100 31 46c-4-6-6-13-8-21l49-6c3 16 16 24 34 25 40 0 42-37 40-79-11 22-30 35-61 35-53 0-70-43-70-97 0-56 18-96 73-97 30 0 46 14 59 34l2-30h47zm-90-29c32 0 41-27 41-63 0-35-9-62-40-62-32 0-39 29-40 63 0 36 9 62 39 62" id="aC"/><g id="o"><use transform="matrix(0.03998649864986499,0,0,0.03998649864986499,0,0)" xlink:href="#aB"/><use transform="matrix(0.03998649864986499,0,0,0.03998649864986499,12.795679567956796,0)" xlink:href="#ap"/><use transform="matrix(0.03998649864986499,0,0,0.03998649864986499,20.792979297929794,0)" xlink:href="#as"/><use transform="matrix(0.03998649864986499,0,0,0.03998649864986499,28.790279027902795,0)" xlink:href="#as"/><use transform="matrix(0.03998649864986499,0,0,0.03998649864986499,36.78757875787579,0)" xlink:href="#av"/><use transform="matrix(0.03998649864986499,0,0,0.03998649864986499,44.784878487848786,0)" xlink:href="#aC"/><use transform="matrix(0.03998649864986499,0,0,0.03998649864986499,53.541921692169225,0)" xlink:href="#ap"/></g><path fill="#3a414a" d="M67-125c0 53 21 87 73 88 37 1 54-22 65-47l45 17C233-25 199 4 140 4 58 4 20-42 15-125 8-235 124-281 211-232c18 10 29 29 36 50l-46 12c-8-25-30-41-62-41-52 0-71 34-72 86" id="aD"/><g id="p"><use transform="matrix(0.03998649864986499,0,0,0.03998649864986499,0,0)" xlink:href="#aD"/><use transform="matrix(0.03998649864986499,0,0,0.03998649864986499,10.356503150315033,0)" xlink:href="#aA"/><use transform="matrix(0.03998649864986499,0,0,0.03998649864986499,19.113546354635467,0)" xlink:href="#aw"/><use transform="matrix(0.03998649864986499,0,0,0.03998649864986499,27.8705895589559,0)" xlink:href="#as"/><use transform="matrix(0.03998649864986499,0,0,0.03998649864986499,35.8678892889289,0)" xlink:href="#ap"/><use transform="matrix(0.03998649864986499,0,0,0.03998649864986499,43.8651890189019,0)" xlink:href="#aw"/><use transform="matrix(0.03998649864986499,0,0,0.03998649864986499,52.62223222322233,0)" xlink:href="#at"/></g><g id="q"><use transform="matrix(0.03998649864986499,0,0,0.03998649864986499,0,0)" xlink:href="#aB"/><use transform="matrix(0.03998649864986499,0,0,0.03998649864986499,12.795679567956796,0)" xlink:href="#ap"/><use transform="matrix(0.03998649864986499,0,0,0.03998649864986499,20.792979297929794,0)" xlink:href="#as"/><use transform="matrix(0.03998649864986499,0,0,0.03998649864986499,28.790279027902795,0)" xlink:href="#as"/><use transform="matrix(0.03998649864986499,0,0,0.03998649864986499,36.78757875787579,0)" xlink:href="#av"/><use transform="matrix(0.03998649864986499,0,0,0.03998649864986499,44.784878487848786,0)" xlink:href="#aC"/><use transform="matrix(0.03998649864986499,0,0,0.03998649864986499,53.541921692169225,0)" xlink:href="#ap"/></g><path fill="#3a414a" d="M135-194c53 0 70 44 70 98 0 56-19 98-73 100-31 1-45-17-59-34 3 33 2 69 2 105H25l-1-265h48c2 10 0 23 3 31 11-24 29-35 60-35zM114-30c33 0 39-31 40-66 0-38-9-64-40-64-56 0-55 130 0 130" id="aE"/><g id="r"><use transform="matrix(0.03998649864986499,0,0,0.03998649864986499,0,0)" xlink:href="#ay"/><use transform="matrix(0.03998649864986499,0,0,0.03998649864986499,5.598109810981098,0)" xlink:href="#ap"/><use transform="matrix(0.03998649864986499,0,0,0.03998649864986499,13.595409540954098,0)" xlink:href="#as"/><use transform="matrix(0.03998649864986499,0,0,0.03998649864986499,21.592709270927095,0)" xlink:href="#aE"/><use transform="matrix(0.03998649864986499,0,0,0.03998649864986499,30.349752475247527,0)" xlink:href="#aA"/><use transform="matrix(0.03998649864986499,0,0,0.03998649864986499,39.10679567956796,0)" xlink:href="#aw"/><use transform="matrix(0.03998649864986499,0,0,0.03998649864986499,47.86383888388839,0)" xlink:href="#as"/><use transform="matrix(0.03998649864986499,0,0,0.03998649864986499,55.86113861386139,0)" xlink:href="#ap"/></g><g id="s"><use transform="matrix(0.03998649864986499,0,0,0.03998649864986499,0,0)" xlink:href="#aD"/><use transform="matrix(0.03998649864986499,0,0,0.03998649864986499,10.356503150315033,0)" xlink:href="#av"/><use transform="matrix(0.03998649864986499,0,0,0.03998649864986499,18.353802880288033,0)" xlink:href="#aw"/><use transform="matrix(0.03998649864986499,0,0,0.03998649864986499,27.110846084608465,0)" xlink:href="#ax"/><use transform="matrix(0.03998649864986499,0,0,0.03998649864986499,31.10949594959497,0)" xlink:href="#as"/><use transform="matrix(0.03998649864986499,0,0,0.03998649864986499,39.106795679567966,0)" xlink:href="#at"/><use transform="matrix(0.03998649864986499,0,0,0.03998649864986499,43.8651890189019,0)" xlink:href="#ap"/><use transform="matrix(0.03998649864986499,0,0,0.03998649864986499,51.8624887488749,0)" xlink:href="#ay"/></g><g id="t"><use transform="matrix(0.03998649864986499,0,0,0.03998649864986499,0,0)" xlink:href="#au"/><use transform="matrix(0.03998649864986499,0,0,0.03998649864986499,7.997299729972998,0)" xlink:href="#av"/><use transform="matrix(0.03998649864986499,0,0,0.03998649864986499,15.994599459945997,0)" xlink:href="#az"/><use transform="matrix(0.03998649864986499,0,0,0.03998649864986499,19.993249324932496,0)" xlink:href="#az"/></g><g id="u"><use transform="matrix(0.03998649864986499,0,0,0.03998649864986499,0,0)" xlink:href="#ay"/><use transform="matrix(0.03998649864986499,0,0,0.03998649864986499,5.598109810981098,0)" xlink:href="#ap"/><use transform="matrix(0.03998649864986499,0,0,0.03998649864986499,13.595409540954098,0)" xlink:href="#aq"/><use transform="matrix(0.03998649864986499,0,0,0.03998649864986499,22.35245274527453,0)" xlink:href="#ar"/><use transform="matrix(0.03998649864986499,0,0,0.03998649864986499,31.10949594959496,0)" xlink:href="#ap"/><use transform="matrix(0.03998649864986499,0,0,0.03998649864986499,39.10679567956796,0)" xlink:href="#as"/><use transform="matrix(0.03998649864986499,0,0,0.03998649864986499,47.10409540954096,0)" xlink:href="#at"/></g><g id="v"><use transform="matrix(0.03998649864986499,0,0,0.03998649864986499,0,0)" xlink:href="#aB"/><use transform="matrix(0.03998649864986499,0,0,0.03998649864986499,12.795679567956796,0)" xlink:href="#ap"/><use transform="matrix(0.03998649864986499,0,0,0.03998649864986499,20.792979297929794,0)" xlink:href="#as"/><use transform="matrix(0.03998649864986499,0,0,0.03998649864986499,28.790279027902795,0)" xlink:href="#as"/><use transform="matrix(0.03998649864986499,0,0,0.03998649864986499,36.78757875787579,0)" xlink:href="#av"/><use transform="matrix(0.03998649864986499,0,0,0.03998649864986499,44.784878487848786,0)" xlink:href="#aC"/><use transform="matrix(0.03998649864986499,0,0,0.03998649864986499,53.541921692169225,0)" xlink:href="#ap"/></g><path fill="#3a414a" d="M147 0H94L2-248h55l64 206c17-72 42-137 63-206h54" id="aF"/><path fill="#3a414a" d="M88-194c31-1 46 15 58 34l-1-101h50l1 261h-48c-2-10 0-23-3-31C134-8 116 4 84 4 32 4 16-41 15-95c0-56 19-97 73-99zm17 164c33 0 40-30 41-66 1-37-9-64-41-64s-38 30-39 65c0 43 13 65 39 65" id="aG"/><g id="w"><use transform="matrix(0.03998649864986499,0,0,0.03998649864986499,0,0)" xlink:href="#aF"/><use transform="matrix(0.03998649864986499,0,0,0.03998649864986499,8.797029702970297,0)" xlink:href="#av"/><use transform="matrix(0.03998649864986499,0,0,0.03998649864986499,16.794329432943297,0)" xlink:href="#az"/><use transform="matrix(0.03998649864986499,0,0,0.03998649864986499,20.792979297929794,0)" xlink:href="#ax"/><use transform="matrix(0.03998649864986499,0,0,0.03998649864986499,24.791629162916298,0)" xlink:href="#aG"/><use transform="matrix(0.03998649864986499,0,0,0.03998649864986499,33.54867236723673,0)" xlink:href="#av"/><use transform="matrix(0.03998649864986499,0,0,0.03998649864986499,41.545972097209734,0)" xlink:href="#at"/><use transform="matrix(0.03998649864986499,0,0,0.03998649864986499,46.30436543654367,0)" xlink:href="#ap"/></g><path fill="#3a414a" d="M205 0l-28-72H64L36 0H1l101-248h38L239 0h-34zm-38-99l-47-123c-12 45-31 82-46 123h93" id="aH"/><path fill="#3a414a" d="M108 0H70L1-190h34L89-25l56-165h34" id="aI"/><g id="x"><use transform="matrix(0.03998649864986499,0,0,0.03998649864986499,0,0)" xlink:href="#aH"/><use transform="matrix(0.03998649864986499,0,0,0.03998649864986499,9.596759675967597,0)" xlink:href="#U"/><use transform="matrix(0.03998649864986499,0,0,0.03998649864986499,12.755693069306929,0)" xlink:href="#ac"/><use transform="matrix(0.03998649864986499,0,0,0.03998649864986499,16.75434293429343,0)" xlink:href="#T"/><use transform="matrix(0.03998649864986499,0,0,0.03998649864986499,24.75164266426643,0)" xlink:href="#ab"/><use transform="matrix(0.03998649864986499,0,0,0.03998649864986499,29.510036003600362,0)" xlink:href="#X"/><use transform="matrix(0.03998649864986499,0,0,0.03998649864986499,37.50733573357336,0)" xlink:href="#aa"/><use transform="matrix(0.03998649864986499,0,0,0.03998649864986499,45.50463546354637,0)" xlink:href="#ac"/><use transform="matrix(0.03998649864986499,0,0,0.03998649864986499,49.50328532853286,0)" xlink:href="#W"/><use transform="matrix(0.03998649864986499,0,0,0.03998649864986499,52.66221872187219,0)" xlink:href="#aI"/><use transform="matrix(0.03998649864986499,0,0,0.03998649864986499,59.85978847884789,0)" xlink:href="#T"/></g><path fill="#3a414a" d="M26 75v-336h71v23H56V52h41v23H26" id="aJ"/><g id="y"><use transform="matrix(0.03998649864986499,0,0,0.03998649864986499,0,0)" xlink:href="#aJ"/><use transform="matrix(0.03998649864986499,0,0,0.03998649864986499,3.998649864986499,0)" xlink:href="#S"/><use transform="matrix(0.03998649864986499,0,0,0.03998649864986499,14.355153015301532,0)" xlink:href="#T"/><use transform="matrix(0.03998649864986499,0,0,0.03998649864986499,22.35245274527453,0)" xlink:href="#ag"/><use transform="matrix(0.03998649864986499,0,0,0.03998649864986499,29.55002250225023,0)" xlink:href="#T"/><use transform="matrix(0.03998649864986499,0,0,0.03998649864986499,37.54732223222323,0)" xlink:href="#W"/><use transform="matrix(0.03998649864986499,0,0,0.03998649864986499,40.70625562556256,0)" xlink:href="#aI"/><use transform="matrix(0.03998649864986499,0,0,0.03998649864986499,47.90382538253826,0)" xlink:href="#T"/><use transform="matrix(0.03998649864986499,0,0,0.03998649864986499,55.90112511251126,0)" xlink:href="#ah"/></g><g id="z"><use transform="matrix(0.03998649864986499,0,0,0.03998649864986499,0,0)" xlink:href="#ag"/><use transform="matrix(0.03998649864986499,0,0,0.03998649864986499,7.197569756975699,0)" xlink:href="#af"/><use transform="matrix(0.03998649864986499,0,0,0.03998649864986499,15.194869486948697,0)" xlink:href="#X"/><use transform="matrix(0.03998649864986499,0,0,0.03998649864986499,23.192169216921695,0)" xlink:href="#am"/><use transform="matrix(0.03998649864986499,0,0,0.03998649864986499,30.389738973897394,0)" xlink:href="#T"/><use transform="matrix(0.03998649864986499,0,0,0.03998649864986499,38.387038703870395,0)" xlink:href="#X"/><use transform="matrix(0.03998649864986499,0,0,0.03998649864986499,46.384338433843396,0)" xlink:href="#ac"/></g><path fill="#3a414a" d="M3 75V52h41v-290H3v-23h71V75H3" id="aK"/><g id="A"><use transform="matrix(0.03998649864986499,0,0,0.03998649864986499,0,0)" xlink:href="#aj"/><use transform="matrix(0.03998649864986499,0,0,0.03998649864986499,11.955963096309633,0)" xlink:href="#T"/><use transform="matrix(0.03998649864986499,0,0,0.03998649864986499,19.953262826282632,0)" xlink:href="#am"/><use transform="matrix(0.03998649864986499,0,0,0.03998649864986499,27.15083258325833,0)" xlink:href="#am"/><use transform="matrix(0.03998649864986499,0,0,0.03998649864986499,34.34840234023403,0)" xlink:href="#aa"/><use transform="matrix(0.03998649864986499,0,0,0.03998649864986499,42.34570207020703,0)" xlink:href="#Y"/><use transform="matrix(0.03998649864986499,0,0,0.03998649864986499,50.34300180018003,0)" xlink:href="#T"/><use transform="matrix(0.03998649864986499,0,0,0.03998649864986499,58.34030153015303,0)" xlink:href="#aK"/></g><path fill="#3a414a" d="M190 0L58-211 59 0H30v-248h39L202-35l-2-213h31V0h-41" id="aL"/><g id="B"><use transform="matrix(0.03998649864986499,0,0,0.03998649864986499,0,0)" xlink:href="#aJ"/><use transform="matrix(0.03998649864986499,0,0,0.03998649864986499,3.998649864986499,0)" xlink:href="#aL"/><use transform="matrix(0.03998649864986499,0,0,0.03998649864986499,14.355153015301532,0)" xlink:href="#af"/></g><path fill="#3a414a" d="M24-248c120-7 223 5 221 122C244-46 201 0 124 0H24v-248zM76-40c74 7 117-18 117-86 0-67-45-88-117-82v168" id="aM"/><path fill="#3a414a" d="M123 10C108 53 80 86 19 72V37c35 8 53-11 59-39L3-190h52l48 148c12-52 28-100 44-148h51" id="aN"/><g id="C"><use transform="matrix(0.03998649864986499,0,0,0.03998649864986499,0,0)" xlink:href="#aM"/><use transform="matrix(0.03998649864986499,0,0,0.03998649864986499,10.356503150315033,0)" xlink:href="#ax"/><use transform="matrix(0.03998649864986499,0,0,0.03998649864986499,14.355153015301532,0)" xlink:href="#as"/><use transform="matrix(0.03998649864986499,0,0,0.03998649864986499,22.35245274527453,0)" xlink:href="#aE"/><use transform="matrix(0.03998649864986499,0,0,0.03998649864986499,31.10949594959496,0)" xlink:href="#az"/><use transform="matrix(0.03998649864986499,0,0,0.03998649864986499,35.10814581458146,0)" xlink:href="#av"/><use transform="matrix(0.03998649864986499,0,0,0.03998649864986499,43.105445544554456,0)" xlink:href="#aN"/></g><g id="D"><use transform="matrix(0.03998649864986499,0,0,0.03998649864986499,0,0)" xlink:href="#au"/><use transform="matrix(0.03998649864986499,0,0,0.03998649864986499,7.997299729972998,0)" xlink:href="#aA"/><use transform="matrix(0.03998649864986499,0,0,0.03998649864986499,16.75434293429343,0)" xlink:href="#aw"/><use transform="matrix(0.03998649864986499,0,0,0.03998649864986499,25.511386138613858,0)" xlink:href="#as"/><use transform="matrix(0.03998649864986499,0,0,0.03998649864986499,33.50868586858686,0)" xlink:href="#ap"/><use transform="matrix(0.03998649864986499,0,0,0.03998649864986499,41.50598559855986,0)" xlink:href="#aw"/><use transform="matrix(0.03998649864986499,0,0,0.03998649864986499,50.26302880288029,0)" xlink:href="#at"/></g><g id="E"><use transform="matrix(0.03998649864986499,0,0,0.03998649864986499,0,0)" xlink:href="#aB"/><use transform="matrix(0.03998649864986499,0,0,0.03998649864986499,12.795679567956796,0)" xlink:href="#ap"/><use transform="matrix(0.03998649864986499,0,0,0.03998649864986499,20.792979297929794,0)" xlink:href="#as"/><use transform="matrix(0.03998649864986499,0,0,0.03998649864986499,28.790279027902795,0)" xlink:href="#as"/><use transform="matrix(0.03998649864986499,0,0,0.03998649864986499,36.78757875787579,0)" xlink:href="#av"/><use transform="matrix(0.03998649864986499,0,0,0.03998649864986499,44.784878487848786,0)" xlink:href="#aC"/><use transform="matrix(0.03998649864986499,0,0,0.03998649864986499,53.541921692169225,0)" xlink:href="#ap"/></g><path fill="#3a414a" d="M231 0h-52l-39-155L100 0H48L-1-190h46L77-45c9-52 24-97 36-145h53l37 145 32-145h46" id="aO"/><g id="F"><use transform="matrix(0.03998649864986499,0,0,0.03998649864986499,0,0)" xlink:href="#aO"/><use transform="matrix(0.03998649864986499,0,0,0.03998649864986499,11.196219621962197,0)" xlink:href="#av"/><use transform="matrix(0.03998649864986499,0,0,0.03998649864986499,19.193519351935194,0)" xlink:href="#ay"/><use transform="matrix(0.03998649864986499,0,0,0.03998649864986499,24.791629162916294,0)" xlink:href="#aw"/><use transform="matrix(0.03998649864986499,0,0,0.03998649864986499,33.548672367236726,0)" xlink:href="#ax"/><use transform="matrix(0.03998649864986499,0,0,0.03998649864986499,37.54732223222322,0)" xlink:href="#aw"/><use transform="matrix(0.03998649864986499,0,0,0.03998649864986499,46.30436543654366,0)" xlink:href="#aC"/></g><path fill="#3a414a" d="M199 0l-22-63H83L61 0H9l90-248h61L250 0h-51zm-33-102l-36-108c-10 38-24 72-36 108h72" id="aP"/><path fill="#3a414a" d="M128 0H69L1-190h53L99-40l48-150h52" id="aQ"/><g id="G"><use transform="matrix(0.03998649864986499,0,0,0.03998649864986499,0,0)" xlink:href="#aP"/><use transform="matrix(0.03998649864986499,0,0,0.03998649864986499,10.356503150315033,0)" xlink:href="#aE"/><use transform="matrix(0.03998649864986499,0,0,0.03998649864986499,19.113546354635467,0)" xlink:href="#aE"/><use transform="matrix(0.03998649864986499,0,0,0.03998649864986499,27.8705895589559,0)" xlink:href="#ay"/><use transform="matrix(0.03998649864986499,0,0,0.03998649864986499,33.468699369937,0)" xlink:href="#aA"/><use transform="matrix(0.03998649864986499,0,0,0.03998649864986499,42.22574257425743,0)" xlink:href="#aQ"/><use transform="matrix(0.03998649864986499,0,0,0.03998649864986499,50.223042304230425,0)" xlink:href="#ap"/></g><path fill="#3a414a" d="M4 7l51-268h42L46 7H4" id="aR"/><use transform="matrix(0.03998649864986499,0,0,0.03998649864986499,0,0)" xlink:href="#aR" id="H"/><path fill="#3a414a" d="M25-224v-37h50v37H25zM75 22c2 45-34 59-81 51V38c22 5 31-5 31-27v-201h50V22" id="aS"/><g id="I"><use transform="matrix(0.03998649864986499,0,0,0.03998649864986499,0,0)" xlink:href="#ay"/><use transform="matrix(0.03998649864986499,0,0,0.03998649864986499,5.598109810981098,0)" xlink:href="#ap"/><use transform="matrix(0.03998649864986499,0,0,0.03998649864986499,13.595409540954098,0)" xlink:href="#aS"/><use transform="matrix(0.03998649864986499,0,0,0.03998649864986499,17.594059405940598,0)" xlink:href="#ap"/><use transform="matrix(0.03998649864986499,0,0,0.03998649864986499,25.591359135913592,0)" xlink:href="#au"/><use transform="matrix(0.03998649864986499,0,0,0.03998649864986499,33.58865886588659,0)" xlink:href="#at"/></g><g id="J"><use transform="matrix(0.03998649864986499,0,0,0.03998649864986499,0,0)" xlink:href="#au"/><use transform="matrix(0.03998649864986499,0,0,0.03998649864986499,7.997299729972998,0)" xlink:href="#av"/><use transform="matrix(0.03998649864986499,0,0,0.03998649864986499,15.994599459945997,0)" xlink:href="#aw"/><use transform="matrix(0.03998649864986499,0,0,0.03998649864986499,24.75164266426643,0)" xlink:href="#ax"/><use transform="matrix(0.03998649864986499,0,0,0.03998649864986499,28.750292529252928,0)" xlink:href="#as"/><use transform="matrix(0.03998649864986499,0,0,0.03998649864986499,36.747592259225925,0)" xlink:href="#at"/><use transform="matrix(0.03998649864986499,0,0,0.03998649864986499,41.50598559855986,0)" xlink:href="#ap"/><use transform="matrix(0.03998649864986499,0,0,0.03998649864986499,49.50328532853286,0)" xlink:href="#ay"/></g><g id="K"><use transform="matrix(0.03998649864986499,0,0,0.03998649864986499,0,0)" xlink:href="#aJ"/><use transform="matrix(0.03998649864986499,0,0,0.03998649864986499,3.998649864986499,0)" xlink:href="#aH"/><use transform="matrix(0.03998649864986499,0,0,0.03998649864986499,13.595409540954098,0)" xlink:href="#ak"/><use transform="matrix(0.03998649864986499,0,0,0.03998649864986499,21.592709270927095,0)" xlink:href="#ak"/><use transform="matrix(0.03998649864986499,0,0,0.03998649864986499,29.590009000900093,0)" xlink:href="#ab"/><use transform="matrix(0.03998649864986499,0,0,0.03998649864986499,34.348402340234024,0)" xlink:href="#af"/><use transform="matrix(0.03998649864986499,0,0,0.03998649864986499,42.345702070207025,0)" xlink:href="#aI"/><use transform="matrix(0.03998649864986499,0,0,0.03998649864986499,49.54327182718272,0)" xlink:href="#T"/><use transform="matrix(0.03998649864986499,0,0,0.03998649864986499,57.54057155715572,0)" xlink:href="#ah"/><use transform="matrix(0.03998649864986499,0,0,0.03998649864986499,65.53787128712872,0)" xlink:href="#aK"/></g><path fill="#3a414a" d="M24-231v-30h32v30H24zM-9 49c24 4 33-6 33-30v-209h32V24c2 40-23 58-65 49V49" id="aT"/><g id="L"><use transform="matrix(0.03998649864986499,0,0,0.03998649864986499,0,0)" xlink:href="#aJ"/><use transform="matrix(0.03998649864986499,0,0,0.03998649864986499,3.998649864986499,0)" xlink:href="#S"/><use transform="matrix(0.03998649864986499,0,0,0.03998649864986499,14.355153015301532,0)" xlink:href="#T"/><use transform="matrix(0.03998649864986499,0,0,0.03998649864986499,22.35245274527453,0)" xlink:href="#aT"/><use transform="matrix(0.03998649864986499,0,0,0.03998649864986499,25.511386138613865,0)" xlink:href="#T"/><use transform="matrix(0.03998649864986499,0,0,0.03998649864986499,33.508685868586866,0)" xlink:href="#ag"/><use transform="matrix(0.03998649864986499,0,0,0.03998649864986499,40.70625562556256,0)" xlink:href="#ac"/><use transform="matrix(0.03998649864986499,0,0,0.03998649864986499,44.70490549054906,0)" xlink:href="#T"/><use transform="matrix(0.03998649864986499,0,0,0.03998649864986499,52.70220522052206,0)" xlink:href="#ah"/><use transform="matrix(0.03998649864986499,0,0,0.03998649864986499,60.69950495049506,0)" xlink:href="#aK"/></g><g id="M"><use transform="matrix(0.03998649864986499,0,0,0.03998649864986499,0,0)" xlink:href="#as"/><use transform="matrix(0.03998649864986499,0,0,0.03998649864986499,7.997299729972998,0)" xlink:href="#ax"/><use transform="matrix(0.03998649864986499,0,0,0.03998649864986499,11.995949594959496,0)" xlink:href="#aC"/><use transform="matrix(0.03998649864986499,0,0,0.03998649864986499,20.75299279927993,0)" xlink:href="#aw"/></g><path fill="#3a414a" d="M136-208V0H84v-208H4v-40h212v40h-80" id="aU"/><path fill="#3a414a" d="M121-226c-27-7-43 5-38 36h38v33H83V0H34v-157H6v-33h28c-9-59 32-81 87-68v32" id="aV"/><g id="N"><use transform="matrix(0.03998649864986499,0,0,0.03998649864986499,0,0)" xlink:href="#aU"/><use transform="matrix(0.03998649864986499,0,0,0.03998649864986499,7.957313231323132,0)" xlink:href="#ay"/><use transform="matrix(0.03998649864986499,0,0,0.03998649864986499,13.555423042304229,0)" xlink:href="#av"/><use transform="matrix(0.03998649864986499,0,0,0.03998649864986499,21.552722772277228,0)" xlink:href="#aw"/><use transform="matrix(0.03998649864986499,0,0,0.03998649864986499,30.309765976597657,0)" xlink:href="#as"/><use transform="matrix(0.03998649864986499,0,0,0.03998649864986499,38.30706570657066,0)" xlink:href="#aV"/><use transform="matrix(0.03998649864986499,0,0,0.03998649864986499,43.065459045904596,0)" xlink:href="#ap"/><use transform="matrix(0.03998649864986499,0,0,0.03998649864986499,51.06275877587759,0)" xlink:href="#ay"/></g><g id="O"><use transform="matrix(0.03998649864986499,0,0,0.03998649864986499,0,0)" xlink:href="#as"/><use transform="matrix(0.03998649864986499,0,0,0.03998649864986499,7.997299729972998,0)" xlink:href="#ax"/><use transform="matrix(0.03998649864986499,0,0,0.03998649864986499,11.995949594959496,0)" xlink:href="#aC"/><use transform="matrix(0.03998649864986499,0,0,0.03998649864986499,20.75299279927993,0)" xlink:href="#aw"/><use transform="matrix(0.03998649864986499,0,0,0.03998649864986499,29.510036003600362,0)" xlink:href="#ap"/><use transform="matrix(0.03998649864986499,0,0,0.03998649864986499,37.50733573357336,0)" xlink:href="#aG"/></g><path fill="#3a414a" d="M169-182c-1-43-94-46-97-3 18 66 151 10 154 114 3 95-165 93-204 36-6-8-10-19-12-30l50-8c3 46 112 56 116 5-17-69-150-10-154-114-4-87 153-88 188-35 5 8 8 18 10 28" id="aW"/><path fill="#3a414a" d="M135-194c52 0 70 43 70 98 0 56-19 99-73 100-30 1-46-15-58-35L72 0H24l1-261h50v104c11-23 29-37 60-37zM114-30c31 0 40-27 40-66 0-37-7-63-39-63s-41 28-41 65c0 36 8 64 40 64" id="aX"/><g id="P"><use transform="matrix(0.03998649864986499,0,0,0.03998649864986499,0,0)" xlink:href="#aW"/><use transform="matrix(0.03998649864986499,0,0,0.03998649864986499,9.596759675967597,0)" xlink:href="#ar"/><use transform="matrix(0.03998649864986499,0,0,0.03998649864986499,18.35380288028803,0)" xlink:href="#aX"/><use transform="matrix(0.03998649864986499,0,0,0.03998649864986499,27.110846084608458,0)" xlink:href="#aB"/><use transform="matrix(0.03998649864986499,0,0,0.03998649864986499,39.90652565256526,0)" xlink:href="#ax"/><use transform="matrix(0.03998649864986499,0,0,0.03998649864986499,43.90517551755175,0)" xlink:href="#at"/></g><g id="Q"><use transform="matrix(0.03998649864986499,0,0,0.03998649864986499,0,0)" xlink:href="#ao"/><use transform="matrix(0.03998649864986499,0,0,0.03998649864986499,10.356503150315033,0)" xlink:href="#ap"/><use transform="matrix(0.03998649864986499,0,0,0.03998649864986499,18.353802880288033,0)" xlink:href="#aS"/><use transform="matrix(0.03998649864986499,0,0,0.03998649864986499,22.352452745274533,0)" xlink:href="#ap"/><use transform="matrix(0.03998649864986499,0,0,0.03998649864986499,30.34975247524753,0)" xlink:href="#au"/><use transform="matrix(0.03998649864986499,0,0,0.03998649864986499,38.34705220522053,0)" xlink:href="#at"/><use transform="matrix(0.03998649864986499,0,0,0.03998649864986499,43.105445544554456,0)" xlink:href="#ax"/><use transform="matrix(0.03998649864986499,0,0,0.03998649864986499,47.10409540954096,0)" xlink:href="#aA"/><use transform="matrix(0.03998649864986499,0,0,0.03998649864986499,55.86113861386139,0)" xlink:href="#aw"/></g><g id="R"><use transform="matrix(0.03998649864986499,0,0,0.03998649864986499,0,0)" xlink:href="#ay"/><use transform="matrix(0.03998649864986499,0,0,0.03998649864986499,5.598109810981098,0)" xlink:href="#ap"/><use transform="matrix(0.03998649864986499,0,0,0.03998649864986499,13.595409540954098,0)" xlink:href="#as"/><use transform="matrix(0.03998649864986499,0,0,0.03998649864986499,21.592709270927095,0)" xlink:href="#aE"/><use transform="matrix(0.03998649864986499,0,0,0.03998649864986499,30.349752475247527,0)" xlink:href="#aA"/><use transform="matrix(0.03998649864986499,0,0,0.03998649864986499,39.10679567956796,0)" xlink:href="#aw"/><use transform="matrix(0.03998649864986499,0,0,0.03998649864986499,47.86383888388839,0)" xlink:href="#as"/><use transform="matrix(0.03998649864986499,0,0,0.03998649864986499,55.86113861386139,0)" xlink:href="#ap"/></g></defs></g></svg>