<svg xmlns="http://www.w3.org/2000/svg" xmlns:xlink="http://www.w3.org/1999/xlink" xmlns:lucid="lucid" width="1160.2"
     height="740">
    <rect width="100%" height="100%" fill="white" />
    <g transform="translate(-140 -80)" lucid:page-tab-id="0_0">
        <path d="M620.5 200.95v5.03m0 5.03v10.08m0 5.03v10.07m0 5.03v10.06m0 5.04v10.06m0 5.03v10.05m0 5.03v10.07m0 5.03v10.06m0 5.03v10.06m0 5.03v10.07m0 5.03v10.06m0 5.03v10.07m0 5.03v10.06m0 5.04v10.06m0 5.03v10.07m0 5.03v10.06m0 5.02v10.06m0 5.04v10.06m0 5.03v10.07m0 5.03v10.07m0 5.03v10.06m0 5.03v10.05m0 5.03v10.07m0 5.03v10.06m0 5.03v10.07m0 5.03v10.06m0 5.03v10.06m0 5.03v10.07m0 5.03v10.06m0 5.04v10.06m0 5.04v10.06m0 5.03v10.06m0 5.02V689m0 5.02v5.03"
              stroke="#333" fill="none"/>
        <path d="M621 200.96h-1v-.5h1zM621 699.55h-1v-.5h1z" stroke="#333" stroke-width=".05" fill="#333"/>
        <path d="M220 200.95v5.03m0 5.03v10.08m0 5.03v10.07m0 5.03v10.06m0 5.04v10.06m0 5.03v10.05m0 5.03v10.07m0 5.03v10.06m0 5.03v10.06m0 5.03v10.07m0 5.03v10.06m0 5.03v10.07m0 5.03v10.06m0 5.04v10.06m0 5.03v10.07m0 5.03v10.06m0 5.02v10.06m0 5.04v10.06m0 5.03v10.07m0 5.03v10.07m0 5.03v10.06m0 5.03v10.05m0 5.03v10.07m0 5.03v10.06m0 5.03v10.07m0 5.03v10.06m0 5.03v10.06m0 5.03v10.07m0 5.03v10.06m0 5.04v10.06m0 5.04v10.06m0 5.03v10.06m0 5.02V689m0 5.02v5.03"
              stroke="#333" fill="none"/>
        <path d="M220.5 200.96h-1v-.5h1zM220.5 699.55h-1v-.5h1z" stroke="#333" stroke-width=".05" fill="#333"/>
        <path d="M1220.2 200.95v5.03m0 5.03v10.08m0 5.03v10.07m0 5.03v10.06m0 5.04v10.06m0 5.03v10.05m0 5.03v10.07m0 5.03v10.06m0 5.03v10.06m0 5.03v10.07m0 5.03v10.06m0 5.03v10.07m0 5.03v10.06m0 5.04v10.06m0 5.03v10.07m0 5.03v10.06m0 5.02v10.06m0 5.04v10.06m0 5.03v10.07m0 5.03v10.07m0 5.03v10.06m0 5.03v10.05m0 5.03v10.07m0 5.03v10.06m0 5.03v10.07m0 5.03v10.06m0 5.03v10.06m0 5.03v10.07m0 5.03v10.06m0 5.04v10.06m0 5.04v10.06m0 5.03v10.06m0 5.02V689m0 5.02v5.03"
              stroke="#333" fill="none"/>
        <path d="M1220.7 200.96h-1v-.5h1zM1220.7 699.55h-1v-.5h1z" stroke="#333" stroke-width=".05" fill="#333"/>
        <path d="M160 108a8 8 0 0 1 8-8h104a8 8 0 0 1 8 8v84a8 8 0 0 1-8 8H168a8 8 0 0 1-8-8z" stroke="#333"
              fill="#fff"/>
        <use xlink:href="#a" transform="matrix(1,0,0,1,160,100) translate(41.055 55.025)"/>
        <path d="M955.95 200.95v5.03m0 5.03v10.08m0 5.03v10.07m0 5.03v10.06m0 5.04v10.06m0 5.03v10.05m0 5.03v10.07m0 5.03v10.06m0 5.03v10.06m0 5.03v10.07m0 5.03v10.06m0 5.03v10.07m0 5.03v10.06m0 5.04v10.06m0 5.03v10.07m0 5.03v10.06m0 5.02v10.06m0 5.04v10.06m0 5.03v10.07m0 5.03v10.07m0 5.03v10.06m0 5.03v10.05m0 5.03v10.07m0 5.03v10.06m0 5.03v10.07m0 5.03v10.06m0 5.03v10.06m0 5.03v10.07m0 5.03v10.06m0 5.04v10.06m0 5.04v10.06m0 5.03v10.06m0 5.02V689m0 5.02v5.03"
              stroke="#333" fill="none"/>
        <path d="M956.45 200.96h-1v-.5h1zM956.45 699.55h-1v-.5h1z" stroke="#333" stroke-width=".05" fill="#333"/>
        <path d="M160 708a8 8 0 0 1 8-8h104a8 8 0 0 1 8 8v84a8 8 0 0 1-8 8H168a8 8 0 0 1-8-8z" stroke="#333"
              fill="#fff"/>
        <use xlink:href="#a" transform="matrix(1,0,0,1,160,700) translate(41.055 55.025)"/>
        <path d="M560.5 108a8 8 0 0 1 8-8h104a8 8 0 0 1 8 8v84a8 8 0 0 1-8 8h-104a8 8 0 0 1-8-8z" stroke="#333"
              fill="#fff"/>
        <use xlink:href="#b" transform="matrix(1,0,0,1,560.5,100) translate(18.57999999999999 55.025)"/>
        <path d="M560.5 708a8 8 0 0 1 8-8h104a8 8 0 0 1 8 8v84a8 8 0 0 1-8 8h-104a8 8 0 0 1-8-8z" stroke="#333"
              fill="#fff"/>
        <use xlink:href="#b" transform="matrix(1,0,0,1,560.5,700) translate(18.57999999999999 55.025)"/>
        <path d="M895.95 108a8 8 0 0 1 8-8h104a8 8 0 0 1 8 8v84a8 8 0 0 1-8 8h-104a8 8 0 0 1-8-8z" stroke="#333"
              fill="#fff"/>
        <use xlink:href="#c" transform="matrix(1,0,0,1,895.95,100) translate(31.03 42.525)"/>
        <use xlink:href="#d" transform="matrix(1,0,0,1,895.95,100) translate(26.57999999999999 64.125)"/>
        <path d="M895.95 708a8 8 0 0 1 8-8h104a8 8 0 0 1 8 8v84a8 8 0 0 1-8 8h-104a8 8 0 0 1-8-8z" stroke="#333"
              fill="#fff"/>
        <use xlink:href="#c" transform="matrix(1,0,0,1,895.95,700) translate(31.03 42.525)"/>
        <use xlink:href="#d" transform="matrix(1,0,0,1,895.95,700) translate(26.57999999999999 64.125)"/>
        <path d="M1160.2 108a8 8 0 0 1 8-8h104a8 8 0 0 1 8 8v84a8 8 0 0 1-8 8h-104a8 8 0 0 1-8-8z" stroke="#333"
              fill="#fff"/>
        <use xlink:href="#e" transform="matrix(1,0,0,1,1160.2,100) translate(30.054999999999993 42.525)"/>
        <use xlink:href="#d" transform="matrix(1,0,0,1,1160.2,100) translate(26.57999999999999 64.125)"/>
        <path d="M1160.2 708a8 8 0 0 1 8-8h104a8 8 0 0 1 8 8v84a8 8 0 0 1-8 8h-104a8 8 0 0 1-8-8z" stroke="#333"
              fill="#fff"/>
        <use xlink:href="#e" transform="matrix(1,0,0,1,1160.2,700) translate(30.054999999999993 42.525)"/>
        <use xlink:href="#d" transform="matrix(1,0,0,1,1160.2,700) translate(26.57999999999999 64.125)"/>
        <path d="M220.5 260.34h383.62M220.5 260.34h-.5" stroke="#333" fill="none"/>
        <path d="M618.88 260.34l-14.26 4.64v-9.27z" stroke="#333" fill="#333"/>
        <use xlink:href="#f"
             transform="matrix(1,0,0,1,358.7507650765078,239.06881851608438) translate(0 11.516111611161117)"/>
        <use xlink:href="#g"
             transform="matrix(1,0,0,1,358.7507650765078,239.06881851608438) translate(54.34165166516653 11.516111611161117)"/>
        <path d="M621 340.2h318.57M621 340.2h-.5" stroke="#333" fill="none"/>
        <path d="M954.33 340.2l-14.26 4.63v-9.27z" stroke="#333" fill="#333"/>
        <use xlink:href="#h"
             transform="matrix(1,0,0,1,686.0794891989199,301.65023596973174) translate(0 11.516111611161117)"/>
        <use xlink:href="#i"
             transform="matrix(1,0,0,1,686.0794891989199,301.65023596973174) translate(50.2630288028803 11.516111611161117)"/>
        <use xlink:href="#j"
             transform="matrix(1,0,0,1,686.0794891989199,301.65023596973174) translate(130.91579657965798 11.516111611161117)"/>
        <use xlink:href="#k"
             transform="matrix(1,0,0,1,686.0794891989199,301.65023596973174) translate(0 28.79027902790279)"/>
        <use xlink:href="#l"
             transform="matrix(1,0,0,1,686.0794891989199,301.65023596973174) translate(59.10004500450046 28.79027902790279)"/>
        <use xlink:href="#m"
             transform="matrix(1,0,0,1,686.0794891989199,301.65023596973174) translate(91.80900090009001 28.79027902790279)"/>
        <use xlink:href="#n"
             transform="matrix(1,0,0,1,686.0794891989199,301.65023596973174) translate(146.83042304230423 28.79027902790279)"/>
        <path d="M956.45 420.05h247.37M956.46 420.05h-.5" stroke="#333" fill="none"/>
        <path d="M1218.58 420.05l-14.26 4.64v-9.28z" stroke="#333" fill="#333"/>
        <use xlink:href="#o"
             transform="matrix(1,0,0,1,980.291392889289,381.5058208401208) translate(0 11.516111611161117)"/>
        <use xlink:href="#p"
             transform="matrix(1,0,0,1,980.291392889289,381.5058208401208) translate(58.30031503150316 11.516111611161117)"/>
        <use xlink:href="#q"
             transform="matrix(1,0,0,1,980.291392889289,381.5058208401208) translate(130.91579657965798 11.516111611161117)"/>
        <use xlink:href="#r"
             transform="matrix(1,0,0,1,980.291392889289,381.5058208401208) translate(0 28.79027902790279)"/>
        <use xlink:href="#s"
             transform="matrix(1,0,0,1,980.291392889289,381.5058208401208) translate(54.26167866786679 28.79027902790279)"/>
        <use xlink:href="#t"
             transform="matrix(1,0,0,1,980.291392889289,381.5058208401208) translate(118.99981998199821 28.79027902790279)"/>
        <path d="M955.45 479.95H236.38M955.44 479.95h.5" stroke="#333" fill="none"/>
        <path d="M221.62 479.95l14.26-4.64v9.28z" stroke="#333" fill="#333"/>
        <g>
            <use xlink:href="#u"
                 transform="matrix(1,0,0,1,462.25744824482473,458.67167690965425) translate(0 11.516111611161117)"/>
            <use xlink:href="#p"
                 transform="matrix(1,0,0,1,462.25744824482473,458.67167690965425) translate(42.30571557155715 11.516111611161117)"/>
            <use xlink:href="#v"
                 transform="matrix(1,0,0,1,462.25744824482473,458.67167690965425) translate(114.92119711971199 11.516111611161117)"/>
            <use xlink:href="#w"
                 transform="matrix(1,0,0,1,462.25744824482473,458.67167690965425) translate(203.57126462646266 11.516111611161117)"/>
            <use xlink:href="#x"
                 transform="matrix(1,0,0,1,462.25744824482473,458.67167690965425) translate(221.08535103510354 11.516111611161117)"/>
        </g>
        <path d="M236.38 539.84h703.2" stroke="#333" fill="none"/>
        <path d="M221.62 539.84l14.26-4.64v9.27zM954.33 539.84l-14.26 4.63v-9.27z" stroke="#333" fill="#333"/>
        <g>
            <use xlink:href="#y"
                 transform="matrix(1,0,0,1,427.609147164717,518.5633655624459) translate(0 11.516111611161117)"/>
            <use xlink:href="#z"
                 transform="matrix(1,0,0,1,427.609147164717,518.5633655624459) translate(90.88931143114313 11.516111611161117)"/>
            <use xlink:href="#A"
                 transform="matrix(1,0,0,1,427.609147164717,518.5633655624459) translate(120.39934743474349 11.516111611161117)"/>
            <use xlink:href="#B"
                 transform="matrix(1,0,0,1,427.609147164717,518.5633655624459) translate(188.21644914491452 11.516111611161117)"/>
            <use xlink:href="#C"
                 transform="matrix(1,0,0,1,427.609147164717,518.5633655624459) translate(268.8692169216922 11.516111611161117)"/>
        </g>
        <path d="M955.45 599.73H636.88M955.44 599.73h.5" stroke="#333" fill="none"/>
        <path d="M622.12 599.73l14.26-4.64v9.26z" stroke="#333" fill="#333"/>
        <g>
            <use xlink:href="#D"
                 transform="matrix(1,0,0,1,733.9233348334834,578.4550542152379) translate(0 11.516111611161117)"/>
            <use xlink:href="#E"
                 transform="matrix(1,0,0,1,733.9233348334834,578.4550542152379) translate(40.74624212421242 11.516111611161117)"/>
        </g>
        <path d="M621 659.62h582.82M621 659.62h-.5" stroke="#333" fill="none"/>
        <path d="M1218.58 659.62l-14.26 4.64V655z" stroke="#333" fill="#333"/>
        <g>
            <use xlink:href="#f"
                 transform="matrix(1,0,0,1,786.9550405040504,638.3467428680297) translate(0 11.516111611161117)"/>
            <use xlink:href="#F"
                 transform="matrix(1,0,0,1,786.9550405040504,638.3467428680297) translate(54.34165166516653 11.516111611161117)"/>
            <use xlink:href="#G"
                 transform="matrix(1,0,0,1,786.9550405040504,638.3467428680297) translate(107.92355985598562 11.516111611161117)"/>
            <use xlink:href="#H"
                 transform="matrix(1,0,0,1,786.9550405040504,638.3467428680297) translate(140.63251575157517 11.516111611161117)"/>
            <use xlink:href="#t"
                 transform="matrix(1,0,0,1,786.9550405040504,638.3467428680297) translate(182.13850135013502 11.516111611161117)"/>
        </g>
        <defs>
            <path fill="#333"
                  d="M232-93c-1 65-40 97-104 97C67 4 28-28 28-90v-158h33c8 89-33 224 67 224 102 0 64-133 71-224h33v155"
                  id="I"/>
            <path fill="#333"
                  d="M135-143c-3-34-86-38-87 0 15 53 115 12 119 90S17 21 10-45l28-5c4 36 97 45 98 0-10-56-113-15-118-90-4-57 82-63 122-42 12 7 21 19 24 35"
                  id="J"/>
            <path fill="#333"
                  d="M100-194c63 0 86 42 84 106H49c0 40 14 67 53 68 26 1 43-12 49-29l28 8c-11 28-37 45-77 45C44 4 14-33 15-96c1-61 26-98 85-98zm52 81c6-60-76-77-97-28-3 7-6 17-6 28h103"
                  id="K"/>
            <path fill="#333" d="M114-163C36-179 61-72 57 0H25l-1-190h30c1 12-1 29 2 39 6-27 23-49 58-41v29" id="L"/>
            <g id="a">
                <use transform="matrix(0.05,0,0,0.05,0,0)" xlink:href="#I"/>
                <use transform="matrix(0.05,0,0,0.05,12.950000000000001,0)" xlink:href="#J"/>
                <use transform="matrix(0.05,0,0,0.05,21.950000000000003,0)" xlink:href="#K"/>
                <use transform="matrix(0.05,0,0,0.05,31.950000000000003,0)" xlink:href="#L"/>
            </g>
            <path fill="#333"
                  d="M212-179c-10-28-35-45-73-45-59 0-87 40-87 99 0 60 29 101 89 101 43 0 62-24 78-52l27 14C228-24 195 4 139 4 59 4 22-46 18-125c-6-104 99-153 187-111 19 9 31 26 39 46"
                  id="M"/>
            <path fill="#333"
                  d="M100-194c62-1 85 37 85 99 1 63-27 99-86 99S16-35 15-95c0-66 28-99 85-99zM99-20c44 1 53-31 53-75 0-43-8-75-51-75s-53 32-53 75 10 74 51 75"
                  id="N"/>
            <path fill="#333"
                  d="M117-194c89-4 53 116 60 194h-32v-121c0-31-8-49-39-48C34-167 62-67 57 0H25l-1-190h30c1 10-1 24 2 32 11-22 29-35 61-36"
                  id="O"/>
            <path fill="#333"
                  d="M84 4C-5 8 30-112 23-190h32v120c0 31 7 50 39 49 72-2 45-101 50-169h31l1 190h-30c-1-10 1-25-2-33-11 22-28 36-60 37"
                  id="P"/>
            <path fill="#333"
                  d="M210-169c-67 3-38 105-44 169h-31v-121c0-29-5-50-35-48C34-165 62-65 56 0H25l-1-190h30c1 10-1 24 2 32 10-44 99-50 107 0 11-21 27-35 58-36 85-2 47 119 55 194h-31v-121c0-29-5-49-35-48"
                  id="Q"/>
            <g id="b">
                <use transform="matrix(0.05,0,0,0.05,0,0)" xlink:href="#M"/>
                <use transform="matrix(0.05,0,0,0.05,12.950000000000001,0)" xlink:href="#N"/>
                <use transform="matrix(0.05,0,0,0.05,22.950000000000003,0)" xlink:href="#O"/>
                <use transform="matrix(0.05,0,0,0.05,32.95,0)" xlink:href="#J"/>
                <use transform="matrix(0.05,0,0,0.05,41.95,0)" xlink:href="#P"/>
                <use transform="matrix(0.05,0,0,0.05,51.95,0)" xlink:href="#Q"/>
                <use transform="matrix(0.05,0,0,0.05,66.9,0)" xlink:href="#K"/>
                <use transform="matrix(0.05,0,0,0.05,76.9,0)" xlink:href="#L"/>
            </g>
            <path fill="#333" d="M33 0v-248h34V0H33" id="R"/>
            <path fill="#333"
                  d="M85-194c31 0 48 13 60 33l-1-100h32l1 261h-30c-2-10 0-23-3-31C134-8 116 4 85 4 32 4 16-35 15-94c0-66 23-100 70-100zm9 24c-40 0-46 34-46 75 0 40 6 74 45 74 42 0 51-32 51-76 0-42-9-74-50-73"
                  id="S"/>
            <path fill="#333" d="M59-47c-2 24 18 29 38 22v24C64 9 27 4 27-40v-127H5v-23h24l9-43h21v43h35v23H59v120"
                  id="T"/>
            <path fill="#333" d="M24-231v-30h32v30H24zM24 0v-190h32V0H24" id="U"/>
            <path fill="#333" d="M179-190L93 31C79 59 56 82 12 73V49c39 6 53-20 64-50L1-190h34L92-34l54-156h33" id="V"/>
            <g id="c">
                <use transform="matrix(0.05,0,0,0.05,0,0)" xlink:href="#R"/>
                <use transform="matrix(0.05,0,0,0.05,5,0)" xlink:href="#S"/>
                <use transform="matrix(0.05,0,0,0.05,15,0)" xlink:href="#K"/>
                <use transform="matrix(0.05,0,0,0.05,25,0)" xlink:href="#O"/>
                <use transform="matrix(0.05,0,0,0.05,35,0)" xlink:href="#T"/>
                <use transform="matrix(0.05,0,0,0.05,40,0)" xlink:href="#U"/>
                <use transform="matrix(0.05,0,0,0.05,43.95,0)" xlink:href="#T"/>
                <use transform="matrix(0.05,0,0,0.05,48.95,0)" xlink:href="#V"/>
            </g>
            <path fill="#333"
                  d="M30-248c87 1 191-15 191 75 0 78-77 80-158 76V0H30v-248zm33 125c57 0 124 11 124-50 0-59-68-47-124-48v98"
                  id="W"/>
            <path fill="#333" d="M108 0H70L1-190h34L89-25l56-165h34" id="X"/>
            <g id="d">
                <use transform="matrix(0.05,0,0,0.05,0,0)" xlink:href="#W"/>
                <use transform="matrix(0.05,0,0,0.05,12,0)" xlink:href="#L"/>
                <use transform="matrix(0.05,0,0,0.05,17.95,0)" xlink:href="#N"/>
                <use transform="matrix(0.05,0,0,0.05,27.950000000000003,0)" xlink:href="#X"/>
                <use transform="matrix(0.05,0,0,0.05,36.95,0)" xlink:href="#U"/>
                <use transform="matrix(0.05,0,0,0.05,40.900000000000006,0)" xlink:href="#S"/>
                <use transform="matrix(0.05,0,0,0.05,50.900000000000006,0)" xlink:href="#K"/>
                <use transform="matrix(0.05,0,0,0.05,60.900000000000006,0)" xlink:href="#L"/>
            </g>
            <path fill="#333"
                  d="M185-189c-5-48-123-54-124 2 14 75 158 14 163 119 3 78-121 87-175 55-17-10-28-26-33-46l33-7c5 56 141 63 141-1 0-78-155-14-162-118-5-82 145-84 179-34 5 7 8 16 11 25"
                  id="Y"/>
            <path fill="#333"
                  d="M96-169c-40 0-48 33-48 73s9 75 48 75c24 0 41-14 43-38l32 2c-6 37-31 61-74 61-59 0-76-41-82-99-10-93 101-131 147-64 4 7 5 14 7 22l-32 3c-4-21-16-35-41-35"
                  id="Z"/>
            <g id="e">
                <use transform="matrix(0.05,0,0,0.05,0,0)" xlink:href="#Y"/>
                <use transform="matrix(0.05,0,0,0.05,12,0)" xlink:href="#K"/>
                <use transform="matrix(0.05,0,0,0.05,22,0)" xlink:href="#L"/>
                <use transform="matrix(0.05,0,0,0.05,27.950000000000003,0)" xlink:href="#X"/>
                <use transform="matrix(0.05,0,0,0.05,36.95,0)" xlink:href="#U"/>
                <use transform="matrix(0.05,0,0,0.05,40.900000000000006,0)" xlink:href="#Z"/>
                <use transform="matrix(0.05,0,0,0.05,49.900000000000006,0)" xlink:href="#K"/>
            </g>
            <path fill="#333" d="M199 0l-22-63H83L61 0H9l90-248h61L250 0h-51zm-33-102l-36-108c-10 38-24 72-36 108h72"
                  id="aa"/>
            <path fill="#333"
                  d="M190-63c-7 42-38 67-86 67-59 0-84-38-90-98-12-110 154-137 174-36l-49 2c-2-19-15-32-35-32-30 0-35 28-38 64-6 74 65 87 74 30"
                  id="ab"/>
            <path fill="#333"
                  d="M185-48c-13 30-37 53-82 52C43 2 14-33 14-96s30-98 90-98c62 0 83 45 84 108H66c0 31 8 55 39 56 18 0 30-7 34-22zm-45-69c5-46-57-63-70-21-2 6-4 13-4 21h74"
                  id="ac"/>
            <path fill="#333"
                  d="M137-138c1-29-70-34-71-4 15 46 118 7 119 86 1 83-164 76-172 9l43-7c4 19 20 25 44 25 33 8 57-30 24-41C81-84 22-81 20-136c-2-80 154-74 161-7"
                  id="ad"/>
            <g id="f">
                <use transform="matrix(0.03998649864986499,0,0,0.03998649864986499,0,0)" xlink:href="#aa"/>
                <use transform="matrix(0.03998649864986499,0,0,0.03998649864986499,10.356503150315033,0)"
                     xlink:href="#ab"/>
                <use transform="matrix(0.03998649864986499,0,0,0.03998649864986499,18.353802880288033,0)"
                     xlink:href="#ab"/>
                <use transform="matrix(0.03998649864986499,0,0,0.03998649864986499,26.35110261026103,0)"
                     xlink:href="#ac"/>
                <use transform="matrix(0.03998649864986499,0,0,0.03998649864986499,34.34840234023403,0)"
                     xlink:href="#ad"/>
                <use transform="matrix(0.03998649864986499,0,0,0.03998649864986499,42.34570207020703,0)"
                     xlink:href="#ad"/>
            </g>
            <path fill="#333"
                  d="M110-194c64 0 96 36 96 99 0 64-35 99-97 99-61 0-95-36-95-99 0-62 34-99 96-99zm-1 164c35 0 45-28 45-65 0-40-10-65-43-65-34 0-45 26-45 65 0 36 10 65 43 65"
                  id="ae"/>
            <path fill="#333"
                  d="M135-194c87-1 58 113 63 194h-50c-7-57 23-157-34-157-59 0-34 97-39 157H25l-1-190h47c2 12-1 28 3 38 12-26 28-41 61-42"
                  id="af"/>
            <path fill="#333"
                  d="M85 4C-2 5 27-109 22-190h50c7 57-23 150 33 157 60-5 35-97 40-157h50l1 190h-47c-2-12 1-28-3-38-12 25-28 42-61 42"
                  id="ag"/>
            <path fill="#333"
                  d="M220-157c-53 9-28 100-34 157h-49v-107c1-27-5-49-29-50C55-147 81-57 75 0H25l-1-190h47c2 12-1 28 3 38 10-53 101-56 108 0 13-22 24-43 59-42 82 1 51 116 57 194h-49v-107c-1-25-5-48-29-50"
                  id="ah"/>
            <path fill="#333" d="M135-150c-39-12-60 13-60 57V0H25l-1-190h47c2 13-1 29 3 40 6-28 27-53 61-41v41"
                  id="ai"/>
            <g id="g">
                <use transform="matrix(0.03998649864986499,0,0,0.03998649864986499,0,0)" xlink:href="#ab"/>
                <use transform="matrix(0.03998649864986499,0,0,0.03998649864986499,7.997299729972998,0)"
                     xlink:href="#ae"/>
                <use transform="matrix(0.03998649864986499,0,0,0.03998649864986499,16.75434293429343,0)"
                     xlink:href="#af"/>
                <use transform="matrix(0.03998649864986499,0,0,0.03998649864986499,25.511386138613858,0)"
                     xlink:href="#ad"/>
                <use transform="matrix(0.03998649864986499,0,0,0.03998649864986499,33.50868586858686,0)"
                     xlink:href="#ag"/>
                <use transform="matrix(0.03998649864986499,0,0,0.03998649864986499,42.2657290729073,0)"
                     xlink:href="#ah"/>
                <use transform="matrix(0.03998649864986499,0,0,0.03998649864986499,55.06140864086408,0)"
                     xlink:href="#ac"/>
                <use transform="matrix(0.03998649864986499,0,0,0.03998649864986499,63.05870837083709,0)"
                     xlink:href="#ai"/>
            </g>
            <path fill="#333" d="M24 0v-248h52V0H24" id="aj"/>
            <path fill="#333" d="M25-224v-37h50v37H25zM25 0v-190h50V0H25" id="ak"/>
            <path fill="#333" d="M115-3C79 11 28 4 28-45v-112H4v-33h27l15-45h31v45h36v33H77v99c-1 23 16 31 38 25v30"
                  id="al"/>
            <path fill="#333"
                  d="M133-34C117-15 103 5 69 4 32 3 11-16 11-54c-1-60 55-63 116-61 1-26-3-47-28-47-18 1-26 9-28 27l-52-2c7-38 36-58 82-57s74 22 75 68l1 82c-1 14 12 18 25 15v27c-30 8-71 5-69-32zm-48 3c29 0 43-24 42-57-32 0-66-3-65 30 0 17 8 27 23 27"
                  id="am"/>
            <g id="h">
                <use transform="matrix(0.03998649864986499,0,0,0.03998649864986499,0,0)" xlink:href="#aj"/>
                <use transform="matrix(0.03998649864986499,0,0,0.03998649864986499,3.998649864986499,0)"
                     xlink:href="#af"/>
                <use transform="matrix(0.03998649864986499,0,0,0.03998649864986499,12.755693069306929,0)"
                     xlink:href="#ak"/>
                <use transform="matrix(0.03998649864986499,0,0,0.03998649864986499,16.75434293429343,0)"
                     xlink:href="#al"/>
                <use transform="matrix(0.03998649864986499,0,0,0.03998649864986499,21.512736273627365,0)"
                     xlink:href="#ak"/>
                <use transform="matrix(0.03998649864986499,0,0,0.03998649864986499,25.511386138613865,0)"
                     xlink:href="#am"/>
                <use transform="matrix(0.03998649864986499,0,0,0.03998649864986499,33.508685868586866,0)"
                     xlink:href="#al"/>
                <use transform="matrix(0.03998649864986499,0,0,0.03998649864986499,38.2670792079208,0)"
                     xlink:href="#ac"/>
            </g>
            <path fill="#333"
                  d="M135-194c53 0 70 44 70 98 0 56-19 98-73 100-31 1-45-17-59-34 3 33 2 69 2 105H25l-1-265h48c2 10 0 23 3 31 11-24 29-35 60-35zM114-30c33 0 39-31 40-66 0-38-9-64-40-64-56 0-55 130 0 130"
                  id="an"/>
            <g id="i">
                <use transform="matrix(0.03998649864986499,0,0,0.03998649864986499,0,0)" xlink:href="#an"/>
                <use transform="matrix(0.03998649864986499,0,0,0.03998649864986499,8.757043204320432,0)"
                     xlink:href="#ac"/>
                <use transform="matrix(0.03998649864986499,0,0,0.03998649864986499,16.75434293429343,0)"
                     xlink:href="#ai"/>
                <use transform="matrix(0.03998649864986499,0,0,0.03998649864986499,22.352452745274526,0)"
                     xlink:href="#ah"/>
                <use transform="matrix(0.03998649864986499,0,0,0.03998649864986499,35.14813231323132,0)"
                     xlink:href="#ak"/>
                <use transform="matrix(0.03998649864986499,0,0,0.03998649864986499,39.14678217821782,0)"
                     xlink:href="#ad"/>
                <use transform="matrix(0.03998649864986499,0,0,0.03998649864986499,47.14408190819082,0)"
                     xlink:href="#ad"/>
                <use transform="matrix(0.03998649864986499,0,0,0.03998649864986499,55.14138163816382,0)"
                     xlink:href="#ak"/>
                <use transform="matrix(0.03998649864986499,0,0,0.03998649864986499,59.14003150315032,0)"
                     xlink:href="#ae"/>
                <use transform="matrix(0.03998649864986499,0,0,0.03998649864986499,67.89707470747075,0)"
                     xlink:href="#af"/>
            </g>
            <path fill="#333"
                  d="M88-194c31-1 46 15 58 34l-1-101h50l1 261h-48c-2-10 0-23-3-31C134-8 116 4 84 4 32 4 16-41 15-95c0-56 19-97 73-99zm17 164c33 0 40-30 41-66 1-37-9-64-41-64s-38 30-39 65c0 43 13 65 39 65"
                  id="ao"/>
            <path fill="#333" d="M25 0v-261h50V0H25" id="ap"/>
            <path fill="#333"
                  d="M195-6C206 82 75 100 31 46c-4-6-6-13-8-21l49-6c3 16 16 24 34 25 40 0 42-37 40-79-11 22-30 35-61 35-53 0-70-43-70-97 0-56 18-96 73-97 30 0 46 14 59 34l2-30h47zm-90-29c32 0 41-27 41-63 0-35-9-62-40-62-32 0-39 29-40 63 0 36 9 62 39 62"
                  id="aq"/>
            <g id="j">
                <use transform="matrix(0.03998649864986499,0,0,0.03998649864986499,0,0)" xlink:href="#ao"/>
                <use transform="matrix(0.03998649864986499,0,0,0.03998649864986499,8.757043204320432,0)"
                     xlink:href="#ac"/>
                <use transform="matrix(0.03998649864986499,0,0,0.03998649864986499,16.75434293429343,0)"
                     xlink:href="#ap"/>
                <use transform="matrix(0.03998649864986499,0,0,0.03998649864986499,20.75299279927993,0)"
                     xlink:href="#ac"/>
                <use transform="matrix(0.03998649864986499,0,0,0.03998649864986499,28.750292529252928,0)"
                     xlink:href="#aq"/>
                <use transform="matrix(0.03998649864986499,0,0,0.03998649864986499,37.507335733573356,0)"
                     xlink:href="#am"/>
                <use transform="matrix(0.03998649864986499,0,0,0.03998649864986499,45.50463546354636,0)"
                     xlink:href="#al"/>
                <use transform="matrix(0.03998649864986499,0,0,0.03998649864986499,50.26302880288029,0)"
                     xlink:href="#ak"/>
                <use transform="matrix(0.03998649864986499,0,0,0.03998649864986499,54.26167866786679,0)"
                     xlink:href="#ae"/>
                <use transform="matrix(0.03998649864986499,0,0,0.03998649864986499,63.01872187218723,0)"
                     xlink:href="#af"/>
            </g>
            <g id="k">
                <use transform="matrix(0.03998649864986499,0,0,0.03998649864986499,0,0)" xlink:href="#an"/>
                <use transform="matrix(0.03998649864986499,0,0,0.03998649864986499,8.757043204320432,0)"
                     xlink:href="#ai"/>
                <use transform="matrix(0.03998649864986499,0,0,0.03998649864986499,14.355153015301529,0)"
                     xlink:href="#ae"/>
                <use transform="matrix(0.03998649864986499,0,0,0.03998649864986499,23.112196219621964,0)"
                     xlink:href="#ab"/>
                <use transform="matrix(0.03998649864986499,0,0,0.03998649864986499,31.10949594959496,0)"
                     xlink:href="#ac"/>
                <use transform="matrix(0.03998649864986499,0,0,0.03998649864986499,39.10679567956796,0)"
                     xlink:href="#ad"/>
                <use transform="matrix(0.03998649864986499,0,0,0.03998649864986499,47.10409540954096,0)"
                     xlink:href="#ad"/>
            </g>
            <path fill="#333" d="M231 0h-52l-39-155L100 0H48L-1-190h46L77-45c9-52 24-97 36-145h53l37 145 32-145h46"
                  id="ar"/>
            <path fill="#333"
                  d="M114-157C55-157 80-60 75 0H25v-261h50l-1 109c12-26 28-41 61-42 86-1 58 113 63 194h-50c-7-57 23-157-34-157"
                  id="as"/>
            <g id="l">
                <use transform="matrix(0.03998649864986499,0,0,0.03998649864986499,0,0)" xlink:href="#ar"/>
                <use transform="matrix(0.03998649864986499,0,0,0.03998649864986499,11.196219621962197,0)"
                     xlink:href="#ak"/>
                <use transform="matrix(0.03998649864986499,0,0,0.03998649864986499,15.194869486948697,0)"
                     xlink:href="#al"/>
                <use transform="matrix(0.03998649864986499,0,0,0.03998649864986499,19.95326282628263,0)"
                     xlink:href="#as"/>
            </g>
            <path fill="#333" d="M123 10C108 53 80 86 19 72V37c35 8 53-11 59-39L3-190h52l48 148c12-52 28-100 44-148h51"
                  id="at"/>
            <g id="m">
                <use transform="matrix(0.03998649864986499,0,0,0.03998649864986499,0,0)" xlink:href="#ak"/>
                <use transform="matrix(0.03998649864986499,0,0,0.03998649864986499,3.998649864986499,0)"
                     xlink:href="#ao"/>
                <use transform="matrix(0.03998649864986499,0,0,0.03998649864986499,12.755693069306929,0)"
                     xlink:href="#ac"/>
                <use transform="matrix(0.03998649864986499,0,0,0.03998649864986499,20.75299279927993,0)"
                     xlink:href="#af"/>
                <use transform="matrix(0.03998649864986499,0,0,0.03998649864986499,29.510036003600362,0)"
                     xlink:href="#al"/>
                <use transform="matrix(0.03998649864986499,0,0,0.03998649864986499,34.2684293429343,0)"
                     xlink:href="#ak"/>
                <use transform="matrix(0.03998649864986499,0,0,0.03998649864986499,38.267079207920794,0)"
                     xlink:href="#al"/>
                <use transform="matrix(0.03998649864986499,0,0,0.03998649864986499,43.02547254725473,0)"
                     xlink:href="#at"/>
            </g>
            <path fill="#333" d="M128 0H69L1-190h53L99-40l48-150h52" id="au"/>
            <g id="n">
                <use transform="matrix(0.03998649864986499,0,0,0.03998649864986499,0,0)" xlink:href="#an"/>
                <use transform="matrix(0.03998649864986499,0,0,0.03998649864986499,8.757043204320432,0)"
                     xlink:href="#ai"/>
                <use transform="matrix(0.03998649864986499,0,0,0.03998649864986499,14.355153015301529,0)"
                     xlink:href="#ae"/>
                <use transform="matrix(0.03998649864986499,0,0,0.03998649864986499,23.112196219621964,0)"
                     xlink:href="#au"/>
                <use transform="matrix(0.03998649864986499,0,0,0.03998649864986499,31.10949594959496,0)"
                     xlink:href="#ak"/>
                <use transform="matrix(0.03998649864986499,0,0,0.03998649864986499,35.10814581458146,0)"
                     xlink:href="#ao"/>
                <use transform="matrix(0.03998649864986499,0,0,0.03998649864986499,43.865189018901894,0)"
                     xlink:href="#ac"/>
                <use transform="matrix(0.03998649864986499,0,0,0.03998649864986499,51.862488748874895,0)"
                     xlink:href="#ai"/>
            </g>
            <path fill="#333" d="M147 0H94L2-248h55l64 206c17-72 42-137 63-206h54" id="av"/>
            <g id="o">
                <use transform="matrix(0.03998649864986499,0,0,0.03998649864986499,0,0)" xlink:href="#av"/>
                <use transform="matrix(0.03998649864986499,0,0,0.03998649864986499,8.797029702970297,0)"
                     xlink:href="#am"/>
                <use transform="matrix(0.03998649864986499,0,0,0.03998649864986499,16.794329432943297,0)"
                     xlink:href="#ap"/>
                <use transform="matrix(0.03998649864986499,0,0,0.03998649864986499,20.792979297929794,0)"
                     xlink:href="#ao"/>
                <use transform="matrix(0.03998649864986499,0,0,0.03998649864986499,29.55002250225023,0)"
                     xlink:href="#ak"/>
                <use transform="matrix(0.03998649864986499,0,0,0.03998649864986499,33.548672367236726,0)"
                     xlink:href="#am"/>
                <use transform="matrix(0.03998649864986499,0,0,0.03998649864986499,41.54597209720973,0)"
                     xlink:href="#al"/>
                <use transform="matrix(0.03998649864986499,0,0,0.03998649864986499,46.30436543654366,0)"
                     xlink:href="#ac"/>
            </g>
            <path fill="#333"
                  d="M84 4C32 4 15-41 15-95c0-55 18-99 73-99 29 0 47 12 58 34l2-30h48l-1 265h-49V-32C136-9 114 4 84 4zm21-34c32 0 41-29 41-66 0-36-9-64-40-64-33 0-39 30-40 65 0 43 13 65 39 65"
                  id="aw"/>
            <g id="p">
                <use transform="matrix(0.03998649864986499,0,0,0.03998649864986499,0,0)" xlink:href="#ai"/>
                <use transform="matrix(0.03998649864986499,0,0,0.03998649864986499,5.598109810981098,0)"
                     xlink:href="#ac"/>
                <use transform="matrix(0.03998649864986499,0,0,0.03998649864986499,13.595409540954098,0)"
                     xlink:href="#aw"/>
                <use transform="matrix(0.03998649864986499,0,0,0.03998649864986499,22.35245274527453,0)"
                     xlink:href="#ag"/>
                <use transform="matrix(0.03998649864986499,0,0,0.03998649864986499,31.10949594959496,0)"
                     xlink:href="#ac"/>
                <use transform="matrix(0.03998649864986499,0,0,0.03998649864986499,39.10679567956796,0)"
                     xlink:href="#ad"/>
                <use transform="matrix(0.03998649864986499,0,0,0.03998649864986499,47.10409540954096,0)"
                     xlink:href="#al"/>
                <use transform="matrix(0.03998649864986499,0,0,0.03998649864986499,51.862488748874895,0)"
                     xlink:href="#ac"/>
                <use transform="matrix(0.03998649864986499,0,0,0.03998649864986499,59.859788478847896,0)"
                     xlink:href="#ao"/>
            </g>
            <g id="q">
                <use transform="matrix(0.03998649864986499,0,0,0.03998649864986499,0,0)" xlink:href="#an"/>
                <use transform="matrix(0.03998649864986499,0,0,0.03998649864986499,8.757043204320432,0)"
                     xlink:href="#ac"/>
                <use transform="matrix(0.03998649864986499,0,0,0.03998649864986499,16.75434293429343,0)"
                     xlink:href="#ai"/>
                <use transform="matrix(0.03998649864986499,0,0,0.03998649864986499,22.352452745274526,0)"
                     xlink:href="#ah"/>
                <use transform="matrix(0.03998649864986499,0,0,0.03998649864986499,35.14813231323132,0)"
                     xlink:href="#ak"/>
                <use transform="matrix(0.03998649864986499,0,0,0.03998649864986499,39.14678217821782,0)"
                     xlink:href="#ad"/>
                <use transform="matrix(0.03998649864986499,0,0,0.03998649864986499,47.14408190819082,0)"
                     xlink:href="#ad"/>
                <use transform="matrix(0.03998649864986499,0,0,0.03998649864986499,55.14138163816382,0)"
                     xlink:href="#ak"/>
                <use transform="matrix(0.03998649864986499,0,0,0.03998649864986499,59.14003150315032,0)"
                     xlink:href="#ae"/>
                <use transform="matrix(0.03998649864986499,0,0,0.03998649864986499,67.89707470747075,0)"
                     xlink:href="#af"/>
                <use transform="matrix(0.03998649864986499,0,0,0.03998649864986499,76.65411791179119,0)"
                     xlink:href="#ad"/>
            </g>
            <g id="r">
                <use transform="matrix(0.03998649864986499,0,0,0.03998649864986499,0,0)" xlink:href="#am"/>
                <use transform="matrix(0.03998649864986499,0,0,0.03998649864986499,7.997299729972998,0)"
                     xlink:href="#aq"/>
                <use transform="matrix(0.03998649864986499,0,0,0.03998649864986499,16.75434293429343,0)"
                     xlink:href="#am"/>
                <use transform="matrix(0.03998649864986499,0,0,0.03998649864986499,24.75164266426643,0)"
                     xlink:href="#ak"/>
                <use transform="matrix(0.03998649864986499,0,0,0.03998649864986499,28.750292529252928,0)"
                     xlink:href="#af"/>
                <use transform="matrix(0.03998649864986499,0,0,0.03998649864986499,37.507335733573356,0)"
                     xlink:href="#ad"/>
                <use transform="matrix(0.03998649864986499,0,0,0.03998649864986499,45.50463546354636,0)"
                     xlink:href="#al"/>
            </g>
            <path fill="#333"
                  d="M135-194c52 0 70 43 70 98 0 56-19 99-73 100-30 1-46-15-58-35L72 0H24l1-261h50v104c11-23 29-37 60-37zM114-30c31 0 40-27 40-66 0-37-7-63-39-63s-41 28-41 65c0 36 8 64 40 64"
                  id="ax"/>
            <g id="s">
                <use transform="matrix(0.03998649864986499,0,0,0.03998649864986499,0,0)" xlink:href="#am"/>
                <use transform="matrix(0.03998649864986499,0,0,0.03998649864986499,7.997299729972998,0)"
                     xlink:href="#au"/>
                <use transform="matrix(0.03998649864986499,0,0,0.03998649864986499,15.994599459945997,0)"
                     xlink:href="#am"/>
                <use transform="matrix(0.03998649864986499,0,0,0.03998649864986499,23.991899189918993,0)"
                     xlink:href="#ak"/>
                <use transform="matrix(0.03998649864986499,0,0,0.03998649864986499,27.990549054905497,0)"
                     xlink:href="#ap"/>
                <use transform="matrix(0.03998649864986499,0,0,0.03998649864986499,31.989198919891997,0)"
                     xlink:href="#am"/>
                <use transform="matrix(0.03998649864986499,0,0,0.03998649864986499,39.986498649865,0)"
                     xlink:href="#ax"/>
                <use transform="matrix(0.03998649864986499,0,0,0.03998649864986499,48.74354185418543,0)"
                     xlink:href="#ap"/>
                <use transform="matrix(0.03998649864986499,0,0,0.03998649864986499,52.742191719171934,0)"
                     xlink:href="#ac"/>
            </g>
            <g id="t">
                <use transform="matrix(0.03998649864986499,0,0,0.03998649864986499,0,0)" xlink:href="#an"/>
                <use transform="matrix(0.03998649864986499,0,0,0.03998649864986499,8.757043204320432,0)"
                     xlink:href="#ac"/>
                <use transform="matrix(0.03998649864986499,0,0,0.03998649864986499,16.75434293429343,0)"
                     xlink:href="#ai"/>
                <use transform="matrix(0.03998649864986499,0,0,0.03998649864986499,22.352452745274526,0)"
                     xlink:href="#ah"/>
                <use transform="matrix(0.03998649864986499,0,0,0.03998649864986499,35.14813231323132,0)"
                     xlink:href="#ak"/>
                <use transform="matrix(0.03998649864986499,0,0,0.03998649864986499,39.14678217821782,0)"
                     xlink:href="#ad"/>
                <use transform="matrix(0.03998649864986499,0,0,0.03998649864986499,47.14408190819082,0)"
                     xlink:href="#ad"/>
                <use transform="matrix(0.03998649864986499,0,0,0.03998649864986499,55.14138163816382,0)"
                     xlink:href="#ak"/>
                <use transform="matrix(0.03998649864986499,0,0,0.03998649864986499,59.14003150315032,0)"
                     xlink:href="#ae"/>
                <use transform="matrix(0.03998649864986499,0,0,0.03998649864986499,67.89707470747075,0)"
                     xlink:href="#af"/>
                <use transform="matrix(0.03998649864986499,0,0,0.03998649864986499,76.65411791179119,0)"
                     xlink:href="#ad"/>
            </g>
            <path fill="#333"
                  d="M169-182c-1-43-94-46-97-3 18 66 151 10 154 114 3 95-165 93-204 36-6-8-10-19-12-30l50-8c3 46 112 56 116 5-17-69-150-10-154-114-4-87 153-88 188-35 5 8 8 18 10 28"
                  id="ay"/>
            <g id="u">
                <use transform="matrix(0.03998649864986499,0,0,0.03998649864986499,0,0)" xlink:href="#ay"/>
                <use transform="matrix(0.03998649864986499,0,0,0.03998649864986499,9.596759675967597,0)"
                     xlink:href="#as"/>
                <use transform="matrix(0.03998649864986499,0,0,0.03998649864986499,18.35380288028803,0)"
                     xlink:href="#ae"/>
                <use transform="matrix(0.03998649864986499,0,0,0.03998649864986499,27.110846084608458,0)"
                     xlink:href="#ar"/>
            </g>
            <g id="v">
                <use transform="matrix(0.03998649864986499,0,0,0.03998649864986499,0,0)" xlink:href="#an"/>
                <use transform="matrix(0.03998649864986499,0,0,0.03998649864986499,8.757043204320432,0)"
                     xlink:href="#ac"/>
                <use transform="matrix(0.03998649864986499,0,0,0.03998649864986499,16.75434293429343,0)"
                     xlink:href="#ai"/>
                <use transform="matrix(0.03998649864986499,0,0,0.03998649864986499,22.352452745274526,0)"
                     xlink:href="#ah"/>
                <use transform="matrix(0.03998649864986499,0,0,0.03998649864986499,35.14813231323132,0)"
                     xlink:href="#ak"/>
                <use transform="matrix(0.03998649864986499,0,0,0.03998649864986499,39.14678217821782,0)"
                     xlink:href="#ad"/>
                <use transform="matrix(0.03998649864986499,0,0,0.03998649864986499,47.14408190819082,0)"
                     xlink:href="#ad"/>
                <use transform="matrix(0.03998649864986499,0,0,0.03998649864986499,55.14138163816382,0)"
                     xlink:href="#ak"/>
                <use transform="matrix(0.03998649864986499,0,0,0.03998649864986499,59.14003150315032,0)"
                     xlink:href="#ae"/>
                <use transform="matrix(0.03998649864986499,0,0,0.03998649864986499,67.89707470747075,0)"
                     xlink:href="#af"/>
                <use transform="matrix(0.03998649864986499,0,0,0.03998649864986499,76.65411791179119,0)"
                     xlink:href="#ad"/>
            </g>
            <g id="w">
                <use transform="matrix(0.03998649864986499,0,0,0.03998649864986499,0,0)" xlink:href="#al"/>
                <use transform="matrix(0.03998649864986499,0,0,0.03998649864986499,4.758393339333934,0)"
                     xlink:href="#ae"/>
            </g>
            <g id="x">
                <use transform="matrix(0.03998649864986499,0,0,0.03998649864986499,0,0)" xlink:href="#ag"/>
                <use transform="matrix(0.03998649864986499,0,0,0.03998649864986499,8.757043204320432,0)"
                     xlink:href="#ad"/>
                <use transform="matrix(0.03998649864986499,0,0,0.03998649864986499,16.75434293429343,0)"
                     xlink:href="#ac"/>
                <use transform="matrix(0.03998649864986499,0,0,0.03998649864986499,24.75164266426643,0)"
                     xlink:href="#ai"/>
            </g>
            <g id="y">
                <use transform="matrix(0.03998649864986499,0,0,0.03998649864986499,0,0)" xlink:href="#aa"/>
                <use transform="matrix(0.03998649864986499,0,0,0.03998649864986499,10.356503150315033,0)"
                     xlink:href="#ag"/>
                <use transform="matrix(0.03998649864986499,0,0,0.03998649864986499,19.113546354635467,0)"
                     xlink:href="#al"/>
                <use transform="matrix(0.03998649864986499,0,0,0.03998649864986499,23.871939693969402,0)"
                     xlink:href="#as"/>
                <use transform="matrix(0.03998649864986499,0,0,0.03998649864986499,32.628982898289834,0)"
                     xlink:href="#ac"/>
                <use transform="matrix(0.03998649864986499,0,0,0.03998649864986499,40.626282628262835,0)"
                     xlink:href="#af"/>
                <use transform="matrix(0.03998649864986499,0,0,0.03998649864986499,49.38332583258326,0)"
                     xlink:href="#al"/>
                <use transform="matrix(0.03998649864986499,0,0,0.03998649864986499,54.14171917191721,0)"
                     xlink:href="#ak"/>
                <use transform="matrix(0.03998649864986499,0,0,0.03998649864986499,58.1403690369037,0)"
                     xlink:href="#ab"/>
                <use transform="matrix(0.03998649864986499,0,0,0.03998649864986499,66.1376687668767,0)"
                     xlink:href="#am"/>
                <use transform="matrix(0.03998649864986499,0,0,0.03998649864986499,74.1349684968497,0)"
                     xlink:href="#al"/>
                <use transform="matrix(0.03998649864986499,0,0,0.03998649864986499,78.89336183618363,0)"
                     xlink:href="#ac"/>
            </g>
            <g id="z">
                <use transform="matrix(0.03998649864986499,0,0,0.03998649864986499,0,0)" xlink:href="#am"/>
                <use transform="matrix(0.03998649864986499,0,0,0.03998649864986499,7.997299729972998,0)"
                     xlink:href="#af"/>
                <use transform="matrix(0.03998649864986499,0,0,0.03998649864986499,16.75434293429343,0)"
                     xlink:href="#ao"/>
            </g>
            <path fill="#333" d="M12 0v-35l95-120H19v-35h142v35L67-36h103V0H12" id="az"/>
            <g id="A">
                <use transform="matrix(0.03998649864986499,0,0,0.03998649864986499,0,0)" xlink:href="#am"/>
                <use transform="matrix(0.03998649864986499,0,0,0.03998649864986499,7.997299729972998,0)"
                     xlink:href="#ag"/>
                <use transform="matrix(0.03998649864986499,0,0,0.03998649864986499,16.75434293429343,0)"
                     xlink:href="#al"/>
                <use transform="matrix(0.03998649864986499,0,0,0.03998649864986499,21.512736273627365,0)"
                     xlink:href="#as"/>
                <use transform="matrix(0.03998649864986499,0,0,0.03998649864986499,30.269779477947797,0)"
                     xlink:href="#ae"/>
                <use transform="matrix(0.03998649864986499,0,0,0.03998649864986499,39.02682268226823,0)"
                     xlink:href="#ai"/>
                <use transform="matrix(0.03998649864986499,0,0,0.03998649864986499,44.62493249324933,0)"
                     xlink:href="#ak"/>
                <use transform="matrix(0.03998649864986499,0,0,0.03998649864986499,48.62358235823583,0)"
                     xlink:href="#az"/>
                <use transform="matrix(0.03998649864986499,0,0,0.03998649864986499,55.821152115211525,0)"
                     xlink:href="#ac"/>
            </g>
            <g id="B">
                <use transform="matrix(0.03998649864986499,0,0,0.03998649864986499,0,0)" xlink:href="#an"/>
                <use transform="matrix(0.03998649864986499,0,0,0.03998649864986499,8.757043204320432,0)"
                     xlink:href="#ac"/>
                <use transform="matrix(0.03998649864986499,0,0,0.03998649864986499,16.75434293429343,0)"
                     xlink:href="#ai"/>
                <use transform="matrix(0.03998649864986499,0,0,0.03998649864986499,22.352452745274526,0)"
                     xlink:href="#ah"/>
                <use transform="matrix(0.03998649864986499,0,0,0.03998649864986499,35.14813231323132,0)"
                     xlink:href="#ak"/>
                <use transform="matrix(0.03998649864986499,0,0,0.03998649864986499,39.14678217821782,0)"
                     xlink:href="#ad"/>
                <use transform="matrix(0.03998649864986499,0,0,0.03998649864986499,47.14408190819082,0)"
                     xlink:href="#ad"/>
                <use transform="matrix(0.03998649864986499,0,0,0.03998649864986499,55.14138163816382,0)"
                     xlink:href="#ak"/>
                <use transform="matrix(0.03998649864986499,0,0,0.03998649864986499,59.14003150315032,0)"
                     xlink:href="#ae"/>
                <use transform="matrix(0.03998649864986499,0,0,0.03998649864986499,67.89707470747075,0)"
                     xlink:href="#af"/>
            </g>
            <g id="C">
                <use transform="matrix(0.03998649864986499,0,0,0.03998649864986499,0,0)" xlink:href="#ai"/>
                <use transform="matrix(0.03998649864986499,0,0,0.03998649864986499,5.598109810981098,0)"
                     xlink:href="#ac"/>
                <use transform="matrix(0.03998649864986499,0,0,0.03998649864986499,13.595409540954098,0)"
                     xlink:href="#aw"/>
                <use transform="matrix(0.03998649864986499,0,0,0.03998649864986499,22.35245274527453,0)"
                     xlink:href="#ag"/>
                <use transform="matrix(0.03998649864986499,0,0,0.03998649864986499,31.10949594959496,0)"
                     xlink:href="#ac"/>
                <use transform="matrix(0.03998649864986499,0,0,0.03998649864986499,39.10679567956796,0)"
                     xlink:href="#ad"/>
                <use transform="matrix(0.03998649864986499,0,0,0.03998649864986499,47.10409540954096,0)"
                     xlink:href="#al"/>
            </g>
            <g id="D">
                <use transform="matrix(0.03998649864986499,0,0,0.03998649864986499,0,0)" xlink:href="#aj"/>
                <use transform="matrix(0.03998649864986499,0,0,0.03998649864986499,3.998649864986499,0)"
                     xlink:href="#ad"/>
                <use transform="matrix(0.03998649864986499,0,0,0.03998649864986499,11.995949594959496,0)"
                     xlink:href="#ad"/>
                <use transform="matrix(0.03998649864986499,0,0,0.03998649864986499,19.993249324932496,0)"
                     xlink:href="#ag"/>
                <use transform="matrix(0.03998649864986499,0,0,0.03998649864986499,28.750292529252928,0)"
                     xlink:href="#ac"/>
            </g>
            <g id="E">
                <use transform="matrix(0.03998649864986499,0,0,0.03998649864986499,0,0)" xlink:href="#ab"/>
                <use transform="matrix(0.03998649864986499,0,0,0.03998649864986499,7.997299729972998,0)"
                     xlink:href="#ai"/>
                <use transform="matrix(0.03998649864986499,0,0,0.03998649864986499,13.595409540954098,0)"
                     xlink:href="#ac"/>
                <use transform="matrix(0.03998649864986499,0,0,0.03998649864986499,21.592709270927095,0)"
                     xlink:href="#ao"/>
                <use transform="matrix(0.03998649864986499,0,0,0.03998649864986499,30.349752475247527,0)"
                     xlink:href="#ac"/>
                <use transform="matrix(0.03998649864986499,0,0,0.03998649864986499,38.34705220522053,0)"
                     xlink:href="#af"/>
                <use transform="matrix(0.03998649864986499,0,0,0.03998649864986499,47.10409540954096,0)"
                     xlink:href="#al"/>
                <use transform="matrix(0.03998649864986499,0,0,0.03998649864986499,51.862488748874895,0)"
                     xlink:href="#ak"/>
                <use transform="matrix(0.03998649864986499,0,0,0.03998649864986499,55.86113861386139,0)"
                     xlink:href="#am"/>
                <use transform="matrix(0.03998649864986499,0,0,0.03998649864986499,63.858438343834386,0)"
                     xlink:href="#ap"/>
            </g>
            <g id="F">
                <use transform="matrix(0.03998649864986499,0,0,0.03998649864986499,0,0)" xlink:href="#ad"/>
                <use transform="matrix(0.03998649864986499,0,0,0.03998649864986499,7.997299729972998,0)"
                     xlink:href="#ac"/>
                <use transform="matrix(0.03998649864986499,0,0,0.03998649864986499,15.994599459945997,0)"
                     xlink:href="#ai"/>
                <use transform="matrix(0.03998649864986499,0,0,0.03998649864986499,21.592709270927095,0)"
                     xlink:href="#au"/>
                <use transform="matrix(0.03998649864986499,0,0,0.03998649864986499,29.590009000900093,0)"
                     xlink:href="#ak"/>
                <use transform="matrix(0.03998649864986499,0,0,0.03998649864986499,33.58865886588659,0)"
                     xlink:href="#ab"/>
                <use transform="matrix(0.03998649864986499,0,0,0.03998649864986499,41.58595859585959,0)"
                     xlink:href="#ac"/>
            </g>
            <g id="G">
                <use transform="matrix(0.03998649864986499,0,0,0.03998649864986499,0,0)" xlink:href="#ar"/>
                <use transform="matrix(0.03998649864986499,0,0,0.03998649864986499,11.196219621962197,0)"
                     xlink:href="#ak"/>
                <use transform="matrix(0.03998649864986499,0,0,0.03998649864986499,15.194869486948697,0)"
                     xlink:href="#al"/>
                <use transform="matrix(0.03998649864986499,0,0,0.03998649864986499,19.95326282628263,0)"
                     xlink:href="#as"/>
            </g>
            <g id="H">
                <use transform="matrix(0.03998649864986499,0,0,0.03998649864986499,0,0)" xlink:href="#aq"/>
                <use transform="matrix(0.03998649864986499,0,0,0.03998649864986499,8.757043204320432,0)"
                     xlink:href="#ak"/>
                <use transform="matrix(0.03998649864986499,0,0,0.03998649864986499,12.755693069306929,0)"
                     xlink:href="#au"/>
                <use transform="matrix(0.03998649864986499,0,0,0.03998649864986499,20.75299279927993,0)"
                     xlink:href="#ac"/>
                <use transform="matrix(0.03998649864986499,0,0,0.03998649864986499,28.750292529252928,0)"
                     xlink:href="#af"/>
            </g>
        </defs>
    </g>
</svg>